<?xml version="1.0" encoding="UTF-8"?>
<!DOCTYPE svg PUBLIC "-//W3C//DTD SVG 1.1//EN" "http://www.w3.org/Graphics/SVG/1.1/DTD/svg11.dtd">
<svg xmlns="http://www.w3.org/2000/svg" version="1.1" width="2500px" height="2500px" style="shape-rendering:geometricPrecision; text-rendering:geometricPrecision; image-rendering:optimizeQuality; fill-rule:evenodd; clip-rule:evenodd" xmlns:xlink="http://www.w3.org/1999/xlink">
<g><path style="opacity:0.175" fill="#fefffe" d="M -0.5,-0.5 C 832.833,-0.5 1666.17,-0.5 2499.5,-0.5C 2499.5,832.833 2499.5,1666.17 2499.5,2499.5C 1666.17,2499.5 832.833,2499.5 -0.5,2499.5C -0.5,1666.17 -0.5,832.833 -0.5,-0.5 Z M 6.5,6.5 C 835.5,6.5 1664.5,6.5 2493.5,6.5C 2493.5,835.167 2493.5,1663.83 2493.5,2492.5C 1664.5,2492.5 835.5,2492.5 6.5,2492.5C 6.5,1663.83 6.5,835.167 6.5,6.5 Z M 205.5,514.5 C 901.5,514.5 1597.5,514.5 2293.5,514.5C 2293.36,516.124 2294.03,517.29 2295.5,518C 2298.5,518.333 2301.5,518.667 2304.5,519C 2305.17,520 2305.83,521 2306.5,522C 2309.15,522.497 2311.81,522.664 2314.5,522.5C 2314.33,523.822 2314.66,524.989 2315.5,526C 2317.81,526.497 2320.14,526.663 2322.5,526.5C 2322.5,527.833 2322.5,529.167 2322.5,530.5C 2325.55,529.923 2327.55,531.09 2328.5,534C 2330.44,534.813 2332.44,535.313 2334.5,535.5C 2334.41,538.541 2335.91,540.207 2339,540.5C 2339.48,541.448 2339.65,542.448 2339.5,543.5C 2340.83,543.5 2342.17,543.5 2343.5,543.5C 2343.5,544.833 2343.5,546.167 2343.5,547.5C 2344.83,547.5 2346.17,547.5 2347.5,547.5C 2347.5,548.833 2347.5,550.167 2347.5,551.5C 2348.83,551.5 2350.17,551.5 2351.5,551.5C 2351.5,552.833 2351.5,554.167 2351.5,555.5C 2352.82,555.33 2353.99,555.663 2355,556.5C 2355.66,558.813 2356.16,561.146 2356.5,563.5C 2357.5,563.5 2358.5,563.5 2359.5,563.5C 2358.92,566.55 2360.09,568.55 2363,569.5C 2363.98,571.74 2364.48,574.073 2364.5,576.5C 2365.83,576.5 2367.17,576.5 2368.5,576.5C 2368.34,579.518 2368.5,582.518 2369,585.5C 2371.77,588.903 2373.1,592.903 2373,597.5C 2374,598.5 2375,599.5 2376,600.5C 2376.5,646.499 2376.67,692.499 2376.5,738.5C 1625.17,738.5 873.833,738.5 122.5,738.5C 122.167,692.495 122.5,646.495 123.5,600.5C 124.799,599.91 125.632,598.91 126,597.5C 126.498,594.518 126.665,591.518 126.5,588.5C 128.124,588.64 129.29,587.973 130,586.5C 130.61,583.173 131.11,579.839 131.5,576.5C 132.5,576.5 133.5,576.5 134.5,576.5C 134.379,572.557 135.879,569.557 139,567.5C 139.49,566.207 139.657,564.873 139.5,563.5C 140.675,563.719 141.675,563.386 142.5,562.5C 144.247,558.789 145.914,555.123 147.5,551.5C 148.833,551.5 150.167,551.5 151.5,551.5C 151.5,550.167 151.5,548.833 151.5,547.5C 152.833,547.5 154.167,547.5 155.5,547.5C 155.5,546.167 155.5,544.833 155.5,543.5C 156.978,543.762 158.311,543.429 159.5,542.5C 160.145,540.568 161.479,539.401 163.5,539C 164.337,537.989 164.67,536.822 164.5,535.5C 168.139,535.578 170.806,534.078 172.5,531C 173.793,530.51 175.127,530.343 176.5,530.5C 176.5,529.167 176.5,527.833 176.5,526.5C 179.167,526.5 181.833,526.5 184.5,526.5C 184.5,525.167 184.5,523.833 184.5,522.5C 187.187,522.664 189.854,522.497 192.5,522C 193.167,521 193.833,520 194.5,519C 197.5,518.667 200.5,518.333 203.5,518C 204.973,517.29 205.64,516.124 205.5,514.5 Z M 122.5,822.5 C 873.833,822.5 1625.17,822.5 2376.5,822.5C 2376.67,1181.17 2376.5,1539.83 2376,1898.5C 2375,1899.5 2374,1900.5 2373,1901.5C 2373.1,1906.1 2371.77,1910.1 2369,1913.5C 2368.5,1916.48 2368.34,1919.48 2368.5,1922.5C 2367.17,1922.5 2365.83,1922.5 2364.5,1922.5C 2364.79,1926.5 2363.29,1929.5 2360,1931.5C 2359.51,1932.79 2359.34,1934.13 2359.5,1935.5C 2358.5,1935.5 2357.5,1935.5 2356.5,1935.5C 2356.16,1937.85 2355.66,1940.19 2355,1942.5C 2353.99,1943.34 2352.82,1943.67 2351.5,1943.5C 2351.5,1944.83 2351.5,1946.17 2351.5,1947.5C 2350.17,1947.5 2348.83,1947.5 2347.5,1947.5C 2347.5,1949.17 2347.5,1950.83 2347.5,1952.5C 2346.17,1952.5 2344.83,1952.5 2343.5,1952.5C 2343.5,1953.5 2343.5,1954.5 2343.5,1955.5C 2342.17,1955.5 2340.83,1955.5 2339.5,1955.5C 2339.59,1958.54 2338.09,1960.21 2335,1960.5C 2334.52,1961.45 2334.35,1962.45 2334.5,1963.5C 2330.86,1963.42 2328.19,1964.92 2326.5,1968C 2325.21,1968.49 2323.87,1968.66 2322.5,1968.5C 2322.5,1969.83 2322.5,1971.17 2322.5,1972.5C 2320.14,1972.34 2317.81,1972.5 2315.5,1973C 2314.66,1974.01 2314.33,1975.18 2314.5,1976.5C 2311.81,1976.34 2309.15,1976.5 2306.5,1977C 2305.83,1978 2305.17,1979 2304.5,1980C 2301.5,1980.33 2298.5,1980.67 2295.5,1981C 2294.03,1981.71 2293.36,1982.88 2293.5,1984.5C 2110.17,1984.5 1926.83,1984.5 1743.5,1984.5C 1744.17,1981.09 1743.17,1978.43 1740.5,1976.5C 1739.45,1973.92 1738.78,1971.25 1738.5,1968.5C 1737.5,1968.5 1736.5,1968.5 1735.5,1968.5C 1735.61,1964.66 1734.28,1961.49 1731.5,1959C 1730.92,1957.19 1730.42,1955.36 1730,1953.5C 1728.99,1952.66 1727.82,1952.33 1726.5,1952.5C 1726.98,1949.2 1725.98,1946.54 1723.5,1944.5C 1722.69,1942.58 1722.19,1940.58 1722,1938.5C 1719.91,1936.65 1718.57,1934.32 1718,1931.5C 1717,1930.83 1716,1930.17 1715,1929.5C 1714.81,1927.1 1714.31,1924.77 1713.5,1922.5C 1711.65,1919.34 1709.65,1916.34 1707.5,1913.5C 1706.84,1909.45 1705,1906.12 1702,1903.5C 1701.99,1900.1 1700.65,1897.43 1698,1895.5C 1697.5,1893.53 1697.34,1891.53 1697.5,1889.5C 1696.18,1889.67 1695.01,1889.34 1694,1888.5C 1693.67,1886.17 1693.33,1883.83 1693,1881.5C 1691.99,1880.66 1690.82,1880.33 1689.5,1880.5C 1689.66,1878.47 1689.5,1876.47 1689,1874.5C 1688.29,1873.03 1687.12,1872.36 1685.5,1872.5C 1685.42,1869.79 1685.09,1867.13 1684.5,1864.5C 1683.5,1864.5 1682.5,1864.5 1681.5,1864.5C 1681.32,1861.78 1680.82,1859.12 1680,1856.5C 1678.99,1855.66 1677.82,1855.33 1676.5,1855.5C 1676.66,1853.14 1676.5,1850.81 1676,1848.5C 1674.99,1847.66 1673.82,1847.33 1672.5,1847.5C 1672.66,1845.14 1672.5,1842.81 1672,1840.5C 1670.99,1839.66 1669.82,1839.33 1668.5,1839.5C 1669.21,1835.68 1668.04,1832.68 1665,1830.5C 1662.7,1825.66 1660.7,1820.66 1659,1815.5C 1656.39,1813.94 1655.05,1811.61 1655,1808.5C 1652.55,1805.26 1650.21,1801.93 1648,1798.5C 1647.14,1793.79 1645.47,1789.45 1643,1785.5C 1641.99,1784.66 1640.82,1784.33 1639.5,1784.5C 1639.66,1782.14 1639.5,1779.81 1639,1777.5C 1638,1776.83 1637,1776.17 1636,1775.5C 1633.76,1770.67 1631.76,1765.67 1630,1760.5C 1628.99,1759.66 1627.82,1759.33 1626.5,1759.5C 1626.5,1756.83 1626.5,1754.17 1626.5,1751.5C 1625.17,1751.5 1623.83,1751.5 1622.5,1751.5C 1622.5,1748.83 1622.5,1746.17 1622.5,1743.5C 1621.17,1743.5 1619.83,1743.5 1618.5,1743.5C 1618.66,1741.14 1618.5,1738.81 1618,1736.5C 1615.35,1734.57 1614.01,1731.9 1614,1728.5C 1610.71,1726.04 1609.21,1722.7 1609.5,1718.5C 1608.5,1718.5 1607.5,1718.5 1606.5,1718.5C 1606.16,1716.15 1605.66,1713.81 1605,1711.5C 1603.99,1710.66 1602.82,1710.33 1601.5,1710.5C 1601.81,1707.75 1601.48,1705.09 1600.5,1702.5C 1599.83,1702.17 1599.17,1701.83 1598.5,1701.5C 1597.31,1697.14 1595.64,1693.14 1593.5,1689.5C 1590.46,1689.59 1588.79,1688.09 1588.5,1685C 1584.77,1682.05 1580.77,1679.38 1576.5,1677C 1357.17,1676.33 1137.83,1676.33 918.5,1677C 916.306,1679.17 913.639,1680.51 910.5,1681C 909.663,1682.01 909.33,1683.18 909.5,1684.5C 908.178,1684.33 907.011,1684.66 906,1685.5C 905.599,1687.52 904.432,1688.85 902.5,1689.5C 901.571,1690.69 901.238,1692.02 901.5,1693.5C 900.178,1693.33 899.011,1693.66 898,1694.5C 897.503,1696.81 897.337,1699.14 897.5,1701.5C 896.178,1701.33 895.011,1701.66 894,1702.5C 894.122,1705.97 892.789,1708.63 890,1710.5C 889.178,1713.12 888.678,1715.78 888.5,1718.5C 887.325,1718.28 886.325,1718.61 885.5,1719.5C 884.626,1721.75 884.292,1724.08 884.5,1726.5C 883.178,1726.33 882.011,1726.66 881,1727.5C 880.814,1729.9 880.314,1732.23 879.5,1734.5C 878.833,1734.83 878.167,1735.17 877.5,1735.5C 876.52,1738.09 876.187,1740.75 876.5,1743.5C 875.167,1743.5 873.833,1743.5 872.5,1743.5C 872.5,1746.17 872.5,1748.83 872.5,1751.5C 871.178,1751.33 870.011,1751.66 869,1752.5C 868.832,1756.5 867.332,1759.83 864.5,1762.5C 863.844,1764.45 863.511,1766.45 863.5,1768.5C 862.325,1768.28 861.325,1768.61 860.5,1769.5C 859.626,1771.75 859.292,1774.08 859.5,1776.5C 858.325,1776.28 857.325,1776.61 856.5,1777.5C 855.94,1779.85 855.273,1782.19 854.5,1784.5C 853.833,1784.83 853.167,1785.17 852.5,1785.5C 851.52,1788.09 851.187,1790.75 851.5,1793.5C 850.167,1793.5 848.833,1793.5 847.5,1793.5C 847.5,1796.17 847.5,1798.83 847.5,1801.5C 846.178,1801.33 845.011,1801.66 844,1802.5C 843.832,1806.5 842.332,1809.83 839.5,1812.5C 838.844,1814.45 838.511,1816.45 838.5,1818.5C 837.325,1818.28 836.325,1818.61 835.5,1819.5C 834.626,1821.75 834.292,1824.08 834.5,1826.5C 833.178,1826.33 832.011,1826.66 831,1827.5C 830.814,1829.9 830.314,1832.23 829.5,1834.5C 828.833,1834.83 828.167,1835.17 827.5,1835.5C 826.52,1838.09 826.187,1840.75 826.5,1843.5C 825.167,1843.5 823.833,1843.5 822.5,1843.5C 822.5,1846.17 822.5,1848.83 822.5,1851.5C 821.178,1851.33 820.011,1851.66 819,1852.5C 819.122,1855.97 817.789,1858.63 815,1860.5C 814.178,1863.12 813.678,1865.78 813.5,1868.5C 812.325,1868.28 811.325,1868.61 810.5,1869.5C 809.626,1871.75 809.292,1874.08 809.5,1876.5C 808.178,1876.33 807.011,1876.66 806,1877.5C 805.814,1879.9 805.314,1882.23 804.5,1884.5C 803.833,1884.83 803.167,1885.17 802.5,1885.5C 801.52,1888.09 801.187,1890.75 801.5,1893.5C 800.167,1893.5 798.833,1893.5 797.5,1893.5C 797.5,1896.17 797.5,1898.83 797.5,1901.5C 796.178,1901.33 795.011,1901.66 794,1902.5C 793.832,1906.5 792.332,1909.83 789.5,1912.5C 788.844,1914.45 788.511,1916.45 788.5,1918.5C 787.325,1918.28 786.325,1918.61 785.5,1919.5C 784.626,1921.75 784.292,1924.08 784.5,1926.5C 783.178,1926.33 782.011,1926.66 781,1927.5C 780.814,1929.9 780.314,1932.23 779.5,1934.5C 778.833,1934.83 778.167,1935.17 777.5,1935.5C 776.52,1938.09 776.187,1940.75 776.5,1943.5C 775.167,1943.5 773.833,1943.5 772.5,1943.5C 772.5,1946.5 772.5,1949.5 772.5,1952.5C 771.167,1952.5 769.833,1952.5 768.5,1952.5C 768.81,1956.54 767.476,1959.87 764.5,1962.5C 763.844,1964.45 763.511,1966.45 763.5,1968.5C 762.325,1968.28 761.325,1968.61 760.5,1969.5C 759.626,1971.75 759.292,1974.08 759.5,1976.5C 758.178,1976.33 757.011,1976.66 756,1977.5C 755.503,1979.81 755.337,1982.14 755.5,1984.5C 572.167,1984.5 388.833,1984.5 205.5,1984.5C 205.64,1982.88 204.973,1981.71 203.5,1981C 200.5,1980.67 197.5,1980.33 194.5,1980C 193.833,1979 193.167,1978 192.5,1977C 189.854,1976.5 187.187,1976.34 184.5,1976.5C 184.5,1975.17 184.5,1973.83 184.5,1972.5C 181.833,1972.5 179.167,1972.5 176.5,1972.5C 176.5,1971.17 176.5,1969.83 176.5,1968.5C 173.45,1969.08 171.45,1967.91 170.5,1965C 168.564,1964.19 166.564,1963.69 164.5,1963.5C 164.67,1962.18 164.337,1961.01 163.5,1960C 161.479,1959.6 160.145,1958.43 159.5,1956.5C 158.311,1955.57 156.978,1955.24 155.5,1955.5C 155.5,1954.5 155.5,1953.5 155.5,1952.5C 154.167,1952.5 152.833,1952.5 151.5,1952.5C 151.5,1950.83 151.5,1949.17 151.5,1947.5C 150.167,1947.5 148.833,1947.5 147.5,1947.5C 145.504,1944.11 143.838,1940.45 142.5,1936.5C 141.675,1935.61 140.675,1935.28 139.5,1935.5C 140.077,1932.45 138.91,1930.45 136,1929.5C 135.338,1927.19 134.838,1924.85 134.5,1922.5C 133.5,1922.5 132.5,1922.5 131.5,1922.5C 131.11,1919.16 130.61,1915.83 130,1912.5C 129.29,1911.03 128.124,1910.36 126.5,1910.5C 126.665,1907.48 126.498,1904.48 126,1901.5C 125.632,1900.09 124.799,1899.09 123.5,1898.5C 122.5,1539.83 122.167,1181.17 122.5,822.5 Z M 671.5,1060.5 C 691.844,1060.17 712.178,1060.5 732.5,1061.5C 733.025,1062.19 733.692,1062.69 734.5,1063C 740.156,1063.89 745.823,1064.72 751.5,1065.5C 752.09,1066.8 753.09,1067.63 754.5,1068C 759.75,1067.79 764.417,1069.12 768.5,1072C 771.146,1072.5 773.813,1072.66 776.5,1072.5C 776.33,1073.82 776.663,1074.99 777.5,1076C 782.6,1078.22 787.933,1080.05 793.5,1081.5C 793.5,1082.5 793.5,1083.5 793.5,1084.5C 795.854,1084.84 798.187,1085.34 800.5,1086C 802.754,1088.33 805.087,1090.67 807.5,1093C 810.825,1092.78 813.158,1094.11 814.5,1097C 815.793,1097.49 817.127,1097.66 818.5,1097.5C 818.5,1098.83 818.5,1100.17 818.5,1101.5C 819.833,1101.5 821.167,1101.5 822.5,1101.5C 822.384,1104.91 824.05,1106.24 827.5,1105.5C 828.751,1107.91 830.251,1110.25 832,1112.5C 836.203,1113.69 839.036,1116.36 840.5,1120.5C 841.325,1121.39 842.325,1121.72 843.5,1121.5C 843.351,1122.55 843.517,1123.55 844,1124.5C 846.056,1125.58 847.389,1127.25 848,1129.5C 849.011,1130.34 850.178,1130.67 851.5,1130.5C 851.5,1131.83 851.5,1133.17 851.5,1134.5C 854.388,1134.22 855.888,1135.55 856,1138.5C 859.121,1140.56 860.621,1143.56 860.5,1147.5C 861.5,1147.5 862.5,1147.5 863.5,1147.5C 865.03,1151.71 867.03,1155.71 869.5,1159.5C 870.167,1159.83 870.833,1160.17 871.5,1160.5C 872.314,1162.77 872.814,1165.1 873,1167.5C 874,1168.17 875,1168.83 876,1169.5C 875.707,1173.57 877.041,1176.9 880,1179.5C 879.652,1183.89 880.986,1187.55 884,1190.5C 884.333,1193.5 884.667,1196.5 885,1199.5C 885.667,1200.83 886.667,1201.83 888,1202.5C 888.336,1209.53 889.002,1216.53 890,1223.5C 890.308,1224.31 890.808,1224.97 891.5,1225.5C 892.833,1241.5 892.833,1257.5 891.5,1273.5C 890.808,1274.03 890.308,1274.69 890,1275.5C 889.002,1282.47 888.336,1289.47 888,1296.5C 886.667,1297.17 885.667,1298.17 885,1299.5C 884.667,1302.5 884.333,1305.5 884,1308.5C 880.986,1311.45 879.652,1315.11 880,1319.5C 877.041,1322.1 875.707,1325.43 876,1329.5C 875,1330.17 874,1330.83 873,1331.5C 872.814,1333.9 872.314,1336.23 871.5,1338.5C 867.864,1342.98 864.364,1347.65 861,1352.5C 860.027,1354.39 859.36,1356.39 859,1358.5C 856.453,1359.47 854.953,1361.31 854.5,1364C 853.552,1364.48 852.552,1364.65 851.5,1364.5C 851.5,1365.83 851.5,1367.17 851.5,1368.5C 850.178,1368.33 849.011,1368.66 848,1369.5C 847.389,1371.75 846.056,1373.42 844,1374.5C 843.517,1375.45 843.351,1376.45 843.5,1377.5C 842.325,1377.28 841.325,1377.61 840.5,1378.5C 839.598,1382.9 836.932,1385.4 832.5,1386C 830.5,1388.67 828.5,1391.33 826.5,1394C 825.207,1394.49 823.873,1394.66 822.5,1394.5C 822.5,1395.5 822.5,1396.5 822.5,1397.5C 821.167,1397.5 819.833,1397.5 818.5,1397.5C 818.5,1398.83 818.5,1400.17 818.5,1401.5C 815.45,1400.92 813.45,1402.09 812.5,1405C 810.833,1405.33 809.167,1405.67 807.5,1406C 805.087,1408.33 802.754,1410.67 800.5,1413C 798.187,1413.66 795.854,1414.16 793.5,1414.5C 793.5,1415.5 793.5,1416.5 793.5,1417.5C 787.933,1418.95 782.6,1420.78 777.5,1423C 776.663,1424.01 776.33,1425.18 776.5,1426.5C 773.813,1426.34 771.146,1426.5 768.5,1427C 764.417,1429.88 759.75,1431.21 754.5,1431C 753.09,1431.37 752.09,1432.2 751.5,1433.5C 745.823,1434.28 740.156,1435.11 734.5,1436C 733.692,1436.31 733.025,1436.81 732.5,1437.5C 712.175,1438.67 691.842,1438.83 671.5,1438C 670.284,1436.26 668.618,1435.26 666.5,1435C 662.167,1434.67 657.833,1434.33 653.5,1434C 652.167,1433.33 651.167,1432.33 650.5,1431C 646.789,1430.83 643.122,1430.33 639.5,1429.5C 639.167,1428.83 638.833,1428.17 638.5,1427.5C 634.504,1427.19 631.171,1425.69 628.5,1423C 625.5,1422.67 622.5,1422.33 619.5,1422C 618.663,1420.99 618.33,1419.82 618.5,1418.5C 615.45,1419.08 613.45,1417.91 612.5,1415C 610.187,1414.34 607.854,1413.84 605.5,1413.5C 605.5,1412.5 605.5,1411.5 605.5,1410.5C 603.146,1410.16 600.813,1409.66 598.5,1409C 594.979,1404.98 590.979,1401.48 586.5,1398.5C 582.898,1397.49 579.565,1396.16 576.5,1394.5C 576.785,1392.71 576.452,1391.05 575.5,1389.5C 573.474,1388.63 572.141,1387.13 571.5,1385C 570.552,1384.52 569.552,1384.35 568.5,1384.5C 568.833,1381.5 567.5,1380.17 564.5,1380.5C 564.649,1379.45 564.483,1378.45 564,1377.5C 561.298,1375.78 558.798,1373.78 556.5,1371.5C 554.792,1367.99 552.959,1364.66 551,1361.5C 549.989,1360.66 548.822,1360.33 547.5,1360.5C 548.244,1357.05 546.91,1355.38 543.5,1355.5C 543.66,1353.8 543.494,1352.13 543,1350.5C 540.774,1348.72 539.608,1346.38 539.5,1343.5C 538.178,1343.67 537.011,1343.34 536,1342.5C 535.627,1340.3 535.127,1338.14 534.5,1336C 531.749,1332.04 529.416,1327.87 527.5,1323.5C 526.682,1320.89 526.182,1318.23 526,1315.5C 524.989,1314.66 523.822,1314.33 522.5,1314.5C 522.665,1311.15 522.498,1307.82 522,1304.5C 521.333,1303.17 520.333,1302.17 519,1301.5C 518.667,1297.5 518.333,1293.5 518,1289.5C 517.167,1288.5 516.333,1287.5 515.5,1286.5C 514.167,1261.83 514.167,1237.17 515.5,1212.5C 516.333,1211.5 517.167,1210.5 518,1209.5C 517.749,1203.92 519.082,1198.92 522,1194.5C 522.498,1191.18 522.665,1187.85 522.5,1184.5C 523.822,1184.67 524.989,1184.34 526,1183.5C 526.182,1180.77 526.682,1178.11 527.5,1175.5C 529.416,1171.13 531.749,1166.96 534.5,1163C 535.127,1160.86 535.627,1158.7 536,1156.5C 537.011,1155.66 538.178,1155.33 539.5,1155.5C 539.373,1152.76 540.54,1150.76 543,1149.5C 543.495,1147.53 543.662,1145.53 543.5,1143.5C 546.541,1143.59 548.207,1142.09 548.5,1139C 549.448,1138.52 550.448,1138.35 551.5,1138.5C 551.215,1136.71 551.548,1135.05 552.5,1133.5C 554.316,1131.88 555.649,1129.88 556.5,1127.5C 559.342,1127 560.675,1125.33 560.5,1122.5C 563.5,1122.83 564.833,1121.5 564.5,1118.5C 567.5,1118.83 568.833,1117.5 568.5,1114.5C 569.552,1114.65 570.552,1114.48 571.5,1114C 573.5,1111.33 575.5,1108.67 577.5,1106C 578.448,1105.52 579.448,1105.35 580.5,1105.5C 580.33,1104.18 580.663,1103.01 581.5,1102C 585.749,1101.21 589.416,1099.38 592.5,1096.5C 594.588,1094.41 596.588,1092.25 598.5,1090C 600.556,1089.69 602.556,1089.19 604.5,1088.5C 605.386,1087.68 605.719,1086.68 605.5,1085.5C 607.854,1085.16 610.187,1084.66 612.5,1084C 615.456,1081.67 618.456,1079.34 621.5,1077C 624.224,1076.73 626.891,1076.23 629.5,1075.5C 630.386,1074.68 630.719,1073.68 630.5,1072.5C 636.608,1069.85 643.274,1068.35 650.5,1068C 652.116,1067.38 653.449,1066.38 654.5,1065C 658.5,1064.67 662.5,1064.33 666.5,1064C 668.881,1063.78 670.547,1062.61 671.5,1060.5 Z M 909.5,1060.5 C 1136.17,1060.5 1362.83,1060.5 1589.5,1060.5C 1589.83,1063.5 1588.5,1064.83 1585.5,1064.5C 1585.83,1067.5 1584.5,1068.83 1581.5,1068.5C 1581.16,1070.85 1580.66,1073.19 1580,1075.5C 1578.99,1076.34 1577.82,1076.67 1576.5,1076.5C 1576.5,1077.83 1576.5,1079.17 1576.5,1080.5C 1573.46,1080.41 1571.79,1081.91 1571.5,1085C 1570.55,1085.48 1569.55,1085.65 1568.5,1085.5C 1568.17,1089.02 1566.67,1092.02 1564,1094.5C 1563.52,1095.45 1563.35,1096.45 1563.5,1097.5C 1562.5,1097.5 1561.5,1097.5 1560.5,1097.5C 1560.62,1101.44 1559.12,1104.44 1556,1106.5C 1553.39,1110.05 1551.56,1114.05 1550.5,1118.5C 1549.52,1118.98 1548.69,1119.64 1548,1120.5C 1544.84,1129.07 1541.5,1137.73 1538,1146.5C 1536.67,1147.17 1535.67,1148.17 1535,1149.5C 1534.67,1152.5 1534.33,1155.5 1534,1158.5C 1533,1159.17 1532,1159.83 1531,1160.5C 1531.32,1165.44 1529.99,1169.77 1527,1173.5C 1526.5,1178.82 1526.33,1184.16 1526.5,1189.5C 1525.18,1189.33 1524.01,1189.66 1523,1190.5C 1522.83,1197.19 1522.33,1203.86 1521.5,1210.5C 1520.2,1211.09 1519.37,1212.09 1519,1213.5C 1517,1237.5 1517,1261.5 1519,1285.5C 1519.37,1286.91 1520.2,1287.91 1521.5,1288.5C 1522.33,1295.14 1522.83,1301.81 1523,1308.5C 1524.01,1309.34 1525.18,1309.67 1526.5,1309.5C 1526.33,1314.84 1526.5,1320.18 1527,1325.5C 1529.99,1329.23 1531.32,1333.56 1531,1338.5C 1532,1339.17 1533,1339.83 1534,1340.5C 1534.33,1343.5 1534.67,1346.5 1535,1349.5C 1535.67,1350.83 1536.67,1351.83 1538,1352.5C 1540.42,1358.75 1542.59,1365.09 1544.5,1371.5C 1546.88,1373.1 1548.05,1375.43 1548,1378.5C 1550.75,1384.34 1554.25,1389.68 1558.5,1394.5C 1559.63,1396.71 1560.3,1399.04 1560.5,1401.5C 1561.5,1401.5 1562.5,1401.5 1563.5,1401.5C 1565.03,1405.71 1567.03,1409.71 1569.5,1413.5C 1571.53,1414.37 1572.86,1415.87 1573.5,1418C 1574.45,1418.48 1575.45,1418.65 1576.5,1418.5C 1576.5,1419.83 1576.5,1421.17 1576.5,1422.5C 1577.82,1422.33 1578.99,1422.66 1580,1423.5C 1580.66,1425.81 1581.16,1428.15 1581.5,1430.5C 1584.5,1430.17 1585.83,1431.5 1585.5,1434.5C 1588.5,1434.17 1589.83,1435.5 1589.5,1438.5C 1362.83,1438.83 1136.17,1438.5 909.5,1437.5C 912.167,1434.83 914.833,1432.17 917.5,1429.5C 918.189,1427.56 918.689,1425.56 919,1423.5C 920.011,1422.66 921.178,1422.33 922.5,1422.5C 922.5,1421.17 922.5,1419.83 922.5,1418.5C 923.833,1418.5 925.167,1418.5 926.5,1418.5C 929.35,1412.86 932.35,1407.2 935.5,1401.5C 936.675,1401.72 937.675,1401.39 938.5,1400.5C 938.871,1397.14 940.371,1394.47 943,1392.5C 943.49,1391.21 943.657,1389.87 943.5,1388.5C 944.5,1388.5 945.5,1388.5 946.5,1388.5C 947.092,1385.87 947.425,1383.21 947.5,1380.5C 948.822,1380.67 949.989,1380.34 951,1379.5C 951.497,1377.19 951.663,1374.86 951.5,1372.5C 952.822,1372.67 953.989,1372.34 955,1371.5C 956.559,1364.97 958.559,1358.64 961,1352.5C 962,1351.83 963,1351.17 964,1350.5C 964.333,1347.17 964.667,1343.83 965,1340.5C 966,1339.83 967,1339.17 968,1338.5C 967.681,1333.56 969.014,1329.23 972,1325.5C 972.499,1320.18 972.666,1314.84 972.5,1309.5C 973.833,1309.5 975.167,1309.5 976.5,1309.5C 976.5,1302.5 976.5,1295.5 976.5,1288.5C 978.124,1288.64 979.29,1287.97 980,1286.5C 982,1261.83 982,1237.17 980,1212.5C 979.29,1211.03 978.124,1210.36 976.5,1210.5C 976.5,1203.5 976.5,1196.5 976.5,1189.5C 975.167,1189.5 973.833,1189.5 972.5,1189.5C 972.666,1184.16 972.499,1178.82 972,1173.5C 969.014,1169.77 967.681,1165.44 968,1160.5C 967,1159.83 966,1159.17 965,1158.5C 964.667,1155.17 964.333,1151.83 964,1148.5C 963,1147.83 962,1147.17 961,1146.5C 958.559,1140.36 956.559,1134.03 955,1127.5C 953.989,1126.66 952.822,1126.33 951.5,1126.5C 951.663,1124.14 951.497,1121.81 951,1119.5C 949.989,1118.66 948.822,1118.33 947.5,1118.5C 947.425,1115.79 947.092,1113.13 946.5,1110.5C 945.5,1110.5 944.5,1110.5 943.5,1110.5C 944.077,1107.45 942.91,1105.45 940,1104.5C 939.689,1102.44 939.189,1100.44 938.5,1098.5C 937.675,1097.61 936.675,1097.28 935.5,1097.5C 932.35,1091.8 929.35,1086.14 926.5,1080.5C 925.167,1080.5 923.833,1080.5 922.5,1080.5C 922.5,1079.17 922.5,1077.83 922.5,1076.5C 921.178,1076.67 920.011,1076.34 919,1075.5C 918.689,1073.44 918.189,1071.44 917.5,1069.5C 915.167,1067.5 912.833,1065.5 910.5,1063.5C 909.873,1062.58 909.539,1061.58 909.5,1060.5 Z M 1766.5,1060.5 C 1786.84,1060.33 1807.17,1060.5 1827.5,1061C 1828.72,1062.74 1830.38,1063.74 1832.5,1064C 1836.5,1064.33 1840.5,1064.67 1844.5,1065C 1845.55,1066.38 1846.88,1067.38 1848.5,1068C 1852.21,1068.17 1855.88,1068.67 1859.5,1069.5C 1859.83,1070.17 1860.17,1070.83 1860.5,1071.5C 1864.5,1071.81 1867.83,1073.31 1870.5,1076C 1873.5,1076.33 1876.5,1076.67 1879.5,1077C 1880.34,1078.01 1880.67,1079.18 1880.5,1080.5C 1883.55,1079.92 1885.55,1081.09 1886.5,1084C 1888.81,1084.66 1891.15,1085.16 1893.5,1085.5C 1893.5,1086.5 1893.5,1087.5 1893.5,1088.5C 1895.85,1088.84 1898.19,1089.34 1900.5,1090C 1904.02,1094.02 1908.02,1097.52 1912.5,1100.5C 1914.41,1101.35 1916.41,1101.68 1918.5,1101.5C 1918.5,1102.83 1918.5,1104.17 1918.5,1105.5C 1919.55,1105.35 1920.55,1105.52 1921.5,1106C 1923.5,1108.67 1925.5,1111.33 1927.5,1114C 1928.45,1114.48 1929.45,1114.65 1930.5,1114.5C 1930.17,1117.5 1931.5,1118.83 1934.5,1118.5C 1934.33,1119.82 1934.66,1120.99 1935.5,1122C 1937.52,1122.4 1938.85,1123.57 1939.5,1125.5C 1940.69,1126.43 1942.02,1126.76 1943.5,1126.5C 1945.59,1129.81 1947.09,1133.48 1948,1137.5C 1949.01,1138.34 1950.18,1138.67 1951.5,1138.5C 1950.76,1141.95 1952.09,1143.62 1955.5,1143.5C 1955.77,1149.19 1958.27,1153.52 1963,1156.5C 1962.96,1160.75 1964.63,1164.08 1968,1166.5C 1968.5,1168.47 1968.66,1170.47 1968.5,1172.5C 1970.12,1172.36 1971.29,1173.03 1972,1174.5C 1972.33,1177.5 1972.67,1180.5 1973,1183.5C 1974.01,1184.34 1975.18,1184.67 1976.5,1184.5C 1976.34,1187.52 1976.5,1190.52 1977,1193.5C 1977.42,1195.29 1978.42,1196.62 1980,1197.5C 1980.33,1201.17 1980.67,1204.83 1981,1208.5C 1981.62,1210.12 1982.62,1211.45 1984,1212.5C 1986,1237.17 1986,1261.83 1984,1286.5C 1982.62,1287.55 1981.62,1288.88 1981,1290.5C 1980.5,1294.49 1980.33,1298.49 1980.5,1302.5C 1979.5,1302.5 1978.5,1302.5 1977.5,1302.5C 1976.73,1306.45 1976.39,1310.45 1976.5,1314.5C 1975.32,1314.28 1974.32,1314.61 1973.5,1315.5C 1972.76,1318.44 1972.26,1321.44 1972,1324.5C 1971.29,1325.97 1970.12,1326.64 1968.5,1326.5C 1968.66,1328.86 1968.5,1331.19 1968,1333.5C 1964.5,1335.81 1963,1339.14 1963.5,1343.5C 1962.45,1343.35 1961.45,1343.52 1960.5,1344C 1957.2,1347.05 1955.53,1350.88 1955.5,1355.5C 1952.09,1355.38 1950.76,1357.05 1951.5,1360.5C 1950.18,1360.33 1949.01,1360.66 1948,1361.5C 1947.09,1365.52 1945.59,1369.19 1943.5,1372.5C 1942.02,1372.24 1940.69,1372.57 1939.5,1373.5C 1938.85,1375.43 1937.52,1376.6 1935.5,1377C 1934.66,1378.01 1934.33,1379.18 1934.5,1380.5C 1931.5,1380.17 1930.17,1381.5 1930.5,1384.5C 1929.45,1384.35 1928.45,1384.52 1927.5,1385C 1926.86,1387.13 1925.53,1388.63 1923.5,1389.5C 1922.55,1391.05 1922.21,1392.71 1922.5,1394.5C 1921.17,1394.5 1919.83,1394.5 1918.5,1394.5C 1918.5,1395.5 1918.5,1396.5 1918.5,1397.5C 1916.6,1397.43 1914.77,1397.77 1913,1398.5C 1908.21,1401.29 1904.04,1404.79 1900.5,1409C 1898.19,1409.66 1895.85,1410.16 1893.5,1410.5C 1893.5,1411.5 1893.5,1412.5 1893.5,1413.5C 1889.56,1413.38 1886.56,1414.88 1884.5,1418C 1883.21,1418.49 1881.87,1418.66 1880.5,1418.5C 1880.67,1419.82 1880.34,1420.99 1879.5,1422C 1876.5,1422.33 1873.5,1422.67 1870.5,1423C 1867.92,1425.99 1864.59,1427.15 1860.5,1426.5C 1860.67,1427.82 1860.34,1428.99 1859.5,1430C 1855.83,1430.33 1852.17,1430.67 1848.5,1431C 1847.83,1432 1847.17,1433 1846.5,1434C 1841.83,1434.33 1837.17,1434.67 1832.5,1435C 1830.38,1435.26 1828.72,1436.26 1827.5,1438C 1807.16,1438.83 1786.83,1438.67 1766.5,1437.5C 1765.97,1436.81 1765.31,1436.31 1764.5,1436C 1758.84,1435.11 1753.18,1434.28 1747.5,1433.5C 1746.91,1432.2 1745.91,1431.37 1744.5,1431C 1739.24,1431.36 1734.57,1430.03 1730.5,1427C 1727.85,1426.5 1725.19,1426.34 1722.5,1426.5C 1722.67,1425.18 1722.34,1424.01 1721.5,1423C 1716.4,1420.78 1711.07,1418.95 1705.5,1417.5C 1705.5,1416.5 1705.5,1415.5 1705.5,1414.5C 1703.15,1414.16 1700.81,1413.66 1698.5,1413C 1696.25,1410.67 1693.91,1408.33 1691.5,1406C 1688.18,1406.22 1685.84,1404.89 1684.5,1402C 1683.21,1401.51 1681.87,1401.34 1680.5,1401.5C 1680.5,1400.17 1680.5,1398.83 1680.5,1397.5C 1679.17,1397.5 1677.83,1397.5 1676.5,1397.5C 1676.5,1396.5 1676.5,1395.5 1676.5,1394.5C 1675.02,1394.76 1673.69,1394.43 1672.5,1393.5C 1670.75,1390.79 1668.75,1388.29 1666.5,1386C 1663.85,1385.21 1661.68,1383.71 1660,1381.5C 1657.18,1377.42 1654.18,1373.42 1651,1369.5C 1649.99,1368.66 1648.82,1368.33 1647.5,1368.5C 1647.76,1367.02 1647.43,1365.69 1646.5,1364.5C 1644.41,1362.41 1642.25,1360.41 1640,1358.5C 1639.69,1356.44 1639.19,1354.44 1638.5,1352.5C 1637.68,1351.61 1636.68,1351.28 1635.5,1351.5C 1634.35,1347.18 1632.52,1343.18 1630,1339.5C 1627.02,1337.8 1625.68,1335.14 1626,1331.5C 1625,1330.83 1624,1330.17 1623,1329.5C 1621.2,1323.15 1619.54,1316.81 1618,1310.5C 1617,1309.83 1616,1309.17 1615,1308.5C 1614.67,1305.17 1614.33,1301.83 1614,1298.5C 1613,1297.83 1612,1297.17 1611,1296.5C 1610.75,1289.12 1610.08,1281.79 1609,1274.5C 1608.33,1273.83 1607.67,1273.17 1607,1272.5C 1606.33,1257.17 1606.33,1241.83 1607,1226.5C 1608.86,1225.35 1609.69,1223.69 1609.5,1221.5C 1610.21,1215.19 1610.71,1208.85 1611,1202.5C 1612,1201.83 1613,1201.17 1614,1200.5C 1614.33,1197.17 1614.67,1193.83 1615,1190.5C 1616,1189.83 1617,1189.17 1618,1188.5C 1619.54,1182.19 1621.2,1175.85 1623,1169.5C 1625.98,1167.8 1627.32,1165.14 1627,1161.5C 1628,1160.83 1629,1160.17 1630,1159.5C 1632.52,1155.82 1634.35,1151.82 1635.5,1147.5C 1636.68,1147.72 1637.68,1147.39 1638.5,1146.5C 1639.19,1144.56 1639.69,1142.56 1640,1140.5C 1642.25,1138.59 1644.41,1136.59 1646.5,1134.5C 1647.43,1133.31 1647.76,1131.98 1647.5,1130.5C 1648.55,1130.65 1649.55,1130.48 1650.5,1130C 1653.26,1126.77 1656.1,1123.61 1659,1120.5C 1659.33,1119.5 1659.67,1118.5 1660,1117.5C 1665.14,1114.69 1669.31,1110.86 1672.5,1106C 1675.45,1105.89 1676.78,1104.39 1676.5,1101.5C 1677.83,1101.5 1679.17,1101.5 1680.5,1101.5C 1680.5,1100.17 1680.5,1098.83 1680.5,1097.5C 1683.55,1098.08 1685.55,1096.91 1686.5,1094C 1688.17,1093.67 1689.83,1093.33 1691.5,1093C 1693.91,1090.67 1696.25,1088.33 1698.5,1086C 1700.81,1085.34 1703.15,1084.84 1705.5,1084.5C 1705.5,1083.5 1705.5,1082.5 1705.5,1081.5C 1709.28,1081.63 1712.28,1080.3 1714.5,1077.5C 1717.09,1076.52 1719.75,1076.19 1722.5,1076.5C 1722.5,1075.17 1722.5,1073.83 1722.5,1072.5C 1727.14,1073.26 1731.14,1072.1 1734.5,1069C 1737.83,1068.67 1741.17,1068.33 1744.5,1068C 1745.91,1067.63 1746.91,1066.8 1747.5,1065.5C 1753.18,1064.72 1758.84,1063.89 1764.5,1063C 1765.76,1062.58 1766.42,1061.75 1766.5,1060.5 Z M 964.5,1760.5 C 1153.17,1760.5 1341.83,1760.5 1530.5,1760.5C 1530.34,1762.86 1530.5,1765.19 1531,1767.5C 1532.01,1768.34 1533.18,1768.67 1534.5,1768.5C 1534.34,1770.53 1534.5,1772.53 1535,1774.5C 1535.71,1775.97 1536.88,1776.64 1538.5,1776.5C 1538.83,1779.17 1539.17,1781.83 1539.5,1784.5C 1540.68,1784.28 1541.68,1784.61 1542.5,1785.5C 1543.21,1787.78 1543.71,1790.11 1544,1792.5C 1545.01,1793.34 1546.18,1793.67 1547.5,1793.5C 1547.34,1795.86 1547.5,1798.19 1548,1800.5C 1549.01,1801.34 1550.18,1801.67 1551.5,1801.5C 1551.34,1803.86 1551.5,1806.19 1552,1808.5C 1553.01,1809.34 1554.18,1809.67 1555.5,1809.5C 1554.79,1813.32 1555.96,1816.32 1559,1818.5C 1560.7,1823.66 1562.7,1828.66 1565,1833.5C 1566.01,1834.34 1567.18,1834.67 1568.5,1834.5C 1567.83,1837.91 1568.83,1840.57 1571.5,1842.5C 1572.43,1847.32 1574.09,1851.65 1576.5,1855.5C 1577.83,1855.5 1579.17,1855.5 1580.5,1855.5C 1580.34,1858.19 1580.5,1860.85 1581,1863.5C 1583.33,1865.65 1584.66,1868.32 1585,1871.5C 1586.01,1872.34 1587.18,1872.67 1588.5,1872.5C 1588.34,1874.53 1588.5,1876.53 1589,1878.5C 1589.71,1879.97 1590.88,1880.64 1592.5,1880.5C 1592.35,1884.75 1593.85,1888.08 1597,1890.5C 1597.33,1892.5 1597.67,1894.5 1598,1896.5C 1599.01,1897.34 1600.18,1897.67 1601.5,1897.5C 1601.34,1899.86 1601.5,1902.19 1602,1904.5C 1603.01,1905.34 1604.18,1905.67 1605.5,1905.5C 1605.34,1907.86 1605.5,1910.19 1606,1912.5C 1609.12,1915.03 1610.62,1918.37 1610.5,1922.5C 1611.5,1922.5 1612.5,1922.5 1613.5,1922.5C 1614.09,1925.13 1614.42,1927.79 1614.5,1930.5C 1615.82,1930.33 1616.99,1930.66 1618,1931.5C 1618.5,1933.81 1618.66,1936.14 1618.5,1938.5C 1619.82,1938.33 1620.99,1938.66 1622,1939.5C 1622.33,1941.5 1622.67,1943.5 1623,1945.5C 1625.72,1947.81 1627.22,1950.81 1627.5,1954.5C 1628.32,1955.39 1629.32,1955.72 1630.5,1955.5C 1630.52,1957.93 1631.02,1960.26 1632,1962.5C 1634.6,1967.94 1637.44,1973.27 1640.5,1978.5C 1642.98,1979.72 1643.98,1981.72 1643.5,1984.5C 1380.83,1984.5 1118.17,1984.5 855.5,1984.5C 855.575,1981.79 855.908,1979.13 856.5,1976.5C 857.5,1976.5 858.5,1976.5 859.5,1976.5C 859.208,1972.3 860.708,1968.96 864,1966.5C 864.497,1964.19 864.663,1961.86 864.5,1959.5C 865.822,1959.67 866.989,1959.34 868,1958.5C 868.497,1956.19 868.663,1953.86 868.5,1951.5C 869.822,1951.67 870.989,1951.34 872,1950.5C 872.497,1948.19 872.663,1945.86 872.5,1943.5C 873.822,1943.67 874.989,1943.34 876,1942.5C 876.497,1939.85 876.664,1937.19 876.5,1934.5C 877.833,1934.5 879.167,1934.5 880.5,1934.5C 880.575,1931.79 880.908,1929.13 881.5,1926.5C 882.5,1926.5 883.5,1926.5 884.5,1926.5C 884.208,1922.3 885.708,1918.96 889,1916.5C 889.497,1914.19 889.663,1911.86 889.5,1909.5C 890.822,1909.67 891.989,1909.34 893,1908.5C 893.497,1906.19 893.663,1903.86 893.5,1901.5C 894.822,1901.67 895.989,1901.34 897,1900.5C 897.497,1898.19 897.663,1895.86 897.5,1893.5C 898.822,1893.67 899.989,1893.34 901,1892.5C 901.497,1889.85 901.664,1887.19 901.5,1884.5C 902.833,1884.5 904.167,1884.5 905.5,1884.5C 905.575,1881.79 905.908,1879.13 906.5,1876.5C 907.5,1876.5 908.5,1876.5 909.5,1876.5C 909.208,1872.3 910.708,1868.96 914,1866.5C 914.497,1864.19 914.663,1861.86 914.5,1859.5C 915.822,1859.67 916.989,1859.34 918,1858.5C 918.497,1856.19 918.663,1853.86 918.5,1851.5C 919.822,1851.67 920.989,1851.34 922,1850.5C 922.497,1848.19 922.663,1845.86 922.5,1843.5C 923.822,1843.67 924.989,1843.34 926,1842.5C 926.497,1839.85 926.664,1837.19 926.5,1834.5C 927.833,1834.5 929.167,1834.5 930.5,1834.5C 930.575,1831.79 930.908,1829.13 931.5,1826.5C 932.5,1826.5 933.5,1826.5 934.5,1826.5C 934.208,1822.3 935.708,1818.96 939,1816.5C 939.497,1814.19 939.663,1811.86 939.5,1809.5C 940.822,1809.67 941.989,1809.34 943,1808.5C 943.497,1806.19 943.663,1803.86 943.5,1801.5C 944.822,1801.67 945.989,1801.34 947,1800.5C 947.497,1798.19 947.663,1795.86 947.5,1793.5C 948.822,1793.67 949.989,1793.34 951,1792.5C 951.497,1789.85 951.664,1787.19 951.5,1784.5C 952.833,1784.5 954.167,1784.5 955.5,1784.5C 955.575,1781.79 955.908,1779.13 956.5,1776.5C 957.5,1776.5 958.5,1776.5 959.5,1776.5C 959.208,1772.3 960.708,1768.96 964,1766.5C 964.495,1764.53 964.662,1762.53 964.5,1760.5 Z"/></g>
<g><path style="opacity:0.888" fill="#fefffe" d="M 222.5,422.5 C 907.167,422.333 1591.83,422.5 2276.5,423C 2277.91,423.368 2278.91,424.201 2279.5,425.5C 2288.15,426.332 2296.81,426.832 2305.5,427C 2307.12,427.615 2308.45,428.615 2309.5,430C 2313.83,430.333 2318.17,430.667 2322.5,431C 2324.29,431.196 2325.62,432.029 2326.5,433.5C 2329.11,434.318 2331.77,434.818 2334.5,435C 2338.14,438.179 2342.47,439.679 2347.5,439.5C 2347.5,440.5 2347.5,441.5 2347.5,442.5C 2350.13,443.092 2352.79,443.425 2355.5,443.5C 2355.5,444.833 2355.5,446.167 2355.5,447.5C 2358.19,447.336 2360.85,447.503 2363.5,448C 2364.34,449.011 2364.67,450.178 2364.5,451.5C 2367.91,450.828 2370.57,451.828 2372.5,454.5C 2373.69,455.429 2375.02,455.762 2376.5,455.5C 2376.5,456.833 2376.5,458.167 2376.5,459.5C 2379.21,459.575 2381.87,459.908 2384.5,460.5C 2384.28,461.675 2384.61,462.675 2385.5,463.5C 2388.99,466.673 2392.65,469.673 2396.5,472.5C 2397.43,473.689 2397.76,475.022 2397.5,476.5C 2399.99,476.298 2402.32,476.798 2404.5,478C 2410.6,484.056 2416.26,490.556 2421.5,497.5C 2422.43,498.689 2422.76,500.022 2422.5,501.5C 2423.83,501.5 2425.17,501.5 2426.5,501.5C 2425.92,504.55 2427.09,506.55 2430,507.5C 2430.17,511.175 2431.83,513.842 2435,515.5C 2437.33,518.822 2439.16,522.489 2440.5,526.5C 2441.48,526.977 2442.31,527.643 2443,528.5C 2442.68,532.137 2444.02,534.804 2447,536.5C 2447.5,538.81 2447.66,541.143 2447.5,543.5C 2448.82,543.33 2449.99,543.663 2451,544.5C 2451.37,548.863 2451.87,553.196 2452.5,557.5C 2453.5,557.5 2454.5,557.5 2455.5,557.5C 2456.04,560.813 2456.54,564.146 2457,567.5C 2458.75,568.67 2459.75,570.337 2460,572.5C 2460.17,576.871 2460.67,581.204 2461.5,585.5C 2462.97,586.381 2463.8,587.714 2464,589.5C 2464.67,1029.5 2464.67,1469.5 2464,1909.5C 2463.8,1911.29 2462.97,1912.62 2461.5,1913.5C 2460.67,1917.8 2460.17,1922.13 2460,1926.5C 2459.75,1928.66 2458.75,1930.33 2457,1931.5C 2456.61,1935.22 2455.94,1938.89 2455,1942.5C 2454,1943.17 2453,1943.83 2452,1944.5C 2451.67,1947.83 2451.33,1951.17 2451,1954.5C 2449.99,1955.34 2448.82,1955.67 2447.5,1955.5C 2447.5,1958.17 2447.5,1960.83 2447.5,1963.5C 2446.18,1963.33 2445.01,1963.66 2444,1964.5C 2443.67,1966.5 2443.33,1968.5 2443,1970.5C 2442.31,1971.36 2441.48,1972.02 2440.5,1972.5C 2439.16,1976.51 2437.33,1980.18 2435,1983.5C 2431.83,1985.16 2430.17,1987.83 2430,1991.5C 2427.45,1992.47 2425.95,1994.31 2425.5,1997C 2424.55,1997.48 2423.55,1997.65 2422.5,1997.5C 2421.06,2001.46 2418.56,2004.8 2415,2007.5C 2414.48,2010.96 2412.65,2013.29 2409.5,2014.5C 2407.32,2016.26 2405.65,2018.43 2404.5,2021C 2402.32,2022.2 2399.99,2022.7 2397.5,2022.5C 2397.76,2023.98 2397.43,2025.31 2396.5,2026.5C 2392.65,2029.33 2388.99,2032.33 2385.5,2035.5C 2384.61,2036.32 2384.28,2037.32 2384.5,2038.5C 2381.87,2039.09 2379.21,2039.42 2376.5,2039.5C 2376.5,2040.83 2376.5,2042.17 2376.5,2043.5C 2373.76,2043.37 2371.76,2044.54 2370.5,2047C 2368.53,2047.5 2366.53,2047.66 2364.5,2047.5C 2364.67,2048.82 2364.34,2049.99 2363.5,2051C 2360.85,2051.5 2358.19,2051.66 2355.5,2051.5C 2355.5,2052.83 2355.5,2054.17 2355.5,2055.5C 2352.79,2055.58 2350.13,2055.91 2347.5,2056.5C 2347.5,2057.5 2347.5,2058.5 2347.5,2059.5C 2342.47,2059.32 2338.14,2060.82 2334.5,2064C 2331.77,2064.18 2329.11,2064.68 2326.5,2065.5C 2325.62,2066.97 2324.29,2067.8 2322.5,2068C 2318.17,2068.33 2313.83,2068.67 2309.5,2069C 2308.45,2070.38 2307.12,2071.38 2305.5,2072C 2296.81,2072.17 2288.15,2072.67 2279.5,2073.5C 2278.91,2074.8 2277.91,2075.63 2276.5,2076C 1591.83,2076.67 907.167,2076.67 222.5,2076C 221.09,2075.63 220.09,2074.8 219.5,2073.5C 210.852,2072.67 202.186,2072.17 193.5,2072C 192.5,2071 191.5,2070 190.5,2069C 185.833,2068.67 181.167,2068.33 176.5,2068C 174.709,2067.58 173.376,2066.58 172.5,2065C 168.442,2065.17 165.109,2063.83 162.5,2061C 155.663,2060.2 149.329,2058.36 143.5,2055.5C 143.5,2054.17 143.5,2052.83 143.5,2051.5C 140.753,2051.81 138.086,2051.48 135.5,2050.5C 133.902,2048.12 131.568,2046.95 128.5,2047C 127.55,2044.09 125.55,2042.92 122.5,2043.5C 122.5,2042.17 122.5,2040.83 122.5,2039.5C 119.833,2039.17 117.167,2038.83 114.5,2038.5C 114.719,2037.32 114.386,2036.32 113.5,2035.5C 111.035,2034.87 109.369,2033.37 108.5,2031C 107.552,2030.52 106.552,2030.35 105.5,2030.5C 105.833,2027.5 104.5,2026.17 101.5,2026.5C 101.5,2025.17 101.5,2023.83 101.5,2022.5C 98.9412,2022.61 96.6079,2021.94 94.5,2020.5C 89.922,2015.71 85.5887,2010.71 81.5,2005.5C 80.5713,2004.31 80.238,2002.98 80.5,2001.5C 79.1667,2001.5 77.8333,2001.5 76.5,2001.5C 76.5,2000.17 76.5,1998.83 76.5,1997.5C 75.1779,1997.67 74.0113,1997.34 73,1996.5C 70.9266,1993.41 69.2599,1990.08 68,1986.5C 66.9264,1985.38 65.7598,1984.38 64.5,1983.5C 62.2536,1978.76 59.4203,1974.43 56,1970.5C 56.3156,1966.86 54.9823,1964.2 52,1962.5C 52.0884,1958.77 50.755,1955.77 48,1953.5C 47.5017,1950.18 47.335,1946.85 47.5,1943.5C 46.1779,1943.67 45.0113,1943.34 44,1942.5C 43.5,1939.5 43,1936.5 42.5,1933.5C 40.7139,1931.18 39.5472,1928.51 39,1925.5C 38.8265,1921.46 38.3265,1917.46 37.5,1913.5C 35.9309,1912.29 35.0976,1910.62 35,1908.5C 34.3333,1469.17 34.3333,1029.83 35,590.5C 35.0976,588.381 35.9309,586.714 37.5,585.5C 38.3265,581.541 38.8265,577.541 39,573.5C 39.5472,570.487 40.7139,567.82 42.5,565.5C 43.0951,562.86 43.4285,560.193 43.5,557.5C 44.8333,557.5 46.1667,557.5 47.5,557.5C 47.3345,553.486 47.5012,549.486 48,545.5C 50.755,543.234 52.0884,540.234 52,536.5C 54.9823,534.804 56.3156,532.137 56,528.5C 60.0285,523.145 64.0285,517.812 68,512.5C 69.2599,508.923 70.9266,505.589 73,502.5C 74.0113,501.663 75.1779,501.33 76.5,501.5C 76.5,500.167 76.5,498.833 76.5,497.5C 77.8333,497.5 79.1667,497.5 80.5,497.5C 80.238,496.022 80.5713,494.689 81.5,493.5C 85.5887,488.289 89.922,483.289 94.5,478.5C 96.6079,477.056 98.9412,476.39 101.5,476.5C 101.5,475.167 101.5,473.833 101.5,472.5C 104.5,472.833 105.833,471.5 105.5,468.5C 106.552,468.649 107.552,468.483 108.5,468C 109.369,465.632 111.035,464.132 113.5,463.5C 114.386,462.675 114.719,461.675 114.5,460.5C 117.167,460.167 119.833,459.833 122.5,459.5C 122.22,456.612 123.553,455.112 126.5,455C 127.167,454 127.833,453 128.5,452C 131.568,452.048 133.902,450.881 135.5,448.5C 138.086,447.52 140.753,447.187 143.5,447.5C 143.5,446.167 143.5,444.833 143.5,443.5C 149.329,440.637 155.663,438.804 162.5,438C 165.109,435.166 168.442,433.833 172.5,434C 173.376,432.415 174.709,431.415 176.5,431C 181.167,430.667 185.833,430.333 190.5,430C 191.5,429 192.5,428 193.5,427C 202.186,426.832 210.852,426.332 219.5,425.5C 220.34,424.265 221.34,423.265 222.5,422.5 Z M 205.5,514.5 C 205.64,516.124 204.973,517.29 203.5,518C 200.5,518.333 197.5,518.667 194.5,519C 193.833,520 193.167,521 192.5,522C 189.854,522.497 187.187,522.664 184.5,522.5C 184.5,523.833 184.5,525.167 184.5,526.5C 181.833,526.5 179.167,526.5 176.5,526.5C 176.5,527.833 176.5,529.167 176.5,530.5C 175.127,530.343 173.793,530.51 172.5,531C 170.806,534.078 168.139,535.578 164.5,535.5C 164.67,536.822 164.337,537.989 163.5,539C 161.479,539.401 160.145,540.568 159.5,542.5C 158.311,543.429 156.978,543.762 155.5,543.5C 155.5,544.833 155.5,546.167 155.5,547.5C 154.167,547.5 152.833,547.5 151.5,547.5C 151.5,548.833 151.5,550.167 151.5,551.5C 150.167,551.5 148.833,551.5 147.5,551.5C 145.914,555.123 144.247,558.789 142.5,562.5C 141.675,563.386 140.675,563.719 139.5,563.5C 139.657,564.873 139.49,566.207 139,567.5C 135.879,569.557 134.379,572.557 134.5,576.5C 133.5,576.5 132.5,576.5 131.5,576.5C 131.11,579.839 130.61,583.173 130,586.5C 129.29,587.973 128.124,588.64 126.5,588.5C 126.665,591.518 126.498,594.518 126,597.5C 125.632,598.91 124.799,599.91 123.5,600.5C 122.5,646.495 122.167,692.495 122.5,738.5C 873.833,738.5 1625.17,738.5 2376.5,738.5C 2376.67,692.499 2376.5,646.499 2376,600.5C 2375,599.5 2374,598.5 2373,597.5C 2373.1,592.903 2371.77,588.903 2369,585.5C 2368.5,582.518 2368.34,579.518 2368.5,576.5C 2367.17,576.5 2365.83,576.5 2364.5,576.5C 2364.48,574.073 2363.98,571.74 2363,569.5C 2360.09,568.55 2358.92,566.55 2359.5,563.5C 2358.5,563.5 2357.5,563.5 2356.5,563.5C 2356.16,561.146 2355.66,558.813 2355,556.5C 2353.99,555.663 2352.82,555.33 2351.5,555.5C 2351.5,554.167 2351.5,552.833 2351.5,551.5C 2350.17,551.5 2348.83,551.5 2347.5,551.5C 2347.5,550.167 2347.5,548.833 2347.5,547.5C 2346.17,547.5 2344.83,547.5 2343.5,547.5C 2343.5,546.167 2343.5,544.833 2343.5,543.5C 2342.17,543.5 2340.83,543.5 2339.5,543.5C 2339.65,542.448 2339.48,541.448 2339,540.5C 2335.91,540.207 2334.41,538.541 2334.5,535.5C 2332.44,535.313 2330.44,534.813 2328.5,534C 2327.55,531.09 2325.55,529.923 2322.5,530.5C 2322.5,529.167 2322.5,527.833 2322.5,526.5C 2320.14,526.663 2317.81,526.497 2315.5,526C 2314.66,524.989 2314.33,523.822 2314.5,522.5C 2311.81,522.664 2309.15,522.497 2306.5,522C 2305.83,521 2305.17,520 2304.5,519C 2301.5,518.667 2298.5,518.333 2295.5,518C 2294.03,517.29 2293.36,516.124 2293.5,514.5C 1597.5,514.5 901.5,514.5 205.5,514.5 Z M 122.5,822.5 C 122.167,1181.17 122.5,1539.83 123.5,1898.5C 124.799,1899.09 125.632,1900.09 126,1901.5C 126.498,1904.48 126.665,1907.48 126.5,1910.5C 128.124,1910.36 129.29,1911.03 130,1912.5C 130.61,1915.83 131.11,1919.16 131.5,1922.5C 132.5,1922.5 133.5,1922.5 134.5,1922.5C 134.838,1924.85 135.338,1927.19 136,1929.5C 138.91,1930.45 140.077,1932.45 139.5,1935.5C 140.675,1935.28 141.675,1935.61 142.5,1936.5C 143.838,1940.45 145.504,1944.11 147.5,1947.5C 148.833,1947.5 150.167,1947.5 151.5,1947.5C 151.5,1949.17 151.5,1950.83 151.5,1952.5C 152.833,1952.5 154.167,1952.5 155.5,1952.5C 155.5,1953.5 155.5,1954.5 155.5,1955.5C 156.978,1955.24 158.311,1955.57 159.5,1956.5C 160.145,1958.43 161.479,1959.6 163.5,1960C 164.337,1961.01 164.67,1962.18 164.5,1963.5C 166.564,1963.69 168.564,1964.19 170.5,1965C 171.45,1967.91 173.45,1969.08 176.5,1968.5C 176.5,1969.83 176.5,1971.17 176.5,1972.5C 179.167,1972.5 181.833,1972.5 184.5,1972.5C 184.5,1973.83 184.5,1975.17 184.5,1976.5C 187.187,1976.34 189.854,1976.5 192.5,1977C 193.167,1978 193.833,1979 194.5,1980C 197.5,1980.33 200.5,1980.67 203.5,1981C 204.973,1981.71 205.64,1982.88 205.5,1984.5C 388.833,1984.5 572.167,1984.5 755.5,1984.5C 755.337,1982.14 755.503,1979.81 756,1977.5C 757.011,1976.66 758.178,1976.33 759.5,1976.5C 759.292,1974.08 759.626,1971.75 760.5,1969.5C 761.325,1968.61 762.325,1968.28 763.5,1968.5C 763.511,1966.45 763.844,1964.45 764.5,1962.5C 767.476,1959.87 768.81,1956.54 768.5,1952.5C 769.833,1952.5 771.167,1952.5 772.5,1952.5C 772.5,1949.5 772.5,1946.5 772.5,1943.5C 773.833,1943.5 775.167,1943.5 776.5,1943.5C 776.187,1940.75 776.52,1938.09 777.5,1935.5C 778.167,1935.17 778.833,1934.83 779.5,1934.5C 780.314,1932.23 780.814,1929.9 781,1927.5C 782.011,1926.66 783.178,1926.33 784.5,1926.5C 784.292,1924.08 784.626,1921.75 785.5,1919.5C 786.325,1918.61 787.325,1918.28 788.5,1918.5C 788.511,1916.45 788.844,1914.45 789.5,1912.5C 792.332,1909.83 793.832,1906.5 794,1902.5C 795.011,1901.66 796.178,1901.33 797.5,1901.5C 797.5,1898.83 797.5,1896.17 797.5,1893.5C 798.833,1893.5 800.167,1893.5 801.5,1893.5C 801.187,1890.75 801.52,1888.09 802.5,1885.5C 803.167,1885.17 803.833,1884.83 804.5,1884.5C 805.314,1882.23 805.814,1879.9 806,1877.5C 807.011,1876.66 808.178,1876.33 809.5,1876.5C 809.292,1874.08 809.626,1871.75 810.5,1869.5C 811.325,1868.61 812.325,1868.28 813.5,1868.5C 813.678,1865.78 814.178,1863.12 815,1860.5C 817.789,1858.63 819.122,1855.97 819,1852.5C 820.011,1851.66 821.178,1851.33 822.5,1851.5C 822.5,1848.83 822.5,1846.17 822.5,1843.5C 823.833,1843.5 825.167,1843.5 826.5,1843.5C 826.187,1840.75 826.52,1838.09 827.5,1835.5C 828.167,1835.17 828.833,1834.83 829.5,1834.5C 830.314,1832.23 830.814,1829.9 831,1827.5C 832.011,1826.66 833.178,1826.33 834.5,1826.5C 834.292,1824.08 834.626,1821.75 835.5,1819.5C 836.325,1818.61 837.325,1818.28 838.5,1818.5C 838.511,1816.45 838.844,1814.45 839.5,1812.5C 842.332,1809.83 843.832,1806.5 844,1802.5C 845.011,1801.66 846.178,1801.33 847.5,1801.5C 847.5,1798.83 847.5,1796.17 847.5,1793.5C 848.833,1793.5 850.167,1793.5 851.5,1793.5C 851.187,1790.75 851.52,1788.09 852.5,1785.5C 853.167,1785.17 853.833,1784.83 854.5,1784.5C 855.273,1782.19 855.94,1779.85 856.5,1777.5C 857.325,1776.61 858.325,1776.28 859.5,1776.5C 859.292,1774.08 859.626,1771.75 860.5,1769.5C 861.325,1768.61 862.325,1768.28 863.5,1768.5C 863.511,1766.45 863.844,1764.45 864.5,1762.5C 867.332,1759.83 868.832,1756.5 869,1752.5C 870.011,1751.66 871.178,1751.33 872.5,1751.5C 872.5,1748.83 872.5,1746.17 872.5,1743.5C 873.833,1743.5 875.167,1743.5 876.5,1743.5C 876.187,1740.75 876.52,1738.09 877.5,1735.5C 878.167,1735.17 878.833,1734.83 879.5,1734.5C 880.314,1732.23 880.814,1729.9 881,1727.5C 882.011,1726.66 883.178,1726.33 884.5,1726.5C 884.292,1724.08 884.626,1721.75 885.5,1719.5C 886.325,1718.61 887.325,1718.28 888.5,1718.5C 888.678,1715.78 889.178,1713.12 890,1710.5C 892.789,1708.63 894.122,1705.97 894,1702.5C 895.011,1701.66 896.178,1701.33 897.5,1701.5C 897.337,1699.14 897.503,1696.81 898,1694.5C 899.011,1693.66 900.178,1693.33 901.5,1693.5C 901.238,1692.02 901.571,1690.69 902.5,1689.5C 904.432,1688.85 905.599,1687.52 906,1685.5C 907.011,1684.66 908.178,1684.33 909.5,1684.5C 909.33,1683.18 909.663,1682.01 910.5,1681C 913.639,1680.51 916.306,1679.17 918.5,1677C 1137.83,1676.33 1357.17,1676.33 1576.5,1677C 1580.77,1679.38 1584.77,1682.05 1588.5,1685C 1588.79,1688.09 1590.46,1689.59 1593.5,1689.5C 1595.64,1693.14 1597.31,1697.14 1598.5,1701.5C 1599.17,1701.83 1599.83,1702.17 1600.5,1702.5C 1601.48,1705.09 1601.81,1707.75 1601.5,1710.5C 1602.82,1710.33 1603.99,1710.66 1605,1711.5C 1605.66,1713.81 1606.16,1716.15 1606.5,1718.5C 1607.5,1718.5 1608.5,1718.5 1609.5,1718.5C 1609.21,1722.7 1610.71,1726.04 1614,1728.5C 1614.01,1731.9 1615.35,1734.57 1618,1736.5C 1618.5,1738.81 1618.66,1741.14 1618.5,1743.5C 1619.83,1743.5 1621.17,1743.5 1622.5,1743.5C 1622.5,1746.17 1622.5,1748.83 1622.5,1751.5C 1623.83,1751.5 1625.17,1751.5 1626.5,1751.5C 1626.5,1754.17 1626.5,1756.83 1626.5,1759.5C 1627.82,1759.33 1628.99,1759.66 1630,1760.5C 1631.76,1765.67 1633.76,1770.67 1636,1775.5C 1637,1776.17 1638,1776.83 1639,1777.5C 1639.5,1779.81 1639.66,1782.14 1639.5,1784.5C 1640.82,1784.33 1641.99,1784.66 1643,1785.5C 1645.47,1789.45 1647.14,1793.79 1648,1798.5C 1650.21,1801.93 1652.55,1805.26 1655,1808.5C 1655.05,1811.61 1656.39,1813.94 1659,1815.5C 1660.7,1820.66 1662.7,1825.66 1665,1830.5C 1668.04,1832.68 1669.21,1835.68 1668.5,1839.5C 1669.82,1839.33 1670.99,1839.66 1672,1840.5C 1672.5,1842.81 1672.66,1845.14 1672.5,1847.5C 1673.82,1847.33 1674.99,1847.66 1676,1848.5C 1676.5,1850.81 1676.66,1853.14 1676.5,1855.5C 1677.82,1855.33 1678.99,1855.66 1680,1856.5C 1680.82,1859.12 1681.32,1861.78 1681.5,1864.5C 1682.5,1864.5 1683.5,1864.5 1684.5,1864.5C 1685.09,1867.13 1685.42,1869.79 1685.5,1872.5C 1687.12,1872.36 1688.29,1873.03 1689,1874.5C 1689.5,1876.47 1689.66,1878.47 1689.5,1880.5C 1690.82,1880.33 1691.99,1880.66 1693,1881.5C 1693.33,1883.83 1693.67,1886.17 1694,1888.5C 1695.01,1889.34 1696.18,1889.67 1697.5,1889.5C 1697.34,1891.53 1697.5,1893.53 1698,1895.5C 1700.65,1897.43 1701.99,1900.1 1702,1903.5C 1705,1906.12 1706.84,1909.45 1707.5,1913.5C 1709.65,1916.34 1711.65,1919.34 1713.5,1922.5C 1714.31,1924.77 1714.81,1927.1 1715,1929.5C 1716,1930.17 1717,1930.83 1718,1931.5C 1718.57,1934.32 1719.91,1936.65 1722,1938.5C 1722.19,1940.58 1722.69,1942.58 1723.5,1944.5C 1725.98,1946.54 1726.98,1949.2 1726.5,1952.5C 1727.82,1952.33 1728.99,1952.66 1730,1953.5C 1730.42,1955.36 1730.92,1957.19 1731.5,1959C 1734.28,1961.49 1735.61,1964.66 1735.5,1968.5C 1736.5,1968.5 1737.5,1968.5 1738.5,1968.5C 1738.78,1971.25 1739.45,1973.92 1740.5,1976.5C 1743.17,1978.43 1744.17,1981.09 1743.5,1984.5C 1926.83,1984.5 2110.17,1984.5 2293.5,1984.5C 2293.36,1982.88 2294.03,1981.71 2295.5,1981C 2298.5,1980.67 2301.5,1980.33 2304.5,1980C 2305.17,1979 2305.83,1978 2306.5,1977C 2309.15,1976.5 2311.81,1976.34 2314.5,1976.5C 2314.33,1975.18 2314.66,1974.01 2315.5,1973C 2317.81,1972.5 2320.14,1972.34 2322.5,1972.5C 2322.5,1971.17 2322.5,1969.83 2322.5,1968.5C 2323.87,1968.66 2325.21,1968.49 2326.5,1968C 2328.19,1964.92 2330.86,1963.42 2334.5,1963.5C 2334.35,1962.45 2334.52,1961.45 2335,1960.5C 2338.09,1960.21 2339.59,1958.54 2339.5,1955.5C 2340.83,1955.5 2342.17,1955.5 2343.5,1955.5C 2343.5,1954.5 2343.5,1953.5 2343.5,1952.5C 2344.83,1952.5 2346.17,1952.5 2347.5,1952.5C 2347.5,1950.83 2347.5,1949.17 2347.5,1947.5C 2348.83,1947.5 2350.17,1947.5 2351.5,1947.5C 2351.5,1946.17 2351.5,1944.83 2351.5,1943.5C 2352.82,1943.67 2353.99,1943.34 2355,1942.5C 2355.66,1940.19 2356.16,1937.85 2356.5,1935.5C 2357.5,1935.5 2358.5,1935.5 2359.5,1935.5C 2359.34,1934.13 2359.51,1932.79 2360,1931.5C 2363.29,1929.5 2364.79,1926.5 2364.5,1922.5C 2365.83,1922.5 2367.17,1922.5 2368.5,1922.5C 2368.34,1919.48 2368.5,1916.48 2369,1913.5C 2371.77,1910.1 2373.1,1906.1 2373,1901.5C 2374,1900.5 2375,1899.5 2376,1898.5C 2376.5,1539.83 2376.67,1181.17 2376.5,822.5C 1625.17,822.5 873.833,822.5 122.5,822.5 Z M 671.5,1060.5 C 670.547,1062.61 668.881,1063.78 666.5,1064C 662.5,1064.33 658.5,1064.67 654.5,1065C 653.449,1066.38 652.116,1067.38 650.5,1068C 643.274,1068.35 636.608,1069.85 630.5,1072.5C 630.719,1073.68 630.386,1074.68 629.5,1075.5C 626.891,1076.23 624.224,1076.73 621.5,1077C 618.456,1079.34 615.456,1081.67 612.5,1084C 610.187,1084.66 607.854,1085.16 605.5,1085.5C 605.719,1086.68 605.386,1087.68 604.5,1088.5C 602.556,1089.19 600.556,1089.69 598.5,1090C 596.588,1092.25 594.588,1094.41 592.5,1096.5C 589.416,1099.38 585.749,1101.21 581.5,1102C 580.663,1103.01 580.33,1104.18 580.5,1105.5C 579.448,1105.35 578.448,1105.52 577.5,1106C 575.5,1108.67 573.5,1111.33 571.5,1114C 570.552,1114.48 569.552,1114.65 568.5,1114.5C 568.833,1117.5 567.5,1118.83 564.5,1118.5C 564.833,1121.5 563.5,1122.83 560.5,1122.5C 560.675,1125.33 559.342,1127 556.5,1127.5C 555.649,1129.88 554.316,1131.88 552.5,1133.5C 551.548,1135.05 551.215,1136.71 551.5,1138.5C 550.448,1138.35 549.448,1138.52 548.5,1139C 548.207,1142.09 546.541,1143.59 543.5,1143.5C 543.662,1145.53 543.495,1147.53 543,1149.5C 540.54,1150.76 539.373,1152.76 539.5,1155.5C 538.178,1155.33 537.011,1155.66 536,1156.5C 535.627,1158.7 535.127,1160.86 534.5,1163C 531.749,1166.96 529.416,1171.13 527.5,1175.5C 526.682,1178.11 526.182,1180.77 526,1183.5C 524.989,1184.34 523.822,1184.67 522.5,1184.5C 522.665,1187.85 522.498,1191.18 522,1194.5C 519.082,1198.92 517.749,1203.92 518,1209.5C 517.167,1210.5 516.333,1211.5 515.5,1212.5C 514.167,1237.17 514.167,1261.83 515.5,1286.5C 516.333,1287.5 517.167,1288.5 518,1289.5C 518.333,1293.5 518.667,1297.5 519,1301.5C 520.333,1302.17 521.333,1303.17 522,1304.5C 522.498,1307.82 522.665,1311.15 522.5,1314.5C 523.822,1314.33 524.989,1314.66 526,1315.5C 526.182,1318.23 526.682,1320.89 527.5,1323.5C 529.416,1327.87 531.749,1332.04 534.5,1336C 535.127,1338.14 535.627,1340.3 536,1342.5C 537.011,1343.34 538.178,1343.67 539.5,1343.5C 539.608,1346.38 540.774,1348.72 543,1350.5C 543.494,1352.13 543.66,1353.8 543.5,1355.5C 546.91,1355.38 548.244,1357.05 547.5,1360.5C 548.822,1360.33 549.989,1360.66 551,1361.5C 552.959,1364.66 554.792,1367.99 556.5,1371.5C 558.798,1373.78 561.298,1375.78 564,1377.5C 564.483,1378.45 564.649,1379.45 564.5,1380.5C 567.5,1380.17 568.833,1381.5 568.5,1384.5C 569.552,1384.35 570.552,1384.52 571.5,1385C 572.141,1387.13 573.474,1388.63 575.5,1389.5C 576.452,1391.05 576.785,1392.71 576.5,1394.5C 579.565,1396.16 582.898,1397.49 586.5,1398.5C 590.979,1401.48 594.979,1404.98 598.5,1409C 600.813,1409.66 603.146,1410.16 605.5,1410.5C 605.5,1411.5 605.5,1412.5 605.5,1413.5C 607.854,1413.84 610.187,1414.34 612.5,1415C 613.45,1417.91 615.45,1419.08 618.5,1418.5C 618.33,1419.82 618.663,1420.99 619.5,1422C 622.5,1422.33 625.5,1422.67 628.5,1423C 631.171,1425.69 634.504,1427.19 638.5,1427.5C 638.833,1428.17 639.167,1428.83 639.5,1429.5C 643.122,1430.33 646.789,1430.83 650.5,1431C 651.167,1432.33 652.167,1433.33 653.5,1434C 657.833,1434.33 662.167,1434.67 666.5,1435C 668.618,1435.26 670.284,1436.26 671.5,1438C 691.842,1438.83 712.175,1438.67 732.5,1437.5C 733.025,1436.81 733.692,1436.31 734.5,1436C 740.156,1435.11 745.823,1434.28 751.5,1433.5C 752.09,1432.2 753.09,1431.37 754.5,1431C 759.75,1431.21 764.417,1429.88 768.5,1427C 771.146,1426.5 773.813,1426.34 776.5,1426.5C 776.33,1425.18 776.663,1424.01 777.5,1423C 782.6,1420.78 787.933,1418.95 793.5,1417.5C 793.5,1416.5 793.5,1415.5 793.5,1414.5C 795.854,1414.16 798.187,1413.66 800.5,1413C 802.754,1410.67 805.087,1408.33 807.5,1406C 809.167,1405.67 810.833,1405.33 812.5,1405C 813.45,1402.09 815.45,1400.92 818.5,1401.5C 818.5,1400.17 818.5,1398.83 818.5,1397.5C 819.833,1397.5 821.167,1397.5 822.5,1397.5C 822.5,1396.5 822.5,1395.5 822.5,1394.5C 823.873,1394.66 825.207,1394.49 826.5,1394C 828.5,1391.33 830.5,1388.67 832.5,1386C 836.932,1385.4 839.598,1382.9 840.5,1378.5C 841.325,1377.61 842.325,1377.28 843.5,1377.5C 843.351,1376.45 843.517,1375.45 844,1374.5C 846.056,1373.42 847.389,1371.75 848,1369.5C 849.011,1368.66 850.178,1368.33 851.5,1368.5C 851.5,1367.17 851.5,1365.83 851.5,1364.5C 852.552,1364.65 853.552,1364.48 854.5,1364C 854.953,1361.31 856.453,1359.47 859,1358.5C 859.36,1356.39 860.027,1354.39 861,1352.5C 864.364,1347.65 867.864,1342.98 871.5,1338.5C 872.314,1336.23 872.814,1333.9 873,1331.5C 874,1330.83 875,1330.17 876,1329.5C 875.707,1325.43 877.041,1322.1 880,1319.5C 879.652,1315.11 880.986,1311.45 884,1308.5C 884.333,1305.5 884.667,1302.5 885,1299.5C 885.667,1298.17 886.667,1297.17 888,1296.5C 888.336,1289.47 889.002,1282.47 890,1275.5C 890.308,1274.69 890.808,1274.03 891.5,1273.5C 892.833,1257.5 892.833,1241.5 891.5,1225.5C 890.808,1224.97 890.308,1224.31 890,1223.5C 889.002,1216.53 888.336,1209.53 888,1202.5C 886.667,1201.83 885.667,1200.83 885,1199.5C 884.667,1196.5 884.333,1193.5 884,1190.5C 880.986,1187.55 879.652,1183.89 880,1179.5C 877.041,1176.9 875.707,1173.57 876,1169.5C 875,1168.83 874,1168.17 873,1167.5C 872.814,1165.1 872.314,1162.77 871.5,1160.5C 870.833,1160.17 870.167,1159.83 869.5,1159.5C 867.03,1155.71 865.03,1151.71 863.5,1147.5C 862.5,1147.5 861.5,1147.5 860.5,1147.5C 860.621,1143.56 859.121,1140.56 856,1138.5C 855.888,1135.55 854.388,1134.22 851.5,1134.5C 851.5,1133.17 851.5,1131.83 851.5,1130.5C 850.178,1130.67 849.011,1130.34 848,1129.5C 847.389,1127.25 846.056,1125.58 844,1124.5C 843.517,1123.55 843.351,1122.55 843.5,1121.5C 842.325,1121.72 841.325,1121.39 840.5,1120.5C 839.036,1116.36 836.203,1113.69 832,1112.5C 830.251,1110.25 828.751,1107.91 827.5,1105.5C 824.05,1106.24 822.384,1104.91 822.5,1101.5C 821.167,1101.5 819.833,1101.5 818.5,1101.5C 818.5,1100.17 818.5,1098.83 818.5,1097.5C 817.127,1097.66 815.793,1097.49 814.5,1097C 813.158,1094.11 810.825,1092.78 807.5,1093C 805.087,1090.67 802.754,1088.33 800.5,1086C 798.187,1085.34 795.854,1084.84 793.5,1084.5C 793.5,1083.5 793.5,1082.5 793.5,1081.5C 787.933,1080.05 782.6,1078.22 777.5,1076C 776.663,1074.99 776.33,1073.82 776.5,1072.5C 773.813,1072.66 771.146,1072.5 768.5,1072C 764.417,1069.12 759.75,1067.79 754.5,1068C 753.09,1067.63 752.09,1066.8 751.5,1065.5C 745.823,1064.72 740.156,1063.89 734.5,1063C 733.692,1062.69 733.025,1062.19 732.5,1061.5C 712.178,1060.5 691.844,1060.17 671.5,1060.5 Z M 909.5,1060.5 C 909.539,1061.58 909.873,1062.58 910.5,1063.5C 912.833,1065.5 915.167,1067.5 917.5,1069.5C 918.189,1071.44 918.689,1073.44 919,1075.5C 920.011,1076.34 921.178,1076.67 922.5,1076.5C 922.5,1077.83 922.5,1079.17 922.5,1080.5C 923.833,1080.5 925.167,1080.5 926.5,1080.5C 929.35,1086.14 932.35,1091.8 935.5,1097.5C 936.675,1097.28 937.675,1097.61 938.5,1098.5C 939.189,1100.44 939.689,1102.44 940,1104.5C 942.91,1105.45 944.077,1107.45 943.5,1110.5C 944.5,1110.5 945.5,1110.5 946.5,1110.5C 947.092,1113.13 947.425,1115.79 947.5,1118.5C 948.822,1118.33 949.989,1118.66 951,1119.5C 951.497,1121.81 951.663,1124.14 951.5,1126.5C 952.822,1126.33 953.989,1126.66 955,1127.5C 956.559,1134.03 958.559,1140.36 961,1146.5C 962,1147.17 963,1147.83 964,1148.5C 964.333,1151.83 964.667,1155.17 965,1158.5C 966,1159.17 967,1159.83 968,1160.5C 967.681,1165.44 969.014,1169.77 972,1173.5C 972.499,1178.82 972.666,1184.16 972.5,1189.5C 973.833,1189.5 975.167,1189.5 976.5,1189.5C 976.5,1196.5 976.5,1203.5 976.5,1210.5C 978.124,1210.36 979.29,1211.03 980,1212.5C 982,1237.17 982,1261.83 980,1286.5C 979.29,1287.97 978.124,1288.64 976.5,1288.5C 976.5,1295.5 976.5,1302.5 976.5,1309.5C 975.167,1309.5 973.833,1309.5 972.5,1309.5C 972.666,1314.84 972.499,1320.18 972,1325.5C 969.014,1329.23 967.681,1333.56 968,1338.5C 967,1339.17 966,1339.83 965,1340.5C 964.667,1343.83 964.333,1347.17 964,1350.5C 963,1351.17 962,1351.83 961,1352.5C 958.559,1358.64 956.559,1364.97 955,1371.5C 953.989,1372.34 952.822,1372.67 951.5,1372.5C 951.663,1374.86 951.497,1377.19 951,1379.5C 949.989,1380.34 948.822,1380.67 947.5,1380.5C 947.425,1383.21 947.092,1385.87 946.5,1388.5C 945.5,1388.5 944.5,1388.5 943.5,1388.5C 943.657,1389.87 943.49,1391.21 943,1392.5C 940.371,1394.47 938.871,1397.14 938.5,1400.5C 937.675,1401.39 936.675,1401.72 935.5,1401.5C 932.35,1407.2 929.35,1412.86 926.5,1418.5C 925.167,1418.5 923.833,1418.5 922.5,1418.5C 922.5,1419.83 922.5,1421.17 922.5,1422.5C 921.178,1422.33 920.011,1422.66 919,1423.5C 918.689,1425.56 918.189,1427.56 917.5,1429.5C 914.833,1432.17 912.167,1434.83 909.5,1437.5C 1136.17,1438.5 1362.83,1438.83 1589.5,1438.5C 1589.83,1435.5 1588.5,1434.17 1585.5,1434.5C 1585.83,1431.5 1584.5,1430.17 1581.5,1430.5C 1581.16,1428.15 1580.66,1425.81 1580,1423.5C 1578.99,1422.66 1577.82,1422.33 1576.5,1422.5C 1576.5,1421.17 1576.5,1419.83 1576.5,1418.5C 1575.45,1418.65 1574.45,1418.48 1573.5,1418C 1572.86,1415.87 1571.53,1414.37 1569.5,1413.5C 1567.03,1409.71 1565.03,1405.71 1563.5,1401.5C 1562.5,1401.5 1561.5,1401.5 1560.5,1401.5C 1560.3,1399.04 1559.63,1396.71 1558.5,1394.5C 1554.25,1389.68 1550.75,1384.34 1548,1378.5C 1548.05,1375.43 1546.88,1373.1 1544.5,1371.5C 1542.59,1365.09 1540.42,1358.75 1538,1352.5C 1536.67,1351.83 1535.67,1350.83 1535,1349.5C 1534.67,1346.5 1534.33,1343.5 1534,1340.5C 1533,1339.83 1532,1339.17 1531,1338.5C 1531.32,1333.56 1529.99,1329.23 1527,1325.5C 1526.5,1320.18 1526.33,1314.84 1526.5,1309.5C 1525.18,1309.67 1524.01,1309.34 1523,1308.5C 1522.83,1301.81 1522.33,1295.14 1521.5,1288.5C 1520.2,1287.91 1519.37,1286.91 1519,1285.5C 1517,1261.5 1517,1237.5 1519,1213.5C 1519.37,1212.09 1520.2,1211.09 1521.5,1210.5C 1522.33,1203.86 1522.83,1197.19 1523,1190.5C 1524.01,1189.66 1525.18,1189.33 1526.5,1189.5C 1526.33,1184.16 1526.5,1178.82 1527,1173.5C 1529.99,1169.77 1531.32,1165.44 1531,1160.5C 1532,1159.83 1533,1159.17 1534,1158.5C 1534.33,1155.5 1534.67,1152.5 1535,1149.5C 1535.67,1148.17 1536.67,1147.17 1538,1146.5C 1541.5,1137.73 1544.84,1129.07 1548,1120.5C 1548.69,1119.64 1549.52,1118.98 1550.5,1118.5C 1551.56,1114.05 1553.39,1110.05 1556,1106.5C 1559.12,1104.44 1560.62,1101.44 1560.5,1097.5C 1561.5,1097.5 1562.5,1097.5 1563.5,1097.5C 1563.35,1096.45 1563.52,1095.45 1564,1094.5C 1566.67,1092.02 1568.17,1089.02 1568.5,1085.5C 1569.55,1085.65 1570.55,1085.48 1571.5,1085C 1571.79,1081.91 1573.46,1080.41 1576.5,1080.5C 1576.5,1079.17 1576.5,1077.83 1576.5,1076.5C 1577.82,1076.67 1578.99,1076.34 1580,1075.5C 1580.66,1073.19 1581.16,1070.85 1581.5,1068.5C 1584.5,1068.83 1585.83,1067.5 1585.5,1064.5C 1588.5,1064.83 1589.83,1063.5 1589.5,1060.5C 1362.83,1060.5 1136.17,1060.5 909.5,1060.5 Z M 1766.5,1060.5 C 1766.42,1061.75 1765.76,1062.58 1764.5,1063C 1758.84,1063.89 1753.18,1064.72 1747.5,1065.5C 1746.91,1066.8 1745.91,1067.63 1744.5,1068C 1741.17,1068.33 1737.83,1068.67 1734.5,1069C 1731.14,1072.1 1727.14,1073.26 1722.5,1072.5C 1722.5,1073.83 1722.5,1075.17 1722.5,1076.5C 1719.75,1076.19 1717.09,1076.52 1714.5,1077.5C 1712.28,1080.3 1709.28,1081.63 1705.5,1081.5C 1705.5,1082.5 1705.5,1083.5 1705.5,1084.5C 1703.15,1084.84 1700.81,1085.34 1698.5,1086C 1696.25,1088.33 1693.91,1090.67 1691.5,1093C 1689.83,1093.33 1688.17,1093.67 1686.5,1094C 1685.55,1096.91 1683.55,1098.08 1680.5,1097.5C 1680.5,1098.83 1680.5,1100.17 1680.5,1101.5C 1679.17,1101.5 1677.83,1101.5 1676.5,1101.5C 1676.78,1104.39 1675.45,1105.89 1672.5,1106C 1669.31,1110.86 1665.14,1114.69 1660,1117.5C 1659.67,1118.5 1659.33,1119.5 1659,1120.5C 1656.1,1123.61 1653.26,1126.77 1650.5,1130C 1649.55,1130.48 1648.55,1130.65 1647.5,1130.5C 1647.76,1131.98 1647.43,1133.31 1646.5,1134.5C 1644.41,1136.59 1642.25,1138.59 1640,1140.5C 1639.69,1142.56 1639.19,1144.56 1638.5,1146.5C 1637.68,1147.39 1636.68,1147.72 1635.5,1147.5C 1634.35,1151.82 1632.52,1155.82 1630,1159.5C 1629,1160.17 1628,1160.83 1627,1161.5C 1627.32,1165.14 1625.98,1167.8 1623,1169.5C 1621.2,1175.85 1619.54,1182.19 1618,1188.5C 1617,1189.17 1616,1189.83 1615,1190.5C 1614.67,1193.83 1614.33,1197.17 1614,1200.5C 1613,1201.17 1612,1201.83 1611,1202.5C 1610.71,1208.85 1610.21,1215.19 1609.5,1221.5C 1609.69,1223.69 1608.86,1225.35 1607,1226.5C 1606.33,1241.83 1606.33,1257.17 1607,1272.5C 1607.67,1273.17 1608.33,1273.83 1609,1274.5C 1610.08,1281.79 1610.75,1289.12 1611,1296.5C 1612,1297.17 1613,1297.83 1614,1298.5C 1614.33,1301.83 1614.67,1305.17 1615,1308.5C 1616,1309.17 1617,1309.83 1618,1310.5C 1619.54,1316.81 1621.2,1323.15 1623,1329.5C 1624,1330.17 1625,1330.83 1626,1331.5C 1625.68,1335.14 1627.02,1337.8 1630,1339.5C 1632.52,1343.18 1634.35,1347.18 1635.5,1351.5C 1636.68,1351.28 1637.68,1351.61 1638.5,1352.5C 1639.19,1354.44 1639.69,1356.44 1640,1358.5C 1642.25,1360.41 1644.41,1362.41 1646.5,1364.5C 1647.43,1365.69 1647.76,1367.02 1647.5,1368.5C 1648.82,1368.33 1649.99,1368.66 1651,1369.5C 1654.18,1373.42 1657.18,1377.42 1660,1381.5C 1661.68,1383.71 1663.85,1385.21 1666.5,1386C 1668.75,1388.29 1670.75,1390.79 1672.5,1393.5C 1673.69,1394.43 1675.02,1394.76 1676.5,1394.5C 1676.5,1395.5 1676.5,1396.5 1676.5,1397.5C 1677.83,1397.5 1679.17,1397.5 1680.5,1397.5C 1680.5,1398.83 1680.5,1400.17 1680.5,1401.5C 1681.87,1401.34 1683.21,1401.51 1684.5,1402C 1685.84,1404.89 1688.18,1406.22 1691.5,1406C 1693.91,1408.33 1696.25,1410.67 1698.5,1413C 1700.81,1413.66 1703.15,1414.16 1705.5,1414.5C 1705.5,1415.5 1705.5,1416.5 1705.5,1417.5C 1711.07,1418.95 1716.4,1420.78 1721.5,1423C 1722.34,1424.01 1722.67,1425.18 1722.5,1426.5C 1725.19,1426.34 1727.85,1426.5 1730.5,1427C 1734.57,1430.03 1739.24,1431.36 1744.5,1431C 1745.91,1431.37 1746.91,1432.2 1747.5,1433.5C 1753.18,1434.28 1758.84,1435.11 1764.5,1436C 1765.31,1436.31 1765.97,1436.81 1766.5,1437.5C 1786.83,1438.67 1807.16,1438.83 1827.5,1438C 1828.72,1436.26 1830.38,1435.26 1832.5,1435C 1837.17,1434.67 1841.83,1434.33 1846.5,1434C 1847.17,1433 1847.83,1432 1848.5,1431C 1852.17,1430.67 1855.83,1430.33 1859.5,1430C 1860.34,1428.99 1860.67,1427.82 1860.5,1426.5C 1864.59,1427.15 1867.92,1425.99 1870.5,1423C 1873.5,1422.67 1876.5,1422.33 1879.5,1422C 1880.34,1420.99 1880.67,1419.82 1880.5,1418.5C 1881.87,1418.66 1883.21,1418.49 1884.5,1418C 1886.56,1414.88 1889.56,1413.38 1893.5,1413.5C 1893.5,1412.5 1893.5,1411.5 1893.5,1410.5C 1895.85,1410.16 1898.19,1409.66 1900.5,1409C 1904.04,1404.79 1908.21,1401.29 1913,1398.5C 1914.77,1397.77 1916.6,1397.43 1918.5,1397.5C 1918.5,1396.5 1918.5,1395.5 1918.5,1394.5C 1919.83,1394.5 1921.17,1394.5 1922.5,1394.5C 1922.21,1392.71 1922.55,1391.05 1923.5,1389.5C 1925.53,1388.63 1926.86,1387.13 1927.5,1385C 1928.45,1384.52 1929.45,1384.35 1930.5,1384.5C 1930.17,1381.5 1931.5,1380.17 1934.5,1380.5C 1934.33,1379.18 1934.66,1378.01 1935.5,1377C 1937.52,1376.6 1938.85,1375.43 1939.5,1373.5C 1940.69,1372.57 1942.02,1372.24 1943.5,1372.5C 1945.59,1369.19 1947.09,1365.52 1948,1361.5C 1949.01,1360.66 1950.18,1360.33 1951.5,1360.5C 1950.76,1357.05 1952.09,1355.38 1955.5,1355.5C 1955.53,1350.88 1957.2,1347.05 1960.5,1344C 1961.45,1343.52 1962.45,1343.35 1963.5,1343.5C 1963,1339.14 1964.5,1335.81 1968,1333.5C 1968.5,1331.19 1968.66,1328.86 1968.5,1326.5C 1970.12,1326.64 1971.29,1325.97 1972,1324.5C 1972.26,1321.44 1972.76,1318.44 1973.5,1315.5C 1974.32,1314.61 1975.32,1314.28 1976.5,1314.5C 1976.39,1310.45 1976.73,1306.45 1977.5,1302.5C 1978.5,1302.5 1979.5,1302.5 1980.5,1302.5C 1980.33,1298.49 1980.5,1294.49 1981,1290.5C 1981.62,1288.88 1982.62,1287.55 1984,1286.5C 1986,1261.83 1986,1237.17 1984,1212.5C 1982.62,1211.45 1981.62,1210.12 1981,1208.5C 1980.67,1204.83 1980.33,1201.17 1980,1197.5C 1978.42,1196.62 1977.42,1195.29 1977,1193.5C 1976.5,1190.52 1976.34,1187.52 1976.5,1184.5C 1975.18,1184.67 1974.01,1184.34 1973,1183.5C 1972.67,1180.5 1972.33,1177.5 1972,1174.5C 1971.29,1173.03 1970.12,1172.36 1968.5,1172.5C 1968.66,1170.47 1968.5,1168.47 1968,1166.5C 1964.63,1164.08 1962.96,1160.75 1963,1156.5C 1958.27,1153.52 1955.77,1149.19 1955.5,1143.5C 1952.09,1143.62 1950.76,1141.95 1951.5,1138.5C 1950.18,1138.67 1949.01,1138.34 1948,1137.5C 1947.09,1133.48 1945.59,1129.81 1943.5,1126.5C 1942.02,1126.76 1940.69,1126.43 1939.5,1125.5C 1938.85,1123.57 1937.52,1122.4 1935.5,1122C 1934.66,1120.99 1934.33,1119.82 1934.5,1118.5C 1931.5,1118.83 1930.17,1117.5 1930.5,1114.5C 1929.45,1114.65 1928.45,1114.48 1927.5,1114C 1925.5,1111.33 1923.5,1108.67 1921.5,1106C 1920.55,1105.52 1919.55,1105.35 1918.5,1105.5C 1918.5,1104.17 1918.5,1102.83 1918.5,1101.5C 1916.41,1101.68 1914.41,1101.35 1912.5,1100.5C 1908.02,1097.52 1904.02,1094.02 1900.5,1090C 1898.19,1089.34 1895.85,1088.84 1893.5,1088.5C 1893.5,1087.5 1893.5,1086.5 1893.5,1085.5C 1891.15,1085.16 1888.81,1084.66 1886.5,1084C 1885.55,1081.09 1883.55,1079.92 1880.5,1080.5C 1880.67,1079.18 1880.34,1078.01 1879.5,1077C 1876.5,1076.67 1873.5,1076.33 1870.5,1076C 1867.83,1073.31 1864.5,1071.81 1860.5,1071.5C 1860.17,1070.83 1859.83,1070.17 1859.5,1069.5C 1855.88,1068.67 1852.21,1068.17 1848.5,1068C 1846.88,1067.38 1845.55,1066.38 1844.5,1065C 1840.5,1064.67 1836.5,1064.33 1832.5,1064C 1830.38,1063.74 1828.72,1062.74 1827.5,1061C 1807.17,1060.5 1786.84,1060.33 1766.5,1060.5 Z M 964.5,1760.5 C 964.662,1762.53 964.495,1764.53 964,1766.5C 960.708,1768.96 959.208,1772.3 959.5,1776.5C 958.5,1776.5 957.5,1776.5 956.5,1776.5C 955.908,1779.13 955.575,1781.79 955.5,1784.5C 954.167,1784.5 952.833,1784.5 951.5,1784.5C 951.664,1787.19 951.497,1789.85 951,1792.5C 949.989,1793.34 948.822,1793.67 947.5,1793.5C 947.663,1795.86 947.497,1798.19 947,1800.5C 945.989,1801.34 944.822,1801.67 943.5,1801.5C 943.663,1803.86 943.497,1806.19 943,1808.5C 941.989,1809.34 940.822,1809.67 939.5,1809.5C 939.663,1811.86 939.497,1814.19 939,1816.5C 935.708,1818.96 934.208,1822.3 934.5,1826.5C 933.5,1826.5 932.5,1826.5 931.5,1826.5C 930.908,1829.13 930.575,1831.79 930.5,1834.5C 929.167,1834.5 927.833,1834.5 926.5,1834.5C 926.664,1837.19 926.497,1839.85 926,1842.5C 924.989,1843.34 923.822,1843.67 922.5,1843.5C 922.663,1845.86 922.497,1848.19 922,1850.5C 920.989,1851.34 919.822,1851.67 918.5,1851.5C 918.663,1853.86 918.497,1856.19 918,1858.5C 916.989,1859.34 915.822,1859.67 914.5,1859.5C 914.663,1861.86 914.497,1864.19 914,1866.5C 910.708,1868.96 909.208,1872.3 909.5,1876.5C 908.5,1876.5 907.5,1876.5 906.5,1876.5C 905.908,1879.13 905.575,1881.79 905.5,1884.5C 904.167,1884.5 902.833,1884.5 901.5,1884.5C 901.664,1887.19 901.497,1889.85 901,1892.5C 899.989,1893.34 898.822,1893.67 897.5,1893.5C 897.663,1895.86 897.497,1898.19 897,1900.5C 895.989,1901.34 894.822,1901.67 893.5,1901.5C 893.663,1903.86 893.497,1906.19 893,1908.5C 891.989,1909.34 890.822,1909.67 889.5,1909.5C 889.663,1911.86 889.497,1914.19 889,1916.5C 885.708,1918.96 884.208,1922.3 884.5,1926.5C 883.5,1926.5 882.5,1926.5 881.5,1926.5C 880.908,1929.13 880.575,1931.79 880.5,1934.5C 879.167,1934.5 877.833,1934.5 876.5,1934.5C 876.664,1937.19 876.497,1939.85 876,1942.5C 874.989,1943.34 873.822,1943.67 872.5,1943.5C 872.663,1945.86 872.497,1948.19 872,1950.5C 870.989,1951.34 869.822,1951.67 868.5,1951.5C 868.663,1953.86 868.497,1956.19 868,1958.5C 866.989,1959.34 865.822,1959.67 864.5,1959.5C 864.663,1961.86 864.497,1964.19 864,1966.5C 860.708,1968.96 859.208,1972.3 859.5,1976.5C 858.5,1976.5 857.5,1976.5 856.5,1976.5C 855.908,1979.13 855.575,1981.79 855.5,1984.5C 1118.17,1984.5 1380.83,1984.5 1643.5,1984.5C 1643.98,1981.72 1642.98,1979.72 1640.5,1978.5C 1637.44,1973.27 1634.6,1967.94 1632,1962.5C 1631.02,1960.26 1630.52,1957.93 1630.5,1955.5C 1629.32,1955.72 1628.32,1955.39 1627.5,1954.5C 1627.22,1950.81 1625.72,1947.81 1623,1945.5C 1622.67,1943.5 1622.33,1941.5 1622,1939.5C 1620.99,1938.66 1619.82,1938.33 1618.5,1938.5C 1618.66,1936.14 1618.5,1933.81 1618,1931.5C 1616.99,1930.66 1615.82,1930.33 1614.5,1930.5C 1614.42,1927.79 1614.09,1925.13 1613.5,1922.5C 1612.5,1922.5 1611.5,1922.5 1610.5,1922.5C 1610.62,1918.37 1609.12,1915.03 1606,1912.5C 1605.5,1910.19 1605.34,1907.86 1605.5,1905.5C 1604.18,1905.67 1603.01,1905.34 1602,1904.5C 1601.5,1902.19 1601.34,1899.86 1601.5,1897.5C 1600.18,1897.67 1599.01,1897.34 1598,1896.5C 1597.67,1894.5 1597.33,1892.5 1597,1890.5C 1593.85,1888.08 1592.35,1884.75 1592.5,1880.5C 1590.88,1880.64 1589.71,1879.97 1589,1878.5C 1588.5,1876.53 1588.34,1874.53 1588.5,1872.5C 1587.18,1872.67 1586.01,1872.34 1585,1871.5C 1584.66,1868.32 1583.33,1865.65 1581,1863.5C 1580.5,1860.85 1580.34,1858.19 1580.5,1855.5C 1579.17,1855.5 1577.83,1855.5 1576.5,1855.5C 1574.09,1851.65 1572.43,1847.32 1571.5,1842.5C 1568.83,1840.57 1567.83,1837.91 1568.5,1834.5C 1567.18,1834.67 1566.01,1834.34 1565,1833.5C 1562.7,1828.66 1560.7,1823.66 1559,1818.5C 1555.96,1816.32 1554.79,1813.32 1555.5,1809.5C 1554.18,1809.67 1553.01,1809.34 1552,1808.5C 1551.5,1806.19 1551.34,1803.86 1551.5,1801.5C 1550.18,1801.67 1549.01,1801.34 1548,1800.5C 1547.5,1798.19 1547.34,1795.86 1547.5,1793.5C 1546.18,1793.67 1545.01,1793.34 1544,1792.5C 1543.71,1790.11 1543.21,1787.78 1542.5,1785.5C 1541.68,1784.61 1540.68,1784.28 1539.5,1784.5C 1539.17,1781.83 1538.83,1779.17 1538.5,1776.5C 1536.88,1776.64 1535.71,1775.97 1535,1774.5C 1534.5,1772.53 1534.34,1770.53 1534.5,1768.5C 1533.18,1768.67 1532.01,1768.34 1531,1767.5C 1530.5,1765.19 1530.34,1762.86 1530.5,1760.5C 1341.83,1760.5 1153.17,1760.5 964.5,1760.5 Z"/></g>
<g><path style="opacity:0.869" fill="#fefffe" d="M 224.5,618.5 C 334.835,618.167 445.169,618.5 555.5,619.5C 555.977,620.478 556.643,621.311 557.5,622C 560.833,622.333 564.167,622.667 567.5,623C 568.337,624.011 568.67,625.178 568.5,626.5C 570.401,626.433 572.234,626.767 574,627.5C 580.105,633.281 585.105,639.948 589,647.5C 589.667,658.167 589.667,668.833 589,679.5C 586.587,682.062 584.92,685.062 584,688.5C 582.048,690.741 579.882,692.741 577.5,694.5C 576.614,695.325 576.281,696.325 576.5,697.5C 575.167,697.5 573.833,697.5 572.5,697.5C 572.5,698.833 572.5,700.167 572.5,701.5C 569.039,700.889 566.372,702.056 564.5,705C 562.833,705.333 561.167,705.667 559.5,706C 444.485,706.821 329.485,706.655 214.5,705.5C 214.5,704.167 214.5,702.833 214.5,701.5C 211.753,701.813 209.086,701.48 206.5,700.5C 205.63,698.474 204.13,697.141 202,696.5C 201.517,695.552 201.351,694.552 201.5,693.5C 200.178,693.67 199.011,693.337 198,692.5C 198.316,688.863 196.982,686.196 194,684.5C 193.323,679.909 191.823,675.743 189.5,672C 188.169,665.469 188.336,658.969 190,652.5C 192.392,649.298 193.725,645.631 194,641.5C 194.71,640.027 195.876,639.36 197.5,639.5C 196.756,636.05 198.09,634.384 201.5,634.5C 201.167,631.5 202.5,630.167 205.5,630.5C 205.33,629.178 205.663,628.011 206.5,627C 209.722,626.65 212.388,625.316 214.5,623C 218.834,623.28 222.168,621.78 224.5,618.5 Z"/></g>
<g><path style="opacity:0.814" fill="#fefffe" d="M 649.5,618.5 C 668.503,618.333 687.503,618.5 706.5,619C 709.878,621.924 713.878,623.091 718.5,622.5C 718.351,623.552 718.517,624.552 719,625.5C 721.069,626.264 723.236,626.764 725.5,627C 726.337,628.011 726.67,629.178 726.5,630.5C 727.833,630.5 729.167,630.5 730.5,630.5C 733.047,633.942 734.881,637.942 736,642.5C 737,643.167 738,643.833 739,644.5C 739.173,648.541 739.673,652.541 740.5,656.5C 744.599,661.05 744.432,665.384 740,669.5C 739.667,674.167 739.333,678.833 739,683.5C 737.989,684.337 736.822,684.67 735.5,684.5C 735.79,688.501 734.29,691.501 731,693.5C 730.667,694.5 730.333,695.5 730,696.5C 724.957,699.795 719.791,702.795 714.5,705.5C 689.5,706.803 664.5,706.803 639.5,705.5C 639.5,704.167 639.5,702.833 639.5,701.5C 636.753,701.813 634.086,701.48 631.5,700.5C 630.63,698.474 629.13,697.141 627,696.5C 626.517,695.552 626.351,694.552 626.5,693.5C 623.234,693.567 621.734,691.901 622,688.5C 619.091,686.098 617.591,682.931 617.5,679C 614.539,674.571 613.206,669.571 613.5,664C 613.594,660.112 614.094,656.279 615,652.5C 615.414,652.043 615.914,651.709 616.5,651.5C 617.547,647.888 618.38,644.221 619,640.5C 620.011,639.663 621.178,639.33 622.5,639.5C 621.756,636.05 623.09,634.384 626.5,634.5C 626.167,631.5 627.5,630.167 630.5,630.5C 630.433,627.234 632.099,625.734 635.5,626C 636.167,624.667 637.167,623.667 638.5,623C 641.5,622.667 644.5,622.333 647.5,622C 648.305,620.887 648.972,619.721 649.5,618.5 Z"/></g>
<g><path style="opacity:0.894" fill="#fefffe" d="M 659.5,972.5 C 1052.83,972.333 1446.17,972.5 1839.5,973C 1840.91,973.368 1841.91,974.201 1842.5,975.5C 1848.14,976.33 1853.8,976.83 1859.5,977C 1864.27,979.953 1869.6,981.286 1875.5,981C 1879.23,983.986 1883.56,985.319 1888.5,985C 1892.23,988.054 1896.56,989.554 1901.5,989.5C 1901.5,990.5 1901.5,991.5 1901.5,992.5C 1906.29,992.187 1910.29,993.687 1913.5,997C 1916.17,997.567 1918.83,998.067 1921.5,998.5C 1921.5,999.5 1921.5,1000.5 1921.5,1001.5C 1924.32,1001.25 1926.99,1001.75 1929.5,1003C 1932.22,1004.59 1934.55,1006.59 1936.5,1009C 1938.56,1009.31 1940.56,1009.81 1942.5,1010.5C 1943.39,1011.32 1943.72,1012.32 1943.5,1013.5C 1947.14,1013.42 1949.81,1014.92 1951.5,1018C 1952.79,1018.49 1954.13,1018.66 1955.5,1018.5C 1955.33,1019.82 1955.66,1020.99 1956.5,1022C 1960.53,1023.22 1964.2,1025.06 1967.5,1027.5C 1968.37,1029.53 1969.87,1030.86 1972,1031.5C 1972.48,1032.45 1972.65,1033.45 1972.5,1034.5C 1973.83,1034.5 1975.17,1034.5 1976.5,1034.5C 1976.5,1035.83 1976.5,1037.17 1976.5,1038.5C 1978.68,1038.59 1980.68,1039.25 1982.5,1040.5C 1985.08,1043.59 1988.08,1046.09 1991.5,1048C 1998,1054.81 2004.17,1061.98 2010,1069.5C 2010.48,1070.45 2010.65,1071.45 2010.5,1072.5C 2013.5,1072.17 2014.83,1073.5 2014.5,1076.5C 2017.91,1076.38 2019.24,1078.05 2018.5,1081.5C 2019.68,1081.28 2020.68,1081.61 2021.5,1082.5C 2022.49,1086.69 2024.15,1090.36 2026.5,1093.5C 2027.82,1093.33 2028.99,1093.66 2030,1094.5C 2030.66,1096.81 2031.16,1099.15 2031.5,1101.5C 2032.68,1101.28 2033.68,1101.61 2034.5,1102.5C 2037.92,1106.08 2039.59,1110.42 2039.5,1115.5C 2040.82,1115.33 2041.99,1115.66 2043,1116.5C 2043.5,1118.47 2043.66,1120.47 2043.5,1122.5C 2044.82,1122.33 2045.99,1122.66 2047,1123.5C 2049.28,1128.55 2050.94,1133.88 2052,1139.5C 2053.33,1140.17 2054.33,1141.17 2055,1142.5C 2055.71,1147.31 2057.38,1151.64 2060,1155.5C 2060.5,1158.48 2060.66,1161.48 2060.5,1164.5C 2061.5,1164.5 2062.5,1164.5 2063.5,1164.5C 2064.29,1168.79 2064.63,1173.12 2064.5,1177.5C 2065.5,1177.5 2066.5,1177.5 2067.5,1177.5C 2068.01,1184.5 2068.68,1191.5 2069.5,1198.5C 2070.8,1199.09 2071.63,1200.09 2072,1201.5C 2072.17,1211.52 2072.67,1221.52 2073.5,1231.5C 2074.8,1232.09 2075.63,1233.09 2076,1234.5C 2076.67,1244.5 2076.67,1254.5 2076,1264.5C 2075.63,1265.91 2074.8,1266.91 2073.5,1267.5C 2072.67,1277.48 2072.17,1287.48 2072,1297.5C 2071.63,1298.91 2070.8,1299.91 2069.5,1300.5C 2068.68,1307.5 2068.01,1314.5 2067.5,1321.5C 2066.5,1321.5 2065.5,1321.5 2064.5,1321.5C 2064.63,1325.88 2064.29,1330.21 2063.5,1334.5C 2062.5,1334.5 2061.5,1334.5 2060.5,1334.5C 2060.66,1337.52 2060.5,1340.52 2060,1343.5C 2057.38,1347.36 2055.71,1351.69 2055,1356.5C 2054.33,1357.83 2053.33,1358.83 2052,1359.5C 2050.94,1365.12 2049.28,1370.45 2047,1375.5C 2045.99,1376.34 2044.82,1376.67 2043.5,1376.5C 2043.66,1378.53 2043.5,1380.53 2043,1382.5C 2042.29,1383.97 2041.12,1384.64 2039.5,1384.5C 2039.48,1386.93 2038.98,1389.26 2038,1391.5C 2036.16,1392.67 2035,1394.34 2034.5,1396.5C 2033.68,1397.39 2032.68,1397.72 2031.5,1397.5C 2031.16,1399.85 2030.66,1402.19 2030,1404.5C 2028.99,1405.34 2027.82,1405.67 2026.5,1405.5C 2024.15,1408.64 2022.49,1412.31 2021.5,1416.5C 2020.68,1417.39 2019.68,1417.72 2018.5,1417.5C 2019.24,1420.95 2017.91,1422.62 2014.5,1422.5C 2014.83,1425.5 2013.5,1426.83 2010.5,1426.5C 2010.65,1427.55 2010.48,1428.55 2010,1429.5C 2004.22,1436.76 1998.22,1443.76 1992,1450.5C 1988.42,1452.58 1985.25,1455.24 1982.5,1458.5C 1980.68,1459.75 1978.68,1460.41 1976.5,1460.5C 1976.5,1461.83 1976.5,1463.17 1976.5,1464.5C 1975.17,1464.5 1973.83,1464.5 1972.5,1464.5C 1972.67,1465.82 1972.34,1466.99 1971.5,1468C 1968.35,1470.74 1965.02,1473.24 1961.5,1475.5C 1959.88,1476.15 1958.22,1476.65 1956.5,1477C 1955.66,1478.01 1955.33,1479.18 1955.5,1480.5C 1952.45,1479.92 1950.45,1481.09 1949.5,1484C 1947.56,1484.81 1945.56,1485.31 1943.5,1485.5C 1943.72,1486.68 1943.39,1487.68 1942.5,1488.5C 1940.56,1489.19 1938.56,1489.69 1936.5,1490C 1934.55,1492.41 1932.22,1494.41 1929.5,1496C 1926.99,1497.25 1924.32,1497.75 1921.5,1497.5C 1921.5,1498.5 1921.5,1499.5 1921.5,1500.5C 1917.09,1500.46 1913.42,1501.96 1910.5,1505C 1907.57,1505.95 1904.57,1506.45 1901.5,1506.5C 1901.5,1507.5 1901.5,1508.5 1901.5,1509.5C 1896.56,1509.45 1892.23,1510.95 1888.5,1514C 1883.56,1513.68 1879.23,1515.01 1875.5,1518C 1869.6,1517.71 1864.27,1519.05 1859.5,1522C 1853.8,1522.17 1848.14,1522.67 1842.5,1523.5C 1841.91,1524.8 1840.91,1525.63 1839.5,1526C 1446.17,1526.67 1052.83,1526.67 659.5,1526C 658.09,1525.63 657.09,1524.8 656.5,1523.5C 650.862,1522.67 645.196,1522.17 639.5,1522C 634.734,1519.05 629.401,1517.71 623.5,1518C 619.773,1515.01 615.439,1513.68 610.5,1514C 606.769,1510.95 602.435,1509.45 597.5,1509.5C 597.5,1508.5 597.5,1507.5 597.5,1506.5C 592.744,1506.67 588.744,1505.17 585.5,1502C 580.443,1500.57 575.609,1498.74 571,1496.5C 567.945,1494.68 565.111,1492.51 562.5,1490C 560.444,1489.69 558.444,1489.19 556.5,1488.5C 555.614,1487.68 555.281,1486.68 555.5,1485.5C 551.861,1485.58 549.194,1484.08 547.5,1481C 546.207,1480.51 544.873,1480.34 543.5,1480.5C 543.5,1479.17 543.5,1477.83 543.5,1476.5C 541.801,1476.66 540.134,1476.49 538.5,1476C 537.047,1473.89 535.047,1472.55 532.5,1472C 531.195,1469.85 529.362,1468.35 527,1467.5C 526.517,1466.55 526.351,1465.55 526.5,1464.5C 523.5,1464.83 522.167,1463.5 522.5,1460.5C 517.733,1459.41 514.066,1456.74 511.5,1452.5C 510.264,1451.64 508.931,1450.98 507.5,1450.5C 503.174,1445.34 498.674,1440.34 494,1435.5C 493.431,1432.6 491.765,1430.6 489,1429.5C 488.517,1428.55 488.351,1427.55 488.5,1426.5C 485.5,1426.83 484.167,1425.5 484.5,1422.5C 483.325,1422.72 482.325,1422.39 481.5,1421.5C 478.741,1418.32 476.741,1414.65 475.5,1410.5C 473.227,1409.62 472.227,1407.96 472.5,1405.5C 471.448,1405.65 470.448,1405.48 469.5,1405C 468.773,1402.88 468.106,1400.71 467.5,1398.5C 466.675,1397.61 465.675,1397.28 464.5,1397.5C 464.622,1394.74 463.455,1392.74 461,1391.5C 460.023,1389.26 459.523,1386.93 459.5,1384.5C 458.325,1384.72 457.325,1384.39 456.5,1383.5C 455.626,1381.25 455.292,1378.92 455.5,1376.5C 454.325,1376.72 453.325,1376.39 452.5,1375.5C 452.224,1371.81 450.724,1368.81 448,1366.5C 447.667,1363.5 447.333,1360.5 447,1357.5C 446.311,1356.64 445.478,1355.98 444.5,1355.5C 443.737,1352.05 442.237,1349.05 440,1346.5C 438.844,1342.58 438.344,1338.58 438.5,1334.5C 437.5,1334.5 436.5,1334.5 435.5,1334.5C 435.552,1328.29 434.052,1322.63 431,1317.5C 431.307,1310.01 429.974,1303.01 427,1296.5C 426.832,1286.82 426.332,1277.15 425.5,1267.5C 424.029,1266.62 423.196,1265.29 423,1263.5C 422.333,1254.17 422.333,1244.83 423,1235.5C 423.196,1233.71 424.029,1232.38 425.5,1231.5C 426.332,1221.85 426.832,1212.18 427,1202.5C 429.974,1195.99 431.307,1188.99 431,1181.5C 434.052,1176.37 435.552,1170.71 435.5,1164.5C 436.5,1164.5 437.5,1164.5 438.5,1164.5C 438.344,1160.42 438.844,1156.42 440,1152.5C 442.237,1149.95 443.737,1146.95 444.5,1143.5C 445.478,1143.02 446.311,1142.36 447,1141.5C 447.333,1138.5 447.667,1135.5 448,1132.5C 450.724,1130.19 452.224,1127.19 452.5,1123.5C 453.325,1122.61 454.325,1122.28 455.5,1122.5C 455.338,1120.47 455.505,1118.47 456,1116.5C 457.011,1115.66 458.178,1115.33 459.5,1115.5C 459.091,1111.38 460.424,1108.05 463.5,1105.5C 464.246,1104.26 464.579,1102.93 464.5,1101.5C 465.675,1101.72 466.675,1101.39 467.5,1100.5C 468.189,1098.56 468.689,1096.56 469,1094.5C 470.011,1093.66 471.178,1093.33 472.5,1093.5C 472.227,1091.04 473.227,1089.38 475.5,1088.5C 476.741,1084.35 478.741,1080.68 481.5,1077.5C 482.325,1076.61 483.325,1076.28 484.5,1076.5C 484.167,1073.5 485.5,1072.17 488.5,1072.5C 488.351,1071.45 488.517,1070.45 489,1069.5C 492.968,1064.53 497.302,1059.86 502,1055.5C 502.483,1054.55 502.649,1053.55 502.5,1052.5C 505.329,1052.68 506.996,1051.34 507.5,1048.5C 511.267,1046.24 514.601,1043.4 517.5,1040C 519.025,1038.99 520.692,1038.49 522.5,1038.5C 522.167,1035.5 523.5,1034.17 526.5,1034.5C 526.351,1033.45 526.517,1032.45 527,1031.5C 529.362,1030.65 531.195,1029.15 532.5,1027C 535.047,1026.45 537.047,1025.11 538.5,1023C 540.134,1022.51 541.801,1022.34 543.5,1022.5C 543.5,1021.17 543.5,1019.83 543.5,1018.5C 546.55,1019.08 548.55,1017.91 549.5,1015C 551.436,1014.19 553.436,1013.69 555.5,1013.5C 555.281,1012.32 555.614,1011.32 556.5,1010.5C 558.444,1009.81 560.444,1009.31 562.5,1009C 565.111,1006.49 567.945,1004.32 571,1002.5C 575.609,1000.26 580.443,998.429 585.5,997C 588.744,993.832 592.744,992.332 597.5,992.5C 597.5,991.5 597.5,990.5 597.5,989.5C 602.435,989.554 606.769,988.054 610.5,985C 615.439,985.319 619.773,983.986 623.5,981C 629.401,981.286 634.734,979.953 639.5,977C 645.196,976.83 650.862,976.33 656.5,975.5C 657.34,974.265 658.34,973.265 659.5,972.5 Z M 671.5,1060.5 C 670.547,1062.61 668.881,1063.78 666.5,1064C 662.5,1064.33 658.5,1064.67 654.5,1065C 653.449,1066.38 652.116,1067.38 650.5,1068C 643.274,1068.35 636.608,1069.85 630.5,1072.5C 630.719,1073.68 630.386,1074.68 629.5,1075.5C 626.891,1076.23 624.224,1076.73 621.5,1077C 618.456,1079.34 615.456,1081.67 612.5,1084C 610.187,1084.66 607.854,1085.16 605.5,1085.5C 605.719,1086.68 605.386,1087.68 604.5,1088.5C 602.556,1089.19 600.556,1089.69 598.5,1090C 596.588,1092.25 594.588,1094.41 592.5,1096.5C 589.416,1099.38 585.749,1101.21 581.5,1102C 580.663,1103.01 580.33,1104.18 580.5,1105.5C 579.448,1105.35 578.448,1105.52 577.5,1106C 575.5,1108.67 573.5,1111.33 571.5,1114C 570.552,1114.48 569.552,1114.65 568.5,1114.5C 568.833,1117.5 567.5,1118.83 564.5,1118.5C 564.833,1121.5 563.5,1122.83 560.5,1122.5C 560.675,1125.33 559.342,1127 556.5,1127.5C 555.649,1129.88 554.316,1131.88 552.5,1133.5C 551.548,1135.05 551.215,1136.71 551.5,1138.5C 550.448,1138.35 549.448,1138.52 548.5,1139C 548.207,1142.09 546.541,1143.59 543.5,1143.5C 543.662,1145.53 543.495,1147.53 543,1149.5C 540.54,1150.76 539.373,1152.76 539.5,1155.5C 538.178,1155.33 537.011,1155.66 536,1156.5C 535.627,1158.7 535.127,1160.86 534.5,1163C 531.749,1166.96 529.416,1171.13 527.5,1175.5C 526.682,1178.11 526.182,1180.77 526,1183.5C 524.989,1184.34 523.822,1184.67 522.5,1184.5C 522.665,1187.85 522.498,1191.18 522,1194.5C 519.082,1198.92 517.749,1203.92 518,1209.5C 517.167,1210.5 516.333,1211.5 515.5,1212.5C 514.167,1237.17 514.167,1261.83 515.5,1286.5C 516.333,1287.5 517.167,1288.5 518,1289.5C 518.333,1293.5 518.667,1297.5 519,1301.5C 520.333,1302.17 521.333,1303.17 522,1304.5C 522.498,1307.82 522.665,1311.15 522.5,1314.5C 523.822,1314.33 524.989,1314.66 526,1315.5C 526.182,1318.23 526.682,1320.89 527.5,1323.5C 529.416,1327.87 531.749,1332.04 534.5,1336C 535.127,1338.14 535.627,1340.3 536,1342.5C 537.011,1343.34 538.178,1343.67 539.5,1343.5C 539.608,1346.38 540.774,1348.72 543,1350.5C 543.494,1352.13 543.66,1353.8 543.5,1355.5C 546.91,1355.38 548.244,1357.05 547.5,1360.5C 548.822,1360.33 549.989,1360.66 551,1361.5C 552.959,1364.66 554.792,1367.99 556.5,1371.5C 558.798,1373.78 561.298,1375.78 564,1377.5C 564.483,1378.45 564.649,1379.45 564.5,1380.5C 567.5,1380.17 568.833,1381.5 568.5,1384.5C 569.552,1384.35 570.552,1384.52 571.5,1385C 572.141,1387.13 573.474,1388.63 575.5,1389.5C 576.452,1391.05 576.785,1392.71 576.5,1394.5C 579.565,1396.16 582.898,1397.49 586.5,1398.5C 590.979,1401.48 594.979,1404.98 598.5,1409C 600.813,1409.66 603.146,1410.16 605.5,1410.5C 605.5,1411.5 605.5,1412.5 605.5,1413.5C 607.854,1413.84 610.187,1414.34 612.5,1415C 613.45,1417.91 615.45,1419.08 618.5,1418.5C 618.33,1419.82 618.663,1420.99 619.5,1422C 622.5,1422.33 625.5,1422.67 628.5,1423C 631.171,1425.69 634.504,1427.19 638.5,1427.5C 638.833,1428.17 639.167,1428.83 639.5,1429.5C 643.122,1430.33 646.789,1430.83 650.5,1431C 651.167,1432.33 652.167,1433.33 653.5,1434C 657.833,1434.33 662.167,1434.67 666.5,1435C 668.618,1435.26 670.284,1436.26 671.5,1438C 691.842,1438.83 712.175,1438.67 732.5,1437.5C 733.025,1436.81 733.692,1436.31 734.5,1436C 740.156,1435.11 745.823,1434.28 751.5,1433.5C 752.09,1432.2 753.09,1431.37 754.5,1431C 759.75,1431.21 764.417,1429.88 768.5,1427C 771.146,1426.5 773.813,1426.34 776.5,1426.5C 776.33,1425.18 776.663,1424.01 777.5,1423C 782.6,1420.78 787.933,1418.95 793.5,1417.5C 793.5,1416.5 793.5,1415.5 793.5,1414.5C 795.854,1414.16 798.187,1413.66 800.5,1413C 802.754,1410.67 805.087,1408.33 807.5,1406C 809.167,1405.67 810.833,1405.33 812.5,1405C 813.45,1402.09 815.45,1400.92 818.5,1401.5C 818.5,1400.17 818.5,1398.83 818.5,1397.5C 819.833,1397.5 821.167,1397.5 822.5,1397.5C 822.5,1396.5 822.5,1395.5 822.5,1394.5C 823.873,1394.66 825.207,1394.49 826.5,1394C 828.5,1391.33 830.5,1388.67 832.5,1386C 836.932,1385.4 839.598,1382.9 840.5,1378.5C 841.325,1377.61 842.325,1377.28 843.5,1377.5C 843.351,1376.45 843.517,1375.45 844,1374.5C 846.056,1373.42 847.389,1371.75 848,1369.5C 849.011,1368.66 850.178,1368.33 851.5,1368.5C 851.5,1367.17 851.5,1365.83 851.5,1364.5C 852.552,1364.65 853.552,1364.48 854.5,1364C 854.953,1361.31 856.453,1359.47 859,1358.5C 859.36,1356.39 860.027,1354.39 861,1352.5C 864.364,1347.65 867.864,1342.98 871.5,1338.5C 872.314,1336.23 872.814,1333.9 873,1331.5C 874,1330.83 875,1330.17 876,1329.5C 875.707,1325.43 877.041,1322.1 880,1319.5C 879.652,1315.11 880.986,1311.45 884,1308.5C 884.333,1305.5 884.667,1302.5 885,1299.5C 885.667,1298.17 886.667,1297.17 888,1296.5C 888.336,1289.47 889.002,1282.47 890,1275.5C 890.308,1274.69 890.808,1274.03 891.5,1273.5C 892.833,1257.5 892.833,1241.5 891.5,1225.5C 890.808,1224.97 890.308,1224.31 890,1223.5C 889.002,1216.53 888.336,1209.53 888,1202.5C 886.667,1201.83 885.667,1200.83 885,1199.5C 884.667,1196.5 884.333,1193.5 884,1190.5C 880.986,1187.55 879.652,1183.89 880,1179.5C 877.041,1176.9 875.707,1173.57 876,1169.5C 875,1168.83 874,1168.17 873,1167.5C 872.814,1165.1 872.314,1162.77 871.5,1160.5C 870.833,1160.17 870.167,1159.83 869.5,1159.5C 867.03,1155.71 865.03,1151.71 863.5,1147.5C 862.5,1147.5 861.5,1147.5 860.5,1147.5C 860.621,1143.56 859.121,1140.56 856,1138.5C 855.888,1135.55 854.388,1134.22 851.5,1134.5C 851.5,1133.17 851.5,1131.83 851.5,1130.5C 850.178,1130.67 849.011,1130.34 848,1129.5C 847.389,1127.25 846.056,1125.58 844,1124.5C 843.517,1123.55 843.351,1122.55 843.5,1121.5C 842.325,1121.72 841.325,1121.39 840.5,1120.5C 839.036,1116.36 836.203,1113.69 832,1112.5C 830.251,1110.25 828.751,1107.91 827.5,1105.5C 824.05,1106.24 822.384,1104.91 822.5,1101.5C 821.167,1101.5 819.833,1101.5 818.5,1101.5C 818.5,1100.17 818.5,1098.83 818.5,1097.5C 817.127,1097.66 815.793,1097.49 814.5,1097C 813.158,1094.11 810.825,1092.78 807.5,1093C 805.087,1090.67 802.754,1088.33 800.5,1086C 798.187,1085.34 795.854,1084.84 793.5,1084.5C 793.5,1083.5 793.5,1082.5 793.5,1081.5C 787.933,1080.05 782.6,1078.22 777.5,1076C 776.663,1074.99 776.33,1073.82 776.5,1072.5C 773.813,1072.66 771.146,1072.5 768.5,1072C 764.417,1069.12 759.75,1067.79 754.5,1068C 753.09,1067.63 752.09,1066.8 751.5,1065.5C 745.823,1064.72 740.156,1063.89 734.5,1063C 733.692,1062.69 733.025,1062.19 732.5,1061.5C 712.178,1060.5 691.844,1060.17 671.5,1060.5 Z M 909.5,1060.5 C 909.539,1061.58 909.873,1062.58 910.5,1063.5C 912.833,1065.5 915.167,1067.5 917.5,1069.5C 918.189,1071.44 918.689,1073.44 919,1075.5C 920.011,1076.34 921.178,1076.67 922.5,1076.5C 922.5,1077.83 922.5,1079.17 922.5,1080.5C 923.833,1080.5 925.167,1080.5 926.5,1080.5C 929.35,1086.14 932.35,1091.8 935.5,1097.5C 936.675,1097.28 937.675,1097.61 938.5,1098.5C 939.189,1100.44 939.689,1102.44 940,1104.5C 942.91,1105.45 944.077,1107.45 943.5,1110.5C 944.5,1110.5 945.5,1110.5 946.5,1110.5C 947.092,1113.13 947.425,1115.79 947.5,1118.5C 948.822,1118.33 949.989,1118.66 951,1119.5C 951.497,1121.81 951.663,1124.14 951.5,1126.5C 952.822,1126.33 953.989,1126.66 955,1127.5C 956.559,1134.03 958.559,1140.36 961,1146.5C 962,1147.17 963,1147.83 964,1148.5C 964.333,1151.83 964.667,1155.17 965,1158.5C 966,1159.17 967,1159.83 968,1160.5C 967.681,1165.44 969.014,1169.77 972,1173.5C 972.499,1178.82 972.666,1184.16 972.5,1189.5C 973.833,1189.5 975.167,1189.5 976.5,1189.5C 976.5,1196.5 976.5,1203.5 976.5,1210.5C 978.124,1210.36 979.29,1211.03 980,1212.5C 982,1237.17 982,1261.83 980,1286.5C 979.29,1287.97 978.124,1288.64 976.5,1288.5C 976.5,1295.5 976.5,1302.5 976.5,1309.5C 975.167,1309.5 973.833,1309.5 972.5,1309.5C 972.666,1314.84 972.499,1320.18 972,1325.5C 969.014,1329.23 967.681,1333.56 968,1338.5C 967,1339.17 966,1339.83 965,1340.5C 964.667,1343.83 964.333,1347.17 964,1350.5C 963,1351.17 962,1351.83 961,1352.5C 958.559,1358.64 956.559,1364.97 955,1371.5C 953.989,1372.34 952.822,1372.67 951.5,1372.5C 951.663,1374.86 951.497,1377.19 951,1379.5C 949.989,1380.34 948.822,1380.67 947.5,1380.5C 947.425,1383.21 947.092,1385.87 946.5,1388.5C 945.5,1388.5 944.5,1388.5 943.5,1388.5C 943.657,1389.87 943.49,1391.21 943,1392.5C 940.371,1394.47 938.871,1397.14 938.5,1400.5C 937.675,1401.39 936.675,1401.72 935.5,1401.5C 932.35,1407.2 929.35,1412.86 926.5,1418.5C 925.167,1418.5 923.833,1418.5 922.5,1418.5C 922.5,1419.83 922.5,1421.17 922.5,1422.5C 921.178,1422.33 920.011,1422.66 919,1423.5C 918.689,1425.56 918.189,1427.56 917.5,1429.5C 914.833,1432.17 912.167,1434.83 909.5,1437.5C 1136.17,1438.5 1362.83,1438.83 1589.5,1438.5C 1589.83,1435.5 1588.5,1434.17 1585.5,1434.5C 1585.83,1431.5 1584.5,1430.17 1581.5,1430.5C 1581.16,1428.15 1580.66,1425.81 1580,1423.5C 1578.99,1422.66 1577.82,1422.33 1576.5,1422.5C 1576.5,1421.17 1576.5,1419.83 1576.5,1418.5C 1575.45,1418.65 1574.45,1418.48 1573.5,1418C 1572.86,1415.87 1571.53,1414.37 1569.5,1413.5C 1567.03,1409.71 1565.03,1405.71 1563.5,1401.5C 1562.5,1401.5 1561.5,1401.5 1560.5,1401.5C 1560.3,1399.04 1559.63,1396.71 1558.5,1394.5C 1554.25,1389.68 1550.75,1384.34 1548,1378.5C 1548.05,1375.43 1546.88,1373.1 1544.5,1371.5C 1542.59,1365.09 1540.42,1358.75 1538,1352.5C 1536.67,1351.83 1535.67,1350.83 1535,1349.5C 1534.67,1346.5 1534.33,1343.5 1534,1340.5C 1533,1339.83 1532,1339.17 1531,1338.5C 1531.32,1333.56 1529.99,1329.23 1527,1325.5C 1526.5,1320.18 1526.33,1314.84 1526.5,1309.5C 1525.18,1309.67 1524.01,1309.34 1523,1308.5C 1522.83,1301.81 1522.33,1295.14 1521.5,1288.5C 1520.2,1287.91 1519.37,1286.91 1519,1285.5C 1517,1261.5 1517,1237.5 1519,1213.5C 1519.37,1212.09 1520.2,1211.09 1521.5,1210.5C 1522.33,1203.86 1522.83,1197.19 1523,1190.5C 1524.01,1189.66 1525.18,1189.33 1526.5,1189.5C 1526.33,1184.16 1526.5,1178.82 1527,1173.5C 1529.99,1169.77 1531.32,1165.44 1531,1160.5C 1532,1159.83 1533,1159.17 1534,1158.5C 1534.33,1155.5 1534.67,1152.5 1535,1149.5C 1535.67,1148.17 1536.67,1147.17 1538,1146.5C 1541.5,1137.73 1544.84,1129.07 1548,1120.5C 1548.69,1119.64 1549.52,1118.98 1550.5,1118.5C 1551.56,1114.05 1553.39,1110.05 1556,1106.5C 1559.12,1104.44 1560.62,1101.44 1560.5,1097.5C 1561.5,1097.5 1562.5,1097.5 1563.5,1097.5C 1563.35,1096.45 1563.52,1095.45 1564,1094.5C 1566.67,1092.02 1568.17,1089.02 1568.5,1085.5C 1569.55,1085.65 1570.55,1085.48 1571.5,1085C 1571.79,1081.91 1573.46,1080.41 1576.5,1080.5C 1576.5,1079.17 1576.5,1077.83 1576.5,1076.5C 1577.82,1076.67 1578.99,1076.34 1580,1075.5C 1580.66,1073.19 1581.16,1070.85 1581.5,1068.5C 1584.5,1068.83 1585.83,1067.5 1585.5,1064.5C 1588.5,1064.83 1589.83,1063.5 1589.5,1060.5C 1362.83,1060.5 1136.17,1060.5 909.5,1060.5 Z M 1766.5,1060.5 C 1766.42,1061.75 1765.76,1062.58 1764.5,1063C 1758.84,1063.89 1753.18,1064.72 1747.5,1065.5C 1746.91,1066.8 1745.91,1067.63 1744.5,1068C 1741.17,1068.33 1737.83,1068.67 1734.5,1069C 1731.14,1072.1 1727.14,1073.26 1722.5,1072.5C 1722.5,1073.83 1722.5,1075.17 1722.5,1076.5C 1719.75,1076.19 1717.09,1076.52 1714.5,1077.5C 1712.28,1080.3 1709.28,1081.63 1705.5,1081.5C 1705.5,1082.5 1705.5,1083.5 1705.5,1084.5C 1703.15,1084.84 1700.81,1085.34 1698.5,1086C 1696.25,1088.33 1693.91,1090.67 1691.5,1093C 1689.83,1093.33 1688.17,1093.67 1686.5,1094C 1685.55,1096.91 1683.55,1098.08 1680.5,1097.5C 1680.5,1098.83 1680.5,1100.17 1680.5,1101.5C 1679.17,1101.5 1677.83,1101.5 1676.5,1101.5C 1676.78,1104.39 1675.45,1105.89 1672.5,1106C 1669.31,1110.86 1665.14,1114.69 1660,1117.5C 1659.67,1118.5 1659.33,1119.5 1659,1120.5C 1656.1,1123.61 1653.26,1126.77 1650.5,1130C 1649.55,1130.48 1648.55,1130.65 1647.5,1130.5C 1647.76,1131.98 1647.43,1133.31 1646.5,1134.5C 1644.41,1136.59 1642.25,1138.59 1640,1140.5C 1639.69,1142.56 1639.19,1144.56 1638.5,1146.5C 1637.68,1147.39 1636.68,1147.72 1635.5,1147.5C 1634.35,1151.82 1632.52,1155.82 1630,1159.5C 1629,1160.17 1628,1160.83 1627,1161.5C 1627.32,1165.14 1625.98,1167.8 1623,1169.5C 1621.2,1175.85 1619.54,1182.19 1618,1188.5C 1617,1189.17 1616,1189.83 1615,1190.5C 1614.67,1193.83 1614.33,1197.17 1614,1200.5C 1613,1201.17 1612,1201.83 1611,1202.5C 1610.71,1208.85 1610.21,1215.19 1609.5,1221.5C 1609.69,1223.69 1608.86,1225.35 1607,1226.5C 1606.33,1241.83 1606.33,1257.17 1607,1272.5C 1607.67,1273.17 1608.33,1273.83 1609,1274.5C 1610.08,1281.79 1610.75,1289.12 1611,1296.5C 1612,1297.17 1613,1297.83 1614,1298.5C 1614.33,1301.83 1614.67,1305.17 1615,1308.5C 1616,1309.17 1617,1309.83 1618,1310.5C 1619.54,1316.81 1621.2,1323.15 1623,1329.5C 1624,1330.17 1625,1330.83 1626,1331.5C 1625.68,1335.14 1627.02,1337.8 1630,1339.5C 1632.52,1343.18 1634.35,1347.18 1635.5,1351.5C 1636.68,1351.28 1637.68,1351.61 1638.5,1352.5C 1639.19,1354.44 1639.69,1356.44 1640,1358.5C 1642.25,1360.41 1644.41,1362.41 1646.5,1364.5C 1647.43,1365.69 1647.76,1367.02 1647.5,1368.5C 1648.82,1368.33 1649.99,1368.66 1651,1369.5C 1654.18,1373.42 1657.18,1377.42 1660,1381.5C 1661.68,1383.71 1663.85,1385.21 1666.5,1386C 1668.75,1388.29 1670.75,1390.79 1672.5,1393.5C 1673.69,1394.43 1675.02,1394.76 1676.5,1394.5C 1676.5,1395.5 1676.5,1396.5 1676.5,1397.5C 1677.83,1397.5 1679.17,1397.5 1680.5,1397.5C 1680.5,1398.83 1680.5,1400.17 1680.5,1401.5C 1681.87,1401.34 1683.21,1401.51 1684.5,1402C 1685.84,1404.89 1688.18,1406.22 1691.5,1406C 1693.91,1408.33 1696.25,1410.67 1698.5,1413C 1700.81,1413.66 1703.15,1414.16 1705.5,1414.5C 1705.5,1415.5 1705.5,1416.5 1705.5,1417.5C 1711.07,1418.95 1716.4,1420.78 1721.5,1423C 1722.34,1424.01 1722.67,1425.18 1722.5,1426.5C 1725.19,1426.34 1727.85,1426.5 1730.5,1427C 1734.57,1430.03 1739.24,1431.36 1744.5,1431C 1745.91,1431.37 1746.91,1432.2 1747.5,1433.5C 1753.18,1434.28 1758.84,1435.11 1764.5,1436C 1765.31,1436.31 1765.97,1436.81 1766.5,1437.5C 1786.83,1438.67 1807.16,1438.83 1827.5,1438C 1828.72,1436.26 1830.38,1435.26 1832.5,1435C 1837.17,1434.67 1841.83,1434.33 1846.5,1434C 1847.17,1433 1847.83,1432 1848.5,1431C 1852.17,1430.67 1855.83,1430.33 1859.5,1430C 1860.34,1428.99 1860.67,1427.82 1860.5,1426.5C 1864.59,1427.15 1867.92,1425.99 1870.5,1423C 1873.5,1422.67 1876.5,1422.33 1879.5,1422C 1880.34,1420.99 1880.67,1419.82 1880.5,1418.5C 1881.87,1418.66 1883.21,1418.49 1884.5,1418C 1886.56,1414.88 1889.56,1413.38 1893.5,1413.5C 1893.5,1412.5 1893.5,1411.5 1893.5,1410.5C 1895.85,1410.16 1898.19,1409.66 1900.5,1409C 1904.04,1404.79 1908.21,1401.29 1913,1398.5C 1914.77,1397.77 1916.6,1397.43 1918.5,1397.5C 1918.5,1396.5 1918.5,1395.5 1918.5,1394.5C 1919.83,1394.5 1921.17,1394.5 1922.5,1394.5C 1922.21,1392.71 1922.55,1391.05 1923.5,1389.5C 1925.53,1388.63 1926.86,1387.13 1927.5,1385C 1928.45,1384.52 1929.45,1384.35 1930.5,1384.5C 1930.17,1381.5 1931.5,1380.17 1934.5,1380.5C 1934.33,1379.18 1934.66,1378.01 1935.5,1377C 1937.52,1376.6 1938.85,1375.43 1939.5,1373.5C 1940.69,1372.57 1942.02,1372.24 1943.5,1372.5C 1945.59,1369.19 1947.09,1365.52 1948,1361.5C 1949.01,1360.66 1950.18,1360.33 1951.5,1360.5C 1950.76,1357.05 1952.09,1355.38 1955.5,1355.5C 1955.53,1350.88 1957.2,1347.05 1960.5,1344C 1961.45,1343.52 1962.45,1343.35 1963.5,1343.5C 1963,1339.14 1964.5,1335.81 1968,1333.5C 1968.5,1331.19 1968.66,1328.86 1968.5,1326.5C 1970.12,1326.64 1971.29,1325.97 1972,1324.5C 1972.26,1321.44 1972.76,1318.44 1973.5,1315.5C 1974.32,1314.61 1975.32,1314.28 1976.5,1314.5C 1976.39,1310.45 1976.73,1306.45 1977.5,1302.5C 1978.5,1302.5 1979.5,1302.5 1980.5,1302.5C 1980.33,1298.49 1980.5,1294.49 1981,1290.5C 1981.62,1288.88 1982.62,1287.55 1984,1286.5C 1986,1261.83 1986,1237.17 1984,1212.5C 1982.62,1211.45 1981.62,1210.12 1981,1208.5C 1980.67,1204.83 1980.33,1201.17 1980,1197.5C 1978.42,1196.62 1977.42,1195.29 1977,1193.5C 1976.5,1190.52 1976.34,1187.52 1976.5,1184.5C 1975.18,1184.67 1974.01,1184.34 1973,1183.5C 1972.67,1180.5 1972.33,1177.5 1972,1174.5C 1971.29,1173.03 1970.12,1172.36 1968.5,1172.5C 1968.66,1170.47 1968.5,1168.47 1968,1166.5C 1964.63,1164.08 1962.96,1160.75 1963,1156.5C 1958.27,1153.52 1955.77,1149.19 1955.5,1143.5C 1952.09,1143.62 1950.76,1141.95 1951.5,1138.5C 1950.18,1138.67 1949.01,1138.34 1948,1137.5C 1947.09,1133.48 1945.59,1129.81 1943.5,1126.5C 1942.02,1126.76 1940.69,1126.43 1939.5,1125.5C 1938.85,1123.57 1937.52,1122.4 1935.5,1122C 1934.66,1120.99 1934.33,1119.82 1934.5,1118.5C 1931.5,1118.83 1930.17,1117.5 1930.5,1114.5C 1929.45,1114.65 1928.45,1114.48 1927.5,1114C 1925.5,1111.33 1923.5,1108.67 1921.5,1106C 1920.55,1105.52 1919.55,1105.35 1918.5,1105.5C 1918.5,1104.17 1918.5,1102.83 1918.5,1101.5C 1916.41,1101.68 1914.41,1101.35 1912.5,1100.5C 1908.02,1097.52 1904.02,1094.02 1900.5,1090C 1898.19,1089.34 1895.85,1088.84 1893.5,1088.5C 1893.5,1087.5 1893.5,1086.5 1893.5,1085.5C 1891.15,1085.16 1888.81,1084.66 1886.5,1084C 1885.55,1081.09 1883.55,1079.92 1880.5,1080.5C 1880.67,1079.18 1880.34,1078.01 1879.5,1077C 1876.5,1076.67 1873.5,1076.33 1870.5,1076C 1867.83,1073.31 1864.5,1071.81 1860.5,1071.5C 1860.17,1070.83 1859.83,1070.17 1859.5,1069.5C 1855.88,1068.67 1852.21,1068.17 1848.5,1068C 1846.88,1067.38 1845.55,1066.38 1844.5,1065C 1840.5,1064.67 1836.5,1064.33 1832.5,1064C 1830.38,1063.74 1828.72,1062.74 1827.5,1061C 1807.17,1060.5 1786.84,1060.33 1766.5,1060.5 Z"/></g>
</svg>
