<?xml version="1.0" encoding="UTF-8"?>
<!DOCTYPE svg PUBLIC "-//W3C//DTD SVG 1.1//EN" "http://www.w3.org/Graphics/SVG/1.1/DTD/svg11.dtd">
<svg xmlns="http://www.w3.org/2000/svg" version="1.1" width="2133px" height="2133px" style="shape-rendering:geometricPrecision; text-rendering:geometricPrecision; image-rendering:optimizeQuality; fill-rule:evenodd; clip-rule:evenodd" xmlns:xlink="http://www.w3.org/1999/xlink">
<g><path style="opacity:0.993" fill="#fefffe" d="M 1018.5,-0.5 C 1050.17,-0.5 1081.83,-0.5 1113.5,-0.5C 1405.41,16.7291 1651.24,131.062 1851,342.5C 2024.53,533.755 2118.37,759.088 2132.5,1018.5C 2132.5,1050.17 2132.5,1081.83 2132.5,1113.5C 2115.27,1405.41 2000.94,1651.24 1789.5,1851C 1598.25,2024.53 1372.91,2118.37 1113.5,2132.5C 1081.83,2132.5 1050.17,2132.5 1018.5,2132.5C 726.59,2115.27 480.757,2000.94 281,1789.5C 107.467,1598.25 13.6333,1372.91 -0.5,1113.5C -0.5,1081.83 -0.5,1050.17 -0.5,1018.5C 16.7291,726.59 131.062,480.757 342.5,281C 533.755,107.467 759.088,13.6333 1018.5,-0.5 Z M 1034.5,125.5 C 1311.15,121.647 1546.65,216.981 1741,411.5C 1927.95,609.606 2015.95,845.606 2005,1119.5C 1987.76,1363.08 1892.93,1570.25 1720.5,1741C 1522.39,1927.95 1286.39,2015.95 1012.5,2005C 768.917,1987.76 561.751,1892.93 391,1720.5C 204.049,1522.39 116.049,1286.39 127,1012.5C 144.237,768.917 239.07,561.751 411.5,391C 585.747,225.916 793.413,137.416 1034.5,125.5 Z"/></g>
</svg>
