<?xml version="1.0" encoding="UTF-8"?>
<!DOCTYPE svg PUBLIC "-//W3C//DTD SVG 1.1//EN" "http://www.w3.org/Graphics/SVG/1.1/DTD/svg11.dtd">
<svg xmlns="http://www.w3.org/2000/svg" version="1.1" width="512px" height="512px" style="shape-rendering:geometricPrecision; text-rendering:geometricPrecision; image-rendering:optimizeQuality; fill-rule:evenodd; clip-rule:evenodd" xmlns:xlink="http://www.w3.org/1999/xlink">
<g><path style="opacity:0.956" fill="#fefffe" d="M 131.5,68.5 C 214.167,68.3333 296.834,68.5 379.5,69C 395.227,73.3927 404.727,83.5594 408,99.5C 408.5,138.499 408.667,177.499 408.5,216.5C 416.174,216.334 423.841,216.5 431.5,217C 436.333,219.167 439.833,222.667 442,227.5C 442.667,247.5 442.667,267.5 442,287.5C 439.744,292.757 435.91,296.257 430.5,298C 423.174,298.5 415.841,298.666 408.5,298.5C 408.667,336.168 408.5,373.835 408,411.5C 404.617,427.883 394.784,438.05 378.5,442C 296.5,442.667 214.5,442.667 132.5,442C 116.216,438.05 106.383,427.883 103,411.5C 102.5,373.835 102.333,336.168 102.5,298.5C 95.1591,298.666 87.8258,298.5 80.5,298C 75.0896,296.257 71.2563,292.757 69,287.5C 68.3333,267.5 68.3333,247.5 69,227.5C 71.1667,222.667 74.6667,219.167 79.5,217C 87.1594,216.5 94.8261,216.334 102.5,216.5C 102.333,177.499 102.5,138.499 103,99.5C 106.46,83.5431 115.96,73.2097 131.5,68.5 Z M 140.5,82.5 C 217.167,82.3333 293.834,82.5 370.5,83C 382.224,84.0594 389.724,90.226 393,101.5C 393.667,204.167 393.667,306.833 393,409.5C 389.724,420.774 382.224,426.941 370.5,428C 293.833,428.667 217.167,428.667 140.5,428C 128.776,426.941 121.276,420.774 118,409.5C 117.333,306.833 117.333,204.167 118,101.5C 121.441,90.2162 128.941,83.8829 140.5,82.5 Z M 170.5,114.5 C 174.064,114.151 177.398,114.817 180.5,116.5C 175.815,121.351 171.315,126.351 167,131.5C 166.051,139.55 169.551,142.717 177.5,141C 182.634,136.867 187.468,132.367 192,127.5C 195.498,139.689 191.331,148.189 179.5,153C 162.996,154.494 154.829,146.994 155,130.5C 155.704,126.375 157.537,122.875 160.5,120C 163.767,117.87 167.1,116.037 170.5,114.5 Z M 331.5,116.5 C 332.328,122.987 332.828,129.654 333,136.5C 335.072,141.143 338.572,142.643 343.5,141C 345.333,140.5 346.5,139.333 347,137.5C 347.169,130.476 347.669,123.476 348.5,116.5C 360.568,124.663 362.734,134.997 355,147.5C 346.77,154.4 337.937,155.233 328.5,150C 317.134,137.727 318.134,126.561 331.5,116.5 Z M 250.5,151.5 C 260.598,150.549 268.265,154.382 273.5,163C 266.5,163.333 259.5,163.667 252.5,164C 248.788,166.513 247.622,170.013 249,174.5C 249.5,176.333 250.667,177.5 252.5,178C 259.5,178.333 266.5,178.667 273.5,179C 262.937,193.36 251.437,194.193 239,181.5C 233.074,167.694 236.907,157.694 250.5,151.5 Z M 83.5,231.5 C 89.8333,231.5 96.1667,231.5 102.5,231.5C 102.5,248.833 102.5,266.167 102.5,283.5C 96.4908,283.666 90.4908,283.499 84.5,283C 83.8742,282.25 83.3742,281.416 83,280.5C 82.2111,264.135 82.3778,247.802 83.5,231.5 Z M 159.5,231.5 C 223.501,231.333 287.501,231.5 351.5,232C 355,233.5 357.5,236 359,239.5C 359.667,288.167 359.667,336.833 359,385.5C 356.467,390.694 352.3,393.528 346.5,394C 285.833,394.667 225.167,394.667 164.5,394C 158.7,393.528 154.533,390.694 152,385.5C 151.333,336.833 151.333,288.167 152,239.5C 153.69,235.979 156.19,233.312 159.5,231.5 Z M 408.5,231.5 C 414.833,231.5 421.167,231.5 427.5,231.5C 428.622,247.802 428.789,264.135 428,280.5C 427.626,281.416 427.126,282.25 426.5,283C 420.509,283.499 414.509,283.666 408.5,283.5C 408.5,266.167 408.5,248.833 408.5,231.5 Z"/></g>
<g><path style="opacity:0.92" fill="#fefffe" d="M 168.5,99.5 C 197.13,99.6303 210.297,113.964 208,142.5C 201.328,162.484 187.495,170.984 166.5,168C 144.988,160.827 136.488,145.993 141,123.5C 146.045,110.613 155.211,102.613 168.5,99.5 Z M 170.5,114.5 C 167.1,116.037 163.767,117.87 160.5,120C 157.537,122.875 155.704,126.375 155,130.5C 154.829,146.994 162.996,154.494 179.5,153C 191.331,148.189 195.498,139.689 192,127.5C 187.468,132.367 182.634,136.867 177.5,141C 169.551,142.717 166.051,139.55 167,131.5C 171.315,126.351 175.815,121.351 180.5,116.5C 177.398,114.817 174.064,114.151 170.5,114.5 Z"/></g>
<g><path style="opacity:0.922" fill="#fefffe" d="M 334.5,99.5 C 363.172,99.6702 376.339,114.004 374,142.5C 367.328,162.484 353.495,170.984 332.5,168C 313.449,162.271 304.615,149.437 306,129.5C 309.259,113.411 318.759,103.411 334.5,99.5 Z M 331.5,116.5 C 318.134,126.561 317.134,137.727 328.5,150C 337.937,155.233 346.77,154.4 355,147.5C 362.734,134.997 360.568,124.663 348.5,116.5C 347.669,123.476 347.169,130.476 347,137.5C 346.5,139.333 345.333,140.5 343.5,141C 338.572,142.643 335.072,141.143 333,136.5C 332.828,129.654 332.328,122.987 331.5,116.5 Z"/></g>
<g><path style="opacity:0.921" fill="#fefffe" d="M 248.5,136.5 C 273.19,135.025 287.19,146.525 290.5,171C 287.214,195.623 273.214,206.957 248.5,205C 227.049,198.276 218.216,183.776 222,161.5C 226.548,148.448 235.381,140.114 248.5,136.5 Z M 250.5,151.5 C 236.907,157.694 233.074,167.694 239,181.5C 251.437,194.193 262.937,193.36 273.5,179C 266.5,178.667 259.5,178.333 252.5,178C 250.667,177.5 249.5,176.333 249,174.5C 247.622,170.013 248.788,166.513 252.5,164C 259.5,163.667 266.5,163.333 273.5,163C 268.265,154.382 260.598,150.549 250.5,151.5 Z"/></g>
<g><path style="opacity:0.947" fill="#fefffe" d="M 156.5,216.5 C 222.501,216.333 288.501,216.5 354.5,217C 364.333,220.167 370.833,226.667 374,236.5C 374.667,287.167 374.667,337.833 374,388.5C 370.833,398.333 364.333,404.833 354.5,408C 288.5,408.667 222.5,408.667 156.5,408C 146.667,404.833 140.167,398.333 137,388.5C 136.333,337.833 136.333,287.167 137,236.5C 140.351,226.65 146.851,219.983 156.5,216.5 Z M 159.5,231.5 C 156.19,233.312 153.69,235.979 152,239.5C 151.333,288.167 151.333,336.833 152,385.5C 154.533,390.694 158.7,393.528 164.5,394C 225.167,394.667 285.833,394.667 346.5,394C 352.3,393.528 356.467,390.694 359,385.5C 359.667,336.833 359.667,288.167 359,239.5C 357.5,236 355,233.5 351.5,232C 287.501,231.5 223.501,231.333 159.5,231.5 Z"/></g>
<g><path style="opacity:0.926" fill="#fefffe" d="M 184.5,248.5 C 187.187,248.336 189.854,248.503 192.5,249C 194.259,250.008 195.426,251.508 196,253.5C 196.667,292.833 196.667,332.167 196,371.5C 192.059,378.168 187.393,378.835 182,373.5C 181.333,332.833 181.333,292.167 182,251.5C 183.045,250.627 183.878,249.627 184.5,248.5 Z"/></g>
<g><path style="opacity:0.927" fill="#fefffe" d="M 229.5,248.5 C 232.187,248.336 234.854,248.503 237.5,249C 238.701,249.903 239.535,251.069 240,252.5C 240.667,292.5 240.667,332.5 240,372.5C 237.017,377.037 233.183,378.037 228.5,375.5C 227.416,374.335 226.583,373.002 226,371.5C 225.333,332.167 225.333,292.833 226,253.5C 226.697,251.416 227.864,249.749 229.5,248.5 Z"/></g>
<g><path style="opacity:0.927" fill="#fefffe" d="M 273.5,248.5 C 276.187,248.336 278.854,248.503 281.5,249C 283.259,250.008 284.426,251.508 285,253.5C 285.667,292.833 285.667,332.167 285,371.5C 281.059,378.168 276.393,378.835 271,373.5C 270.333,333.167 270.333,292.833 271,252.5C 271.662,251.016 272.496,249.683 273.5,248.5 Z"/></g>
<g><path style="opacity:0.926" fill="#fefffe" d="M 318.5,248.5 C 322.603,247.769 326.103,248.769 329,251.5C 329.667,292.167 329.667,332.833 329,373.5C 323.607,378.835 318.941,378.168 315,371.5C 314.333,332.167 314.333,292.833 315,253.5C 315.697,251.416 316.864,249.749 318.5,248.5 Z"/></g>
</svg>
