<?xml version="1.0" encoding="UTF-8"?>
<!DOCTYPE svg PUBLIC "-//W3C//DTD SVG 1.1//EN" "http://www.w3.org/Graphics/SVG/1.1/DTD/svg11.dtd">
<svg xmlns="http://www.w3.org/2000/svg" version="1.1" width="512px" height="512px" style="shape-rendering:geometricPrecision; text-rendering:geometricPrecision; image-rendering:optimizeQuality; fill-rule:evenodd; clip-rule:evenodd" xmlns:xlink="http://www.w3.org/1999/xlink">
<g><path style="opacity:0.963" fill="#fefffe" d="M 234.5,-0.5 C 248.5,-0.5 262.5,-0.5 276.5,-0.5C 358.837,10.6772 418.004,53.6772 454,128.5C 463.429,150.215 469.096,172.882 471,196.5C 471.667,286.167 471.667,375.833 471,465.5C 465.769,490.23 450.936,505.563 426.5,511.5C 419.5,511.5 412.5,511.5 405.5,511.5C 384.922,506.093 370.755,493.426 363,473.5C 361.553,464.103 359.886,454.769 358,445.5C 350.252,433.046 339.419,429.213 325.5,434C 318.446,437.389 313.946,442.889 312,450.5C 311.34,481.955 296.173,502.288 266.5,511.5C 259.167,511.5 251.833,511.5 244.5,511.5C 214.827,502.288 199.66,481.955 199,450.5C 195.371,438.681 187.371,432.348 175,431.5C 162.405,432.78 154.405,439.447 151,451.5C 150.492,482.93 135.326,502.93 105.5,511.5C 98.5,511.5 91.5,511.5 84.5,511.5C 60.0683,505.567 45.2349,490.233 40,465.5C 39.3333,375.833 39.3333,286.167 40,196.5C 48.0467,125.191 81.88,70.0245 141.5,31C 170.339,13.8799 201.339,3.37987 234.5,-0.5 Z M 254.5,29.5 C 336.603,33.4778 394.437,72.8111 428,147.5C 434.362,163.946 438.362,180.946 440,198.5C 440.667,286.5 440.667,374.5 440,462.5C 434.586,476.787 424.419,482.62 409.5,480C 400.157,476.656 394.323,470.156 392,460.5C 390.543,424.378 371.877,404.378 336,400.5C 310.237,401.936 292.57,414.603 283,438.5C 281.547,448.636 279.547,458.636 277,468.5C 267.093,481.538 254.927,484.038 240.5,476C 232.404,467.933 228.904,458.1 230,446.5C 220.37,412.262 197.87,397.429 162.5,402C 142.239,407.263 128.739,419.763 122,439.5C 120.283,447.776 118.95,456.109 118,464.5C 108.37,481.792 95.2038,485.292 78.5,475C 75.9426,472.108 73.776,468.941 72,465.5C 70.3411,376.557 70.0078,287.557 71,198.5C 78.4469,135.731 108.947,87.8981 162.5,55C 191.181,38.8212 221.848,30.3212 254.5,29.5 Z M 171.5,198.5 C 193.055,199.949 201.888,211.282 198,232.5C 193.377,242.111 185.71,247.444 175,248.5C 154.891,244.279 147.558,232.279 153,212.5C 157.321,205.339 163.488,200.673 171.5,198.5 Z M 332.5,198.5 C 349.038,198.582 358.372,206.749 360.5,223C 357.363,243.174 346.03,250.841 326.5,246C 313.396,239.283 308.896,228.783 313,214.5C 316.791,205.709 323.291,200.376 332.5,198.5 Z"/></g>
<g><path style="opacity:0.962" fill="#fefffe" d="M 169.5,167.5 C 192.609,166.304 210.443,175.304 223,194.5C 236.184,221.165 232.35,244.998 211.5,266C 193.037,279.521 173.037,282.187 151.5,274C 124.917,258.987 115.084,236.487 122,206.5C 130.425,184.383 146.258,171.383 169.5,167.5 Z M 171.5,198.5 C 163.488,200.673 157.321,205.339 153,212.5C 147.558,232.279 154.891,244.279 175,248.5C 185.71,247.444 193.377,242.111 198,232.5C 201.888,211.282 193.055,199.949 171.5,198.5 Z"/></g>
<g><path style="opacity:0.962" fill="#fefffe" d="M 329.5,167.5 C 357.228,166.435 376.728,178.435 388,203.5C 396.295,232.379 388.128,255.213 363.5,272C 349.789,278.593 335.456,280.259 320.5,277C 298.488,269.99 285.322,255.157 281,232.5C 278.772,196.909 294.939,175.242 329.5,167.5 Z M 332.5,198.5 C 323.291,200.376 316.791,205.709 313,214.5C 308.896,228.783 313.396,239.283 326.5,246C 346.03,250.841 357.363,243.174 360.5,223C 358.372,206.749 349.038,198.582 332.5,198.5 Z"/></g>
</svg>
