<?xml version="1.0" encoding="UTF-8"?>
<!DOCTYPE svg PUBLIC "-//W3C//DTD SVG 1.1//EN" "http://www.w3.org/Graphics/SVG/1.1/DTD/svg11.dtd">
<svg xmlns="http://www.w3.org/2000/svg" version="1.1" width="512px" height="512px" style="shape-rendering:geometricPrecision; text-rendering:geometricPrecision; image-rendering:optimizeQuality; fill-rule:evenodd; clip-rule:evenodd" xmlns:xlink="http://www.w3.org/1999/xlink">
<g><path style="opacity:0.973" fill="#fefffe" d="M 141.5,41.5 C 185.494,40.3977 218.994,58.3977 242,95.5C 255.56,120.419 259.226,146.752 253,174.5C 239.897,219.937 210.063,246.77 163.5,255C 105.451,258.908 66.2846,233.742 46,179.5C 34.9298,134.053 46.7632,95.8866 81.5,65C 99.2823,51.3532 119.282,43.5199 141.5,41.5 Z M 139.5,85.5 C 176.898,83.761 200.732,100.761 211,136.5C 215.334,167.665 203.834,190.832 176.5,206C 143.295,218.743 116.129,210.91 95,182.5C 77.9125,148.599 84.0791,119.766 113.5,96C 121.695,91.0604 130.361,87.5604 139.5,85.5 Z"/></g>
<g><path style="opacity:0.946" fill="#fefffe" d="M 313.5,84.5 C 335.943,84.1059 344.443,94.7726 339,116.5C 330.41,128.21 319.577,130.71 306.5,124C 296.45,114.772 294.95,104.272 302,92.5C 305.482,89.1608 309.315,86.4942 313.5,84.5 Z"/></g>
<g><path style="opacity:0.973" fill="#fefffe" d="M 393.5,127.5 C 432.339,124.318 457.172,141.318 468,178.5C 472.63,216.179 457.13,241.346 421.5,254C 387.572,260.282 362.406,248.448 346,218.5C 333.616,184.328 342.116,156.828 371.5,136C 378.607,132.248 385.94,129.415 393.5,127.5 Z M 401.5,170.5 C 422.596,172.698 429.43,183.698 422,203.5C 410.653,215.497 399.319,215.497 388,203.5C 380.899,187.707 385.399,176.707 401.5,170.5 Z"/></g>
<g><path style="opacity:0.946" fill="#fefffe" d="M 121.5,276.5 C 143.943,276.106 152.443,286.773 147,308.5C 138.41,320.21 127.577,322.71 114.5,316C 104.45,306.772 102.95,296.272 110,284.5C 113.482,281.161 117.315,278.494 121.5,276.5 Z"/></g>
<g><path style="opacity:0.972" fill="#fefffe" d="M 248.5,297.5 C 296.245,297.433 326.578,320.266 339.5,366C 345.664,410.677 328.664,443.011 288.5,463C 250.566,476.141 217.733,468.307 190,439.5C 163.107,402.755 162.773,365.755 189,328.5C 204.968,310.601 224.801,300.267 248.5,297.5 Z M 248.5,341.5 C 274.099,340.285 290.266,351.951 297,376.5C 298.699,402.124 287.199,418.291 262.5,425C 236.876,426.699 220.709,415.199 214,390.5C 212.503,364.854 224.003,348.521 248.5,341.5 Z"/></g>
<g><path style="opacity:0.949" fill="#fefffe" d="M 397.5,319.5 C 419.726,317.647 428.892,327.647 425,349.5C 418.717,361.153 409.217,364.986 396.5,361C 385.047,355.358 380.881,346.191 384,333.5C 386.687,326.981 391.187,322.314 397.5,319.5 Z"/></g>
</svg>
