<?xml version="1.0" encoding="UTF-8"?>
<!DOCTYPE svg PUBLIC "-//W3C//DTD SVG 1.1//EN" "http://www.w3.org/Graphics/SVG/1.1/DTD/svg11.dtd">
<svg xmlns="http://www.w3.org/2000/svg" version="1.1" width="200px" height="200px" style="shape-rendering:geometricPrecision; text-rendering:geometricPrecision; image-rendering:optimizeQuality; fill-rule:evenodd; clip-rule:evenodd" xmlns:xlink="http://www.w3.org/1999/xlink">
<g><path style="opacity:0.947" fill="#fefffe" d="M 86.5,-0.5 C 95.1667,-0.5 103.833,-0.5 112.5,-0.5C 153.534,9.53991 177.201,35.5399 183.5,77.5C 184.833,64.8333 184.833,52.1667 183.5,39.5C 177.537,36.2334 175.37,31.2334 177,24.5C 181.128,17.5114 186.961,15.6781 194.5,19C 196.402,20.7297 198.069,22.563 199.5,24.5C 199.5,27.1667 199.5,29.8333 199.5,32.5C 198.217,35.7833 195.884,38.1166 192.5,39.5C 191.501,52.1492 191.168,64.8158 191.5,77.5C 192.873,77.3433 194.207,77.51 195.5,78C 196.705,79.3756 198.038,80.5423 199.5,81.5C 199.5,95.5 199.5,109.5 199.5,123.5C 198.354,125.475 196.687,126.975 194.5,128C 190.459,128.173 186.459,128.673 182.5,129.5C 177.816,149.359 165.816,162.859 146.5,170C 110.286,182.778 74.9522,180.778 40.5,164C 27.1807,156.193 19.1807,144.693 16.5,129.5C 12.5408,128.673 8.54078,128.173 4.5,128C 2.31305,126.975 0.646381,125.475 -0.5,123.5C -0.5,109.5 -0.5,95.5 -0.5,81.5C 0.961599,80.5423 2.29493,79.3756 3.5,78C 7.8711,77.8275 12.2044,77.3275 16.5,76.5C 22.4618,34.8781 45.7951,9.21141 86.5,-0.5 Z M 92.5,8.5 C 93.4942,18.6532 93.8276,28.9865 93.5,39.5C 91.8333,39.5 90.1667,39.5 88.5,39.5C 88.819,29.5837 88.4856,19.7504 87.5,10C 89.3817,9.80192 91.0484,9.30192 92.5,8.5 Z M 105.5,8.5 C 107.414,9.18475 109.414,9.68475 111.5,10C 110.514,19.7504 110.181,29.5837 110.5,39.5C 108.833,39.5 107.167,39.5 105.5,39.5C 105.5,29.1667 105.5,18.8333 105.5,8.5 Z M 88.5,49.5 C 121.574,46.9073 149.408,57.574 172,81.5C 176.875,106.949 166.542,121.616 141,125.5C 140.07,123.448 138.57,121.948 136.5,121C 130.833,120.333 125.167,120.333 119.5,121C 114.847,123.942 113.347,128.109 115,133.5C 116.543,135.378 118.376,136.878 120.5,138C 125.5,138.667 130.5,138.667 135.5,138C 137.455,137.047 139.122,135.713 140.5,134C 152.791,133.573 163.291,129.073 172,120.5C 172.942,126.744 172.109,132.744 169.5,138.5C 122.833,157.167 76.1667,157.167 29.5,138.5C 28.3657,135.93 27.5323,133.264 27,130.5C 26.3333,114.167 26.3333,97.8333 27,81.5C 43.6162,63.276 64.1162,52.6093 88.5,49.5 Z"/></g>
<g><path style="opacity:0.932" fill="#fefffe" d="M 116.5,199.5 C 105.167,199.5 93.8333,199.5 82.5,199.5C 65.4982,196.611 49.1649,191.278 33.5,183.5C 32.479,182.998 32.3123,182.332 33,181.5C 36.1667,177.167 39.3333,172.833 42.5,168.5C 60.351,177.539 79.351,181.872 99.5,181.5C 119.637,181.874 138.637,177.541 156.5,168.5C 159.667,172.833 162.833,177.167 166,181.5C 166.688,182.332 166.521,182.998 165.5,183.5C 149.838,191.277 133.504,196.61 116.5,199.5 Z"/></g>
</svg>
