<?xml version="1.0" encoding="UTF-8"?>
<!DOCTYPE svg PUBLIC "-//W3C//DTD SVG 1.1//EN" "http://www.w3.org/Graphics/SVG/1.1/DTD/svg11.dtd">
<svg xmlns="http://www.w3.org/2000/svg" version="1.1" width="2133px" height="2133px" style="shape-rendering:geometricPrecision; text-rendering:geometricPrecision; image-rendering:optimizeQuality; fill-rule:evenodd; clip-rule:evenodd" xmlns:xlink="http://www.w3.org/1999/xlink">
<g><path style="opacity:0.852" fill="#fefffe" d="M 817.5,-0.5 C 833.167,-0.5 848.833,-0.5 864.5,-0.5C 866.305,1.19686 868.639,2.03019 871.5,2C 872.337,3.01127 872.67,4.17793 872.5,5.5C 874.857,5.33669 877.19,5.50335 879.5,6C 880.337,7.01127 880.67,8.17793 880.5,9.5C 883.541,9.40564 885.207,10.9056 885.5,14C 886.448,14.4828 887.448,14.6495 888.5,14.5C 888.167,17.5 889.5,18.8333 892.5,18.5C 893.092,21.1272 893.425,23.7938 893.5,26.5C 894.822,26.33 895.989,26.6634 897,27.5C 896.894,32.0568 898.228,36.0568 901,39.5C 901.5,50.495 901.667,61.495 901.5,72.5C 900.178,72.33 899.011,72.6634 898,73.5C 897.667,76.8333 897.333,80.1667 897,83.5C 896,84.1667 895,84.8333 894,85.5C 892.999,90.0442 891.166,94.0442 888.5,97.5C 887.167,97.5 885.833,97.5 884.5,97.5C 884.5,98.8333 884.5,100.167 884.5,101.5C 883.167,101.5 881.833,101.5 880.5,101.5C 880.67,102.822 880.337,103.989 879.5,105C 875.433,104.864 872.433,106.531 870.5,110C 866.863,109.684 864.196,111.018 862.5,114C 848.5,114.667 834.5,114.667 820.5,114C 819.027,113.29 818.36,112.124 818.5,110.5C 815.455,110.492 812.455,110.159 809.5,109.5C 809.719,108.325 809.386,107.325 808.5,106.5C 804.995,104.792 801.661,102.959 798.5,101C 797.859,98.8697 796.526,97.3697 794.5,96.5C 793.365,94.2933 792.699,91.9599 792.5,89.5C 791.448,89.6495 790.448,89.4828 789.5,89C 785.704,84.2805 783.871,78.7805 784,72.5C 782.667,71.8333 781.667,70.8333 781,69.5C 780.333,60.1667 780.333,50.8333 781,41.5C 781.71,40.0267 782.876,39.3601 784.5,39.5C 784.284,35.9408 784.618,32.4408 785.5,29C 787.323,26.1703 789.489,23.6703 792,21.5C 792.667,19.5 793.333,17.5 794,15.5C 795.011,14.6634 796.178,14.33 797.5,14.5C 797.238,13.0222 797.571,11.6888 798.5,10.5C 800.23,9.97439 801.564,8.97439 802.5,7.5C 804.608,6.05625 806.941,5.38958 809.5,5.5C 809.33,4.17793 809.663,3.01127 810.5,2C 813.361,2.03019 815.695,1.19686 817.5,-0.5 Z"/></g>
<g><path style="opacity:0.851" fill="#fefffe" d="M 1267.5,-0.5 C 1283.17,-0.5 1298.83,-0.5 1314.5,-0.5C 1316.31,1.19686 1318.64,2.03019 1321.5,2C 1322.34,3.01127 1322.67,4.17793 1322.5,5.5C 1325.06,5.38958 1327.39,6.05625 1329.5,7.5C 1330.44,8.97439 1331.77,9.97439 1333.5,10.5C 1334.43,11.6888 1334.76,13.0222 1334.5,14.5C 1335.82,14.33 1336.99,14.6634 1338,15.5C 1338.67,17.5 1339.33,19.5 1340,21.5C 1342.51,23.6703 1344.68,26.1703 1346.5,29C 1347.38,32.4408 1347.72,35.9408 1347.5,39.5C 1349.12,39.3601 1350.29,40.0267 1351,41.5C 1351.67,50.8333 1351.67,60.1667 1351,69.5C 1350.33,70.8333 1349.33,71.8333 1348,72.5C 1348.13,78.7805 1346.3,84.2805 1342.5,89C 1341.55,89.4828 1340.55,89.6495 1339.5,89.5C 1339.3,91.9599 1338.63,94.2933 1337.5,96.5C 1335.47,97.3697 1334.14,98.8697 1333.5,101C 1330.34,102.959 1327.01,104.792 1323.5,106.5C 1322.61,107.325 1322.28,108.325 1322.5,109.5C 1319.54,110.159 1316.54,110.492 1313.5,110.5C 1313.64,112.124 1312.97,113.29 1311.5,114C 1297.5,114.667 1283.5,114.667 1269.5,114C 1267.8,111.018 1265.14,109.684 1261.5,110C 1259.57,106.531 1256.57,104.864 1252.5,105C 1251.66,103.989 1251.33,102.822 1251.5,101.5C 1250.17,101.5 1248.83,101.5 1247.5,101.5C 1247.5,100.167 1247.5,98.8333 1247.5,97.5C 1246.17,97.5 1244.83,97.5 1243.5,97.5C 1240.83,94.0442 1239,90.0442 1238,85.5C 1236.99,84.6634 1235.82,84.33 1234.5,84.5C 1234.67,80.8183 1234.5,77.1516 1234,73.5C 1232.99,72.6634 1231.82,72.33 1230.5,72.5C 1230.33,61.495 1230.5,50.495 1231,39.5C 1233.77,36.0966 1235.1,32.0966 1235,27.5C 1236.01,26.6634 1237.18,26.33 1238.5,26.5C 1238.58,23.7938 1238.91,21.1272 1239.5,18.5C 1240.68,18.719 1241.68,18.3857 1242.5,17.5C 1244.76,15.2045 1246.76,12.7045 1248.5,10C 1249.45,9.51722 1250.45,9.35055 1251.5,9.5C 1251.33,8.17793 1251.66,7.01127 1252.5,6C 1254.81,5.50335 1257.14,5.33669 1259.5,5.5C 1259.5,4.16667 1259.5,2.83333 1259.5,1.5C 1262.7,2.03562 1265.36,1.36895 1267.5,-0.5 Z"/></g>
<g><path style="opacity:0.916" fill="#fefffe" d="M 367.5,276.5 C 384.17,276.333 400.837,276.5 417.5,277C 418.337,278.011 418.67,279.178 418.5,280.5C 422.555,280.176 426.555,280.509 430.5,281.5C 430.977,282.478 431.643,283.311 432.5,284C 435.5,284.333 438.5,284.667 441.5,285C 442.973,285.71 443.64,286.876 443.5,288.5C 446.167,288.833 448.833,289.167 451.5,289.5C 451.5,290.5 451.5,291.5 451.5,292.5C 453.854,292.838 456.187,293.338 458.5,294C 459.337,295.011 459.67,296.178 459.5,297.5C 460.978,297.238 462.311,297.571 463.5,298.5C 464.145,300.432 465.479,301.599 467.5,302C 468.337,303.011 468.67,304.178 468.5,305.5C 469.833,305.5 471.167,305.5 472.5,305.5C 472.5,306.833 472.5,308.167 472.5,309.5C 473.833,309.5 475.167,309.5 476.5,309.5C 476.5,310.833 476.5,312.167 476.5,313.5C 479.541,313.406 481.207,314.906 481.5,318C 483.753,319.749 486.086,321.249 488.5,322.5C 489.092,325.127 489.425,327.794 489.5,330.5C 490.822,330.33 491.989,330.663 493,331.5C 495.2,335.213 496.7,339.213 497.5,343.5C 499.124,343.36 500.29,344.027 501,345.5C 501.499,349.152 501.665,352.818 501.5,356.5C 503.124,356.36 504.29,357.027 505,358.5C 505.398,364.342 505.898,370.176 506.5,376C 511.8,387.166 511.8,398.333 506.5,409.5C 505.707,415.14 505.374,420.807 505.5,426.5C 504.167,426.5 502.833,426.5 501.5,426.5C 501.666,430.514 501.499,434.514 501,438.5C 499.989,439.337 498.822,439.67 497.5,439.5C 497.663,441.857 497.497,444.19 497,446.5C 495.989,447.337 494.822,447.67 493.5,447.5C 493.663,449.857 493.497,452.19 493,454.5C 491.989,455.337 490.822,455.67 489.5,455.5C 490.244,458.95 488.91,460.616 485.5,460.5C 485.301,462.96 484.635,465.293 483.5,467.5C 481.474,468.37 480.141,469.87 479.5,472C 478.552,472.483 477.552,472.649 476.5,472.5C 476.5,473.833 476.5,475.167 476.5,476.5C 475.167,476.5 473.833,476.5 472.5,476.5C 472.594,479.541 471.094,481.207 468,481.5C 467.517,482.448 467.351,483.448 467.5,484.5C 464.01,484.245 461.343,485.578 459.5,488.5C 458.311,489.429 456.978,489.762 455.5,489.5C 455.67,490.822 455.337,491.989 454.5,493C 452.19,493.497 449.857,493.663 447.5,493.5C 447.67,494.822 447.337,495.989 446.5,497C 444.19,497.497 441.857,497.663 439.5,497.5C 439.67,498.822 439.337,499.989 438.5,501C 434.514,501.499 430.514,501.666 426.5,501.5C 426.5,502.833 426.5,504.167 426.5,505.5C 419.455,505.67 412.455,506.337 405.5,507.5C 405.291,508.086 404.957,508.586 404.5,509C 396.828,510.934 389.161,510.934 381.5,509C 381.043,508.586 380.709,508.086 380.5,507.5C 373.183,506.54 365.85,505.706 358.5,505C 357.027,504.29 356.36,503.124 356.5,501.5C 352.818,501.665 349.152,501.499 345.5,501C 344.027,500.29 343.36,499.124 343.5,497.5C 339.213,496.7 335.213,495.2 331.5,493C 330.663,491.989 330.33,490.822 330.5,489.5C 328.08,489.708 325.747,489.374 323.5,488.5C 321.221,486.202 319.221,483.702 317.5,481C 314.553,480.888 313.22,479.388 313.5,476.5C 312.167,476.5 310.833,476.5 309.5,476.5C 309.5,475.167 309.5,473.833 309.5,472.5C 308.167,472.5 306.833,472.5 305.5,472.5C 305.5,471.167 305.5,469.833 305.5,468.5C 304.178,468.67 303.011,468.337 302,467.5C 301.599,465.479 300.432,464.145 298.5,463.5C 297.571,462.311 297.238,460.978 297.5,459.5C 296.178,459.67 295.011,459.337 294,458.5C 293.338,456.187 292.838,453.854 292.5,451.5C 291.5,451.5 290.5,451.5 289.5,451.5C 289.167,448.833 288.833,446.167 288.5,443.5C 287.325,443.719 286.325,443.386 285.5,442.5C 284.746,439.223 284.246,435.89 284,432.5C 283.29,431.027 282.124,430.36 280.5,430.5C 280.5,426.5 280.5,422.5 280.5,418.5C 279.178,418.67 278.011,418.337 277,417.5C 276.333,400.833 276.333,384.167 277,367.5C 279.877,363.417 281.21,358.75 281,353.5C 283.988,350.919 285.154,347.586 284.5,343.5C 285.822,343.67 286.989,343.337 288,342.5C 288.287,340.109 288.787,337.776 289.5,335.5C 290.325,334.614 291.325,334.281 292.5,334.5C 293.092,331.873 293.425,329.206 293.5,326.5C 294.833,326.5 296.167,326.5 297.5,326.5C 297.5,325.167 297.5,323.833 297.5,322.5C 298.833,322.5 300.167,322.5 301.5,322.5C 301.343,321.127 301.51,319.793 302,318.5C 304.092,316.654 305.426,314.321 306,311.5C 308.5,310.333 310.333,308.5 311.5,306C 314.285,305.441 316.618,304.108 318.5,302C 319.793,301.51 321.127,301.343 322.5,301.5C 322.5,300.167 322.5,298.833 322.5,297.5C 323.833,297.5 325.167,297.5 326.5,297.5C 326.5,296.167 326.5,294.833 326.5,293.5C 329.206,293.425 331.873,293.092 334.5,292.5C 334.281,291.325 334.614,290.325 335.5,289.5C 337.776,288.787 340.109,288.287 342.5,288C 343.337,286.989 343.67,285.822 343.5,284.5C 347.586,285.154 350.919,283.988 353.5,281C 359.001,281.347 363.668,279.847 367.5,276.5 Z"/></g>
<g><path style="opacity:0.916" fill="#fefffe" d="M 815.5,276.5 C 832.833,276.5 850.167,276.5 867.5,276.5C 867.33,277.822 867.663,278.989 868.5,280C 872.167,280.333 875.833,280.667 879.5,281C 880.337,282.011 880.67,283.178 880.5,284.5C 883.85,284.335 887.183,284.502 890.5,285C 891.973,285.71 892.64,286.876 892.5,288.5C 898.641,289.232 903.641,292.065 907.5,297C 909.167,297.333 910.833,297.667 912.5,298C 913.337,299.011 913.67,300.178 913.5,301.5C 916.95,300.756 918.616,302.09 918.5,305.5C 921.5,305.167 922.833,306.5 922.5,309.5C 923.822,309.33 924.989,309.663 926,310.5C 926.401,312.521 927.568,313.855 929.5,314.5C 930.429,315.689 930.762,317.022 930.5,318.5C 931.833,318.5 933.167,318.5 934.5,318.5C 936.966,322.032 938.633,326.032 939.5,330.5C 940.675,330.281 941.675,330.614 942.5,331.5C 943.06,333.854 943.727,336.187 944.5,338.5C 945.167,338.833 945.833,339.167 946.5,339.5C 947.48,342.086 947.813,344.753 947.5,347.5C 948.833,347.5 950.167,347.5 951.5,347.5C 951.176,351.555 951.509,355.555 952.5,359.5C 953.167,359.833 953.833,360.167 954.5,360.5C 955.332,369.482 955.832,378.482 956,387.5C 960.365,390.765 960.532,394.098 956.5,397.5C 955.753,406.847 955.087,416.18 954.5,425.5C 953.5,425.5 952.5,425.5 951.5,425.5C 951.666,429.514 951.499,433.514 951,437.5C 949.989,438.337 948.822,438.67 947.5,438.5C 947.663,440.857 947.497,443.19 947,445.5C 944.051,447.726 942.384,450.726 942,454.5C 940.334,457.439 938.001,459.772 935,461.5C 934.517,462.448 934.351,463.448 934.5,464.5C 933.167,464.5 931.833,464.5 930.5,464.5C 931.303,468.169 930.136,470.836 927,472.5C 926.667,473.5 926.333,474.5 926,475.5C 920.93,479.041 915.763,482.541 910.5,486C 909.663,487.011 909.33,488.178 909.5,489.5C 908.167,489.5 906.833,489.5 905.5,489.5C 905.719,490.675 905.386,491.675 904.5,492.5C 902.253,493.374 899.92,493.708 897.5,493.5C 897.67,494.822 897.337,495.989 896.5,497C 894.167,497.333 891.833,497.667 889.5,498C 888.663,499.011 888.33,500.178 888.5,501.5C 884.5,501.5 880.5,501.5 876.5,501.5C 876.67,502.822 876.337,503.989 875.5,505C 863.783,505.676 852.45,507.509 841.5,510.5C 834.883,510.123 828.55,508.79 822.5,506.5C 817.161,506.066 811.827,505.566 806.5,505C 805.663,503.989 805.33,502.822 805.5,501.5C 801.5,501.5 797.5,501.5 793.5,501.5C 793.5,500.167 793.5,498.833 793.5,497.5C 791.143,497.663 788.81,497.497 786.5,497C 785.833,496 785.167,495 784.5,494C 780.304,493.298 776.637,491.632 773.5,489C 772.663,487.989 772.33,486.822 772.5,485.5C 769.167,485.5 767.5,483.833 767.5,480.5C 766.127,480.657 764.793,480.49 763.5,480C 762.187,477.674 760.187,476.341 757.5,476C 755.887,473.772 755.22,471.272 755.5,468.5C 754.167,468.5 752.833,468.5 751.5,468.5C 751.5,467.167 751.5,465.833 751.5,464.5C 748.459,464.594 746.793,463.094 746.5,460C 745.552,459.517 744.552,459.351 743.5,459.5C 742.908,456.873 742.575,454.206 742.5,451.5C 741.178,451.67 740.011,451.337 739,450.5C 738.503,448.19 738.337,445.857 738.5,443.5C 737.178,443.67 736.011,443.337 735,442.5C 734.503,439.854 734.336,437.187 734.5,434.5C 733.167,434.5 731.833,434.5 730.5,434.5C 730.824,430.445 730.491,426.445 729.5,422.5C 728.833,422.167 728.167,421.833 727.5,421.5C 726.167,402.5 726.167,383.5 727.5,364.5C 728.167,364.167 728.833,363.833 729.5,363.5C 730.173,355.727 732.006,348.394 735,341.5C 735.71,340.027 736.876,339.36 738.5,339.5C 738.523,337.073 739.023,334.74 740,332.5C 744.281,328.314 747.947,323.647 751,318.5C 751.49,317.207 751.657,315.873 751.5,314.5C 752.833,314.5 754.167,314.5 755.5,314.5C 754.756,311.05 756.09,309.384 759.5,309.5C 759.384,306.09 761.05,304.756 764.5,305.5C 764.33,304.178 764.663,303.011 765.5,302C 768.321,301.426 770.654,300.092 772.5,298C 773.793,297.51 775.127,297.343 776.5,297.5C 776.5,296.167 776.5,294.833 776.5,293.5C 779.127,292.908 781.794,292.575 784.5,292.5C 784.351,291.448 784.517,290.448 785,289.5C 789.691,285.55 795.191,283.883 801.5,284.5C 801.33,283.178 801.663,282.011 802.5,281C 806.486,280.501 810.486,280.334 814.5,280.5C 814.433,279.041 814.766,277.708 815.5,276.5 Z"/></g>
<g><path style="opacity:0.917" fill="#fefffe" d="M 1264.5,276.5 C 1281.84,276.333 1299.17,276.5 1316.5,277C 1317.34,278.011 1317.67,279.178 1317.5,280.5C 1321.51,280.334 1325.51,280.501 1329.5,281C 1330.34,282.011 1330.67,283.178 1330.5,284.5C 1336.81,283.883 1342.31,285.55 1347,289.5C 1347.48,290.448 1347.65,291.448 1347.5,292.5C 1350.21,292.575 1352.87,292.908 1355.5,293.5C 1355.5,294.833 1355.5,296.167 1355.5,297.5C 1356.87,297.343 1358.21,297.51 1359.5,298C 1361.35,300.092 1363.68,301.426 1366.5,302C 1367.34,303.011 1367.67,304.178 1367.5,305.5C 1370.95,304.756 1372.62,306.09 1372.5,309.5C 1375.91,309.384 1377.24,311.05 1376.5,314.5C 1377.83,314.5 1379.17,314.5 1380.5,314.5C 1380.34,315.873 1380.51,317.207 1381,318.5C 1384.05,323.647 1387.72,328.314 1392,332.5C 1392.98,334.74 1393.48,337.073 1393.5,339.5C 1395.12,339.36 1396.29,340.027 1397,341.5C 1399.99,348.394 1401.83,355.727 1402.5,363.5C 1403.17,363.833 1403.83,364.167 1404.5,364.5C 1405.83,383.5 1405.83,402.5 1404.5,421.5C 1403.83,421.833 1403.17,422.167 1402.5,422.5C 1401.51,426.445 1401.18,430.445 1401.5,434.5C 1400.17,434.5 1398.83,434.5 1397.5,434.5C 1397.66,437.187 1397.5,439.854 1397,442.5C 1395.99,443.337 1394.82,443.67 1393.5,443.5C 1393.66,445.857 1393.5,448.19 1393,450.5C 1391.99,451.337 1390.82,451.67 1389.5,451.5C 1389.42,454.206 1389.09,456.873 1388.5,459.5C 1385.46,459.406 1383.79,460.906 1383.5,464C 1382.55,464.483 1381.55,464.649 1380.5,464.5C 1380.5,465.833 1380.5,467.167 1380.5,468.5C 1379.17,468.5 1377.83,468.5 1376.5,468.5C 1376.7,470.989 1376.2,473.323 1375,475.5C 1372.23,476.136 1370.06,477.636 1368.5,480C 1367.21,480.49 1365.87,480.657 1364.5,480.5C 1364.5,483.833 1362.83,485.5 1359.5,485.5C 1359.67,486.822 1359.34,487.989 1358.5,489C 1355.36,491.632 1351.7,493.298 1347.5,494C 1346.83,495 1346.17,496 1345.5,497C 1343.19,497.497 1340.86,497.663 1338.5,497.5C 1338.67,498.822 1338.34,499.989 1337.5,501C 1333.79,501.175 1330.12,501.675 1326.5,502.5C 1326.17,503.167 1325.83,503.833 1325.5,504.5C 1313.57,505.543 1301.91,507.543 1290.5,510.5C 1286.48,510.14 1282.48,509.64 1278.5,509C 1277.83,508.333 1277.17,507.667 1276.5,507C 1269.82,506.453 1263.15,505.787 1256.5,505C 1255.66,503.989 1255.33,502.822 1255.5,501.5C 1251.5,501.5 1247.5,501.5 1243.5,501.5C 1243.67,500.178 1243.34,499.011 1242.5,498C 1240.17,497.667 1237.83,497.333 1235.5,497C 1234.66,495.989 1234.33,494.822 1234.5,493.5C 1232.47,493.662 1230.47,493.495 1228.5,493C 1227.03,492.29 1226.36,491.124 1226.5,489.5C 1225.17,489.5 1223.83,489.5 1222.5,489.5C 1222.67,488.178 1222.34,487.011 1221.5,486C 1216.24,482.541 1211.07,479.041 1206,475.5C 1205.77,472.94 1204.44,471.274 1202,470.5C 1201.5,468.527 1201.34,466.527 1201.5,464.5C 1200.02,464.762 1198.69,464.429 1197.5,463.5C 1194.8,460.64 1192.3,457.64 1190,454.5C 1189.62,450.726 1187.95,447.726 1185,445.5C 1184.5,443.19 1184.34,440.857 1184.5,438.5C 1183.18,438.67 1182.01,438.337 1181,437.5C 1180.5,433.514 1180.33,429.514 1180.5,425.5C 1179.5,425.5 1178.5,425.5 1177.5,425.5C 1176.91,416.18 1176.25,406.847 1175.5,397.5C 1171.54,394.152 1171.71,390.818 1176,387.5C 1176.17,378.482 1176.67,369.482 1177.5,360.5C 1178.17,360.167 1178.83,359.833 1179.5,359.5C 1180.49,355.555 1180.82,351.555 1180.5,347.5C 1181.83,347.5 1183.17,347.5 1184.5,347.5C 1184.19,344.753 1184.52,342.086 1185.5,339.5C 1186.17,339.167 1186.83,338.833 1187.5,338.5C 1188.31,336.234 1188.81,333.9 1189,331.5C 1190.01,330.663 1191.18,330.33 1192.5,330.5C 1193.16,325.875 1194.83,321.875 1197.5,318.5C 1198.83,318.5 1200.17,318.5 1201.5,318.5C 1201.24,317.022 1201.57,315.689 1202.5,314.5C 1204.43,313.855 1205.6,312.521 1206,310.5C 1207.01,309.663 1208.18,309.33 1209.5,309.5C 1209.17,306.5 1210.5,305.167 1213.5,305.5C 1213.38,302.09 1215.05,300.756 1218.5,301.5C 1218.33,300.178 1218.66,299.011 1219.5,298C 1221.17,297.667 1222.83,297.333 1224.5,297C 1228.41,292.75 1233.07,289.75 1238.5,288C 1239.05,287.075 1239.71,286.242 1240.5,285.5C 1244.09,284.574 1247.76,284.241 1251.5,284.5C 1251.33,283.178 1251.66,282.011 1252.5,281C 1256.21,280.825 1259.88,280.325 1263.5,279.5C 1264.13,278.583 1264.46,277.583 1264.5,276.5 Z"/></g>
<g><path style="opacity:0.916" fill="#fefffe" d="M 1714.5,276.5 C 1731.17,276.333 1747.84,276.5 1764.5,277C 1768.58,279.877 1773.25,281.21 1778.5,281C 1779.97,281.71 1780.64,282.876 1780.5,284.5C 1783.25,284.187 1785.91,284.52 1788.5,285.5C 1788.83,286.167 1789.17,286.833 1789.5,287.5C 1791.81,288.273 1794.15,288.94 1796.5,289.5C 1797.39,290.325 1797.72,291.325 1797.5,292.5C 1800.17,292.833 1802.83,293.167 1805.5,293.5C 1805.5,294.833 1805.5,296.167 1805.5,297.5C 1806.83,297.5 1808.17,297.5 1809.5,297.5C 1809.33,298.822 1809.66,299.989 1810.5,301C 1819.48,304.159 1825.98,309.992 1830,318.5C 1830.49,319.793 1830.66,321.127 1830.5,322.5C 1831.83,322.5 1833.17,322.5 1834.5,322.5C 1834.17,325.5 1835.5,326.833 1838.5,326.5C 1839.09,329.127 1839.42,331.794 1839.5,334.5C 1840.82,334.33 1841.99,334.663 1843,335.5C 1843.33,337.833 1843.67,340.167 1844,342.5C 1845.01,343.337 1846.18,343.67 1847.5,343.5C 1846.85,347.586 1848.01,350.919 1851,353.5C 1850.79,358.75 1852.12,363.417 1855,367.5C 1855.67,384.167 1855.67,400.833 1855,417.5C 1853.99,418.337 1852.82,418.67 1851.5,418.5C 1851.5,422.5 1851.5,426.5 1851.5,430.5C 1849.88,430.36 1848.71,431.027 1848,432.5C 1847.67,435.833 1847.33,439.167 1847,442.5C 1845.99,443.337 1844.82,443.67 1843.5,443.5C 1843.42,446.206 1843.09,448.873 1842.5,451.5C 1841.5,451.5 1840.5,451.5 1839.5,451.5C 1839.16,453.854 1838.66,456.187 1838,458.5C 1836.99,459.337 1835.82,459.67 1834.5,459.5C 1834.76,460.978 1834.43,462.311 1833.5,463.5C 1831.57,464.145 1830.4,465.479 1830,467.5C 1828.99,468.337 1827.82,468.67 1826.5,468.5C 1826.5,469.833 1826.5,471.167 1826.5,472.5C 1825.17,472.5 1823.83,472.5 1822.5,472.5C 1822.5,473.833 1822.5,475.167 1822.5,476.5C 1821.17,476.5 1819.83,476.5 1818.5,476.5C 1818.5,477.833 1818.5,479.167 1818.5,480.5C 1817.02,480.238 1815.69,480.571 1814.5,481.5C 1812.52,483.83 1810.52,486.164 1808.5,488.5C 1806.25,489.374 1803.92,489.708 1801.5,489.5C 1801.67,490.822 1801.34,491.989 1800.5,493C 1796.93,495.415 1792.93,496.915 1788.5,497.5C 1788.64,499.124 1787.97,500.29 1786.5,501C 1782.85,501.499 1779.18,501.665 1775.5,501.5C 1775.64,503.124 1774.97,504.29 1773.5,505C 1766.15,505.706 1758.82,506.54 1751.5,507.5C 1751.29,508.086 1750.96,508.586 1750.5,509C 1740.24,511.289 1730.41,510.455 1721,506.5C 1715.85,505.868 1710.68,505.535 1705.5,505.5C 1705.5,504.167 1705.5,502.833 1705.5,501.5C 1701.45,501.824 1697.45,501.491 1693.5,500.5C 1693.17,499.833 1692.83,499.167 1692.5,498.5C 1690.23,497.686 1687.9,497.186 1685.5,497C 1684.66,495.989 1684.33,494.822 1684.5,493.5C 1682.14,493.663 1679.81,493.497 1677.5,493C 1676.66,491.989 1676.33,490.822 1676.5,489.5C 1675.02,489.762 1673.69,489.429 1672.5,488.5C 1670.76,485.468 1668.1,484.135 1664.5,484.5C 1664.59,481.459 1663.09,479.793 1660,479.5C 1659.52,478.552 1659.35,477.552 1659.5,476.5C 1658.17,476.5 1656.83,476.5 1655.5,476.5C 1655.5,475.167 1655.5,473.833 1655.5,472.5C 1654.45,472.649 1653.45,472.483 1652.5,472C 1651.86,469.87 1650.53,468.37 1648.5,467.5C 1647.03,463.012 1645.03,459.012 1642.5,455.5C 1641.18,455.67 1640.01,455.337 1639,454.5C 1638.5,452.19 1638.34,449.857 1638.5,447.5C 1637.18,447.67 1636.01,447.337 1635,446.5C 1634.5,444.19 1634.34,441.857 1634.5,439.5C 1633.18,439.67 1632.01,439.337 1631,438.5C 1630.5,434.514 1630.33,430.514 1630.5,426.5C 1629.17,426.5 1627.83,426.5 1626.5,426.5C 1626.5,419.5 1626.5,412.5 1626.5,405.5C 1625.18,405.67 1624.01,405.337 1623,404.5C 1621.26,396.816 1621.26,389.149 1623,381.5C 1624.01,380.663 1625.18,380.33 1626.5,380.5C 1626.33,373.159 1626.5,365.826 1627,358.5C 1627.71,357.027 1628.88,356.36 1630.5,356.5C 1630.33,352.818 1630.5,349.152 1631,345.5C 1631.71,344.027 1632.88,343.36 1634.5,343.5C 1635.3,339.213 1636.8,335.213 1639,331.5C 1640.01,330.663 1641.18,330.33 1642.5,330.5C 1642.58,327.794 1642.91,325.127 1643.5,322.5C 1644.83,322.5 1646.17,322.5 1647.5,322.5C 1647.5,321.167 1647.5,319.833 1647.5,318.5C 1650.54,318.594 1652.21,317.094 1652.5,314C 1653.45,313.517 1654.45,313.351 1655.5,313.5C 1655.5,312.167 1655.5,310.833 1655.5,309.5C 1656.83,309.5 1658.17,309.5 1659.5,309.5C 1659.5,308.167 1659.5,306.833 1659.5,305.5C 1660.83,305.5 1662.17,305.5 1663.5,305.5C 1663.41,302.459 1664.91,300.793 1668,300.5C 1668.48,299.552 1668.65,298.552 1668.5,297.5C 1669.83,297.5 1671.17,297.5 1672.5,297.5C 1672.33,296.178 1672.66,295.011 1673.5,294C 1678.41,291.753 1683.41,289.586 1688.5,287.5C 1688.98,286.522 1689.64,285.689 1690.5,285C 1693.5,284.667 1696.5,284.333 1699.5,284C 1700.97,283.29 1701.64,282.124 1701.5,280.5C 1705.55,280.824 1709.55,280.491 1713.5,279.5C 1714.13,278.583 1714.46,277.583 1714.5,276.5 Z"/></g>
<g><path style="opacity:0.942" fill="#fefffe" d="M 833.5,667.5 C 838.844,667.334 844.177,667.501 849.5,668C 860.743,671.226 872.41,672.726 884.5,672.5C 884.5,673.833 884.5,675.167 884.5,676.5C 888.514,676.334 892.514,676.501 896.5,677C 897.337,678.011 897.67,679.178 897.5,680.5C 901.555,680.176 905.555,680.509 909.5,681.5C 909.977,682.478 910.643,683.311 911.5,684C 913.5,684.333 915.5,684.667 917.5,685C 918.337,686.011 918.67,687.178 918.5,688.5C 920.857,688.337 923.19,688.503 925.5,689C 926.337,690.011 926.67,691.178 926.5,692.5C 929.167,692.833 931.833,693.167 934.5,693.5C 934.351,694.552 934.517,695.552 935,696.5C 937.124,697.227 939.291,697.894 941.5,698.5C 942.386,699.325 942.719,700.325 942.5,701.5C 945.95,700.756 947.616,702.09 947.5,705.5C 950.5,705.167 951.833,706.5 951.5,709.5C 952.833,709.5 954.167,709.5 955.5,709.5C 955.5,710.833 955.5,712.167 955.5,713.5C 956.978,713.238 958.311,713.571 959.5,714.5C 962.439,716.772 965.105,719.439 967.5,722.5C 968.429,723.689 968.762,725.022 968.5,726.5C 969.833,726.5 971.167,726.5 972.5,726.5C 972.5,727.833 972.5,729.167 972.5,730.5C 975.5,730.167 976.833,731.5 976.5,734.5C 979.91,734.384 981.244,736.05 980.5,739.5C 981.822,739.33 982.989,739.663 984,740.5C 983.864,744.567 985.531,747.567 989,749.5C 989.495,751.473 989.662,753.473 989.5,755.5C 990.822,755.33 991.989,755.663 993,756.5C 993.333,758.5 993.667,760.5 994,762.5C 996.414,764.449 998.414,766.782 1000,769.5C 1000.91,773.142 1001.75,776.808 1002.5,780.5C 1003.48,780.977 1004.31,781.643 1005,782.5C 1005.17,786.211 1005.67,789.878 1006.5,793.5C 1007.48,793.977 1008.31,794.643 1009,795.5C 1010.26,803.113 1010.76,810.78 1010.5,818.5C 1011.5,818.5 1012.5,818.5 1013.5,818.5C 1014.57,832.145 1014.74,845.812 1014,859.5C 1013.75,862.177 1012.75,864.51 1011,866.5C 1010.66,873.533 1010,880.533 1009,887.5C 1007.99,888.337 1006.82,888.67 1005.5,888.5C 1005.67,892.514 1005.5,896.514 1005,900.5C 1003.99,901.337 1002.82,901.67 1001.5,901.5C 1001.67,905.182 1001.5,908.848 1001,912.5C 999.989,913.337 998.822,913.67 997.5,913.5C 997.425,916.206 997.092,918.873 996.5,921.5C 995.5,921.5 994.5,921.5 993.5,921.5C 993.657,922.873 993.49,924.207 993,925.5C 990.777,927.723 989.444,930.389 989,933.5C 985.661,935.5 983.827,938.5 983.5,942.5C 981.474,943.37 980.141,944.87 979.5,947C 978.552,947.483 977.552,947.649 976.5,947.5C 976.5,948.833 976.5,950.167 976.5,951.5C 975.167,951.5 973.833,951.5 972.5,951.5C 972.554,954.967 971.054,957.634 968,959.5C 967.51,960.793 967.343,962.127 967.5,963.5C 964.5,963.167 963.167,964.5 963.5,967.5C 960.123,967.69 957.456,969.19 955.5,972C 954.207,972.49 952.873,972.657 951.5,972.5C 951.5,973.833 951.5,975.167 951.5,976.5C 950.167,976.5 948.833,976.5 947.5,976.5C 947.649,977.552 947.483,978.552 947,979.5C 944.87,980.141 943.37,981.474 942.5,983.5C 939.92,984.549 937.254,985.216 934.5,985.5C 934.67,986.822 934.337,987.989 933.5,989C 929.572,990.802 925.572,992.302 921.5,993.5C 921.5,994.5 921.5,995.5 921.5,996.5C 918.873,997.092 916.206,997.425 913.5,997.5C 913.67,998.822 913.337,999.989 912.5,1001C 908.848,1001.5 905.182,1001.67 901.5,1001.5C 901.67,1002.82 901.337,1003.99 900.5,1005C 896.514,1005.5 892.514,1005.67 888.5,1005.5C 888.67,1006.82 888.337,1007.99 887.5,1009C 880.551,1010.12 873.551,1010.79 866.5,1011C 864.51,1012.75 862.177,1013.75 859.5,1014C 845.812,1014.74 832.145,1014.57 818.5,1013.5C 818.5,1012.5 818.5,1011.5 818.5,1010.5C 810.772,1010.81 803.105,1010.31 795.5,1009C 794.643,1008.31 793.977,1007.48 793.5,1006.5C 789.5,1005.83 785.5,1005.17 781.5,1004.5C 781.167,1003.83 780.833,1003.17 780.5,1002.5C 776.765,1001.85 773.099,1001.01 769.5,1000C 766.782,998.414 764.449,996.414 762.5,994C 760.5,993.667 758.5,993.333 756.5,993C 755.663,991.989 755.33,990.822 755.5,989.5C 753.473,989.662 751.473,989.495 749.5,989C 748.027,988.29 747.36,987.124 747.5,985.5C 745.146,985.162 742.813,984.662 740.5,984C 739.663,982.989 739.33,981.822 739.5,980.5C 736.05,981.244 734.384,979.91 734.5,976.5C 731.5,976.833 730.167,975.5 730.5,972.5C 729.167,972.5 727.833,972.5 726.5,972.5C 726.5,971.167 726.5,969.833 726.5,968.5C 725.127,968.657 723.793,968.49 722.5,968C 719.587,965.258 716.92,962.425 714.5,959.5C 713.571,958.311 713.238,956.978 713.5,955.5C 712.167,955.5 710.833,955.5 709.5,955.5C 709.5,954.167 709.5,952.833 709.5,951.5C 706.5,951.833 705.167,950.5 705.5,947.5C 702.09,947.616 700.756,945.95 701.5,942.5C 700.325,942.719 699.325,942.386 698.5,941.5C 697.833,939.5 697.167,937.5 696.5,935.5C 695.675,934.614 694.675,934.281 693.5,934.5C 692.908,931.873 692.575,929.206 692.5,926.5C 691.178,926.67 690.011,926.337 689,925.5C 688.503,923.19 688.337,920.857 688.5,918.5C 687.178,918.67 686.011,918.337 685,917.5C 684.667,915.5 684.333,913.5 684,911.5C 683.311,910.643 682.478,909.977 681.5,909.5C 680.509,905.555 680.176,901.555 680.5,897.5C 679.178,897.67 678.011,897.337 677,896.5C 676.501,892.514 676.334,888.514 676.5,884.5C 675.167,884.5 673.833,884.5 672.5,884.5C 671.713,874.854 671.38,865.188 671.5,855.5C 670.5,855.5 669.5,855.5 668.5,855.5C 667.002,846.138 667.168,836.805 669,827.5C 669.414,827.043 669.914,826.709 670.5,826.5C 671.223,817.153 672.056,807.819 673,798.5C 674.011,797.663 675.178,797.33 676.5,797.5C 676.334,793.486 676.501,789.486 677,785.5C 678.011,784.663 679.178,784.33 680.5,784.5C 680.5,780.5 680.5,776.5 680.5,772.5C 681.833,772.5 683.167,772.5 684.5,772.5C 684.187,769.753 684.52,767.086 685.5,764.5C 686.167,764.167 686.833,763.833 687.5,763.5C 688.273,761.187 688.94,758.854 689.5,756.5C 690.325,755.614 691.325,755.281 692.5,755.5C 692.379,751.557 693.879,748.557 697,746.5C 697.112,743.553 698.612,742.22 701.5,742.5C 701.318,740.409 701.652,738.409 702.5,736.5C 703.325,735.614 704.325,735.281 705.5,735.5C 704.756,732.05 706.09,730.384 709.5,730.5C 709.167,727.5 710.5,726.167 713.5,726.5C 713.5,725.167 713.5,723.833 713.5,722.5C 714.833,722.5 716.167,722.5 717.5,722.5C 717.5,719.167 719.167,717.5 722.5,717.5C 722.5,716.167 722.5,714.833 722.5,713.5C 723.833,713.5 725.167,713.5 726.5,713.5C 726.167,710.5 727.5,709.167 730.5,709.5C 730.384,706.09 732.05,704.756 735.5,705.5C 735.281,704.325 735.614,703.325 736.5,702.5C 738.409,701.652 740.409,701.318 742.5,701.5C 742.384,698.09 744.05,696.756 747.5,697.5C 747.5,696.167 747.5,694.833 747.5,693.5C 750.206,693.425 752.873,693.092 755.5,692.5C 755.281,691.325 755.614,690.325 756.5,689.5C 758.854,688.94 761.187,688.273 763.5,687.5C 763.833,686.833 764.167,686.167 764.5,685.5C 767.086,684.52 769.753,684.187 772.5,684.5C 772.5,683.167 772.5,681.833 772.5,680.5C 776.5,680.5 780.5,680.5 784.5,680.5C 784.33,679.178 784.663,678.011 785.5,677C 789.486,676.501 793.486,676.334 797.5,676.5C 797.33,675.178 797.663,674.011 798.5,673C 807.825,672.1 817.159,671.267 826.5,670.5C 828.621,668.982 830.954,667.982 833.5,667.5 Z"/></g>
<g><path style="opacity:0.942" fill="#fefffe" d="M 1282.5,667.5 C 1289.89,667.253 1297.22,667.753 1304.5,669C 1304.96,669.414 1305.29,669.914 1305.5,670.5C 1314.84,671.267 1324.17,672.1 1333.5,673C 1334.34,674.011 1334.67,675.178 1334.5,676.5C 1338.51,676.334 1342.51,676.501 1346.5,677C 1347.34,678.011 1347.67,679.178 1347.5,680.5C 1351.5,680.5 1355.5,680.5 1359.5,680.5C 1359.5,681.833 1359.5,683.167 1359.5,684.5C 1362.25,684.187 1364.91,684.52 1367.5,685.5C 1367.83,686.167 1368.17,686.833 1368.5,687.5C 1370.81,688.273 1373.15,688.94 1375.5,689.5C 1376.39,690.325 1376.72,691.325 1376.5,692.5C 1379.13,693.092 1381.79,693.425 1384.5,693.5C 1384.5,694.833 1384.5,696.167 1384.5,697.5C 1387.95,696.756 1389.62,698.09 1389.5,701.5C 1391.59,701.318 1393.59,701.652 1395.5,702.5C 1396.39,703.325 1396.72,704.325 1396.5,705.5C 1399.95,704.756 1401.62,706.09 1401.5,709.5C 1404.5,709.167 1405.83,710.5 1405.5,713.5C 1406.83,713.5 1408.17,713.5 1409.5,713.5C 1409.5,714.833 1409.5,716.167 1409.5,717.5C 1412.83,717.5 1414.5,719.167 1414.5,722.5C 1415.83,722.5 1417.17,722.5 1418.5,722.5C 1418.5,723.833 1418.5,725.167 1418.5,726.5C 1421.5,726.167 1422.83,727.5 1422.5,730.5C 1425.91,730.384 1427.24,732.05 1426.5,735.5C 1427.68,735.281 1428.68,735.614 1429.5,736.5C 1430.35,738.409 1430.68,740.409 1430.5,742.5C 1433.39,742.22 1434.89,743.553 1435,746.5C 1438.29,748.499 1439.79,751.499 1439.5,755.5C 1440.68,755.281 1441.68,755.614 1442.5,756.5C 1443.06,758.854 1443.73,761.187 1444.5,763.5C 1445.17,763.833 1445.83,764.167 1446.5,764.5C 1447.48,767.086 1447.81,769.753 1447.5,772.5C 1448.83,772.5 1450.17,772.5 1451.5,772.5C 1451.5,776.5 1451.5,780.5 1451.5,784.5C 1452.82,784.33 1453.99,784.663 1455,785.5C 1455.5,789.486 1455.67,793.486 1455.5,797.5C 1456.82,797.33 1457.99,797.663 1459,798.5C 1459.98,807.812 1460.82,817.146 1461.5,826.5C 1463.13,828.059 1463.96,830.059 1464,832.5C 1464.65,840.189 1464.48,847.856 1463.5,855.5C 1462.5,855.5 1461.5,855.5 1460.5,855.5C 1460.66,865.191 1460.32,874.857 1459.5,884.5C 1458.17,884.5 1456.83,884.5 1455.5,884.5C 1455.67,888.514 1455.5,892.514 1455,896.5C 1453.99,897.337 1452.82,897.67 1451.5,897.5C 1451.82,901.555 1451.49,905.555 1450.5,909.5C 1449.52,909.977 1448.69,910.643 1448,911.5C 1447.67,913.5 1447.33,915.5 1447,917.5C 1445.99,918.337 1444.82,918.67 1443.5,918.5C 1443.66,920.857 1443.5,923.19 1443,925.5C 1441.99,926.337 1440.82,926.67 1439.5,926.5C 1439.42,929.206 1439.09,931.873 1438.5,934.5C 1437.32,934.281 1436.32,934.614 1435.5,935.5C 1434.83,937.5 1434.17,939.5 1433.5,941.5C 1432.68,942.386 1431.68,942.719 1430.5,942.5C 1431.24,945.95 1429.91,947.616 1426.5,947.5C 1426.83,950.5 1425.5,951.833 1422.5,951.5C 1422.5,952.833 1422.5,954.167 1422.5,955.5C 1421.17,955.5 1419.83,955.5 1418.5,955.5C 1418.76,956.978 1418.43,958.311 1417.5,959.5C 1415.08,962.425 1412.41,965.258 1409.5,968C 1408.21,968.49 1406.87,968.657 1405.5,968.5C 1405.5,969.833 1405.5,971.167 1405.5,972.5C 1404.17,972.5 1402.83,972.5 1401.5,972.5C 1401.83,975.5 1400.5,976.833 1397.5,976.5C 1397.62,979.91 1395.95,981.244 1392.5,980.5C 1392.67,981.822 1392.34,982.989 1391.5,984C 1389.19,984.662 1386.85,985.162 1384.5,985.5C 1384.72,986.675 1384.39,987.675 1383.5,988.5C 1381.25,989.374 1378.92,989.708 1376.5,989.5C 1376.67,990.822 1376.34,991.989 1375.5,993C 1373.5,993.333 1371.5,993.667 1369.5,994C 1367.55,996.414 1365.22,998.414 1362.5,1000C 1358.9,1001.01 1355.23,1001.85 1351.5,1002.5C 1351.17,1003.17 1350.83,1003.83 1350.5,1004.5C 1346.5,1005.17 1342.5,1005.83 1338.5,1006.5C 1336.89,1008.94 1334.56,1010.11 1331.5,1010C 1325.51,1010.5 1319.51,1010.67 1313.5,1010.5C 1313.5,1011.5 1313.5,1012.5 1313.5,1013.5C 1299.85,1014.57 1286.19,1014.74 1272.5,1014C 1269.82,1013.75 1267.49,1012.75 1265.5,1011C 1258.45,1010.79 1251.45,1010.12 1244.5,1009C 1243.66,1007.99 1243.33,1006.82 1243.5,1005.5C 1239.49,1005.67 1235.49,1005.5 1231.5,1005C 1230.66,1003.99 1230.33,1002.82 1230.5,1001.5C 1226.82,1001.67 1223.15,1001.5 1219.5,1001C 1218.66,999.989 1218.33,998.822 1218.5,997.5C 1215.79,997.425 1213.13,997.092 1210.5,996.5C 1210.5,995.5 1210.5,994.5 1210.5,993.5C 1209.13,993.657 1207.79,993.49 1206.5,993C 1204.28,990.777 1201.61,989.444 1198.5,989C 1197.83,988 1197.17,987 1196.5,986C 1194.11,985.319 1191.77,984.485 1189.5,983.5C 1188.63,981.474 1187.13,980.141 1185,979.5C 1184.52,978.552 1184.35,977.552 1184.5,976.5C 1183.17,976.5 1181.83,976.5 1180.5,976.5C 1180.5,975.167 1180.5,973.833 1180.5,972.5C 1177.4,972.908 1175.07,971.741 1173.5,969C 1171.98,967.991 1170.31,967.491 1168.5,967.5C 1168.83,964.5 1167.5,963.167 1164.5,963.5C 1164.31,960.123 1162.81,957.456 1160,955.5C 1159.51,954.207 1159.34,952.873 1159.5,951.5C 1158.17,951.5 1156.83,951.5 1155.5,951.5C 1155.5,950.167 1155.5,948.833 1155.5,947.5C 1154.45,947.649 1153.45,947.483 1152.5,947C 1151.86,944.87 1150.53,943.37 1148.5,942.5C 1147.51,940.228 1146.68,937.895 1146,935.5C 1145,934.833 1144,934.167 1143,933.5C 1142.56,930.389 1141.22,927.723 1139,925.5C 1138.51,924.207 1138.34,922.873 1138.5,921.5C 1137.5,921.5 1136.5,921.5 1135.5,921.5C 1134.91,918.873 1134.58,916.206 1134.5,913.5C 1133.18,913.67 1132.01,913.337 1131,912.5C 1130.5,908.848 1130.33,905.182 1130.5,901.5C 1129.18,901.67 1128.01,901.337 1127,900.5C 1126.5,896.514 1126.33,892.514 1126.5,888.5C 1125.18,888.67 1124.01,888.337 1123,887.5C 1121.88,880.551 1121.21,873.551 1121,866.5C 1119.47,864.779 1118.47,862.779 1118,860.5C 1117.24,846.474 1117.4,832.474 1118.5,818.5C 1119.5,818.5 1120.5,818.5 1121.5,818.5C 1121.14,810.762 1121.64,803.095 1123,795.5C 1123.69,794.643 1124.52,793.977 1125.5,793.5C 1126.17,789.5 1126.83,785.5 1127.5,781.5C 1128.17,781.167 1128.83,780.833 1129.5,780.5C 1130.15,776.765 1130.99,773.099 1132,769.5C 1133.59,766.782 1135.59,764.449 1138,762.5C 1138.33,760.5 1138.67,758.5 1139,756.5C 1140.01,755.663 1141.18,755.33 1142.5,755.5C 1142.34,753.473 1142.5,751.473 1143,749.5C 1143.71,748.027 1144.88,747.36 1146.5,747.5C 1146.84,745.146 1147.34,742.813 1148,740.5C 1149.01,739.663 1150.18,739.33 1151.5,739.5C 1150.76,736.05 1152.09,734.384 1155.5,734.5C 1155.17,731.5 1156.5,730.167 1159.5,730.5C 1159.5,729.167 1159.5,727.833 1159.5,726.5C 1160.83,726.5 1162.17,726.5 1163.5,726.5C 1163.5,724.169 1164.33,722.169 1166,720.5C 1168.46,718.754 1170.62,716.754 1172.5,714.5C 1173.69,713.571 1175.02,713.238 1176.5,713.5C 1176.5,712.167 1176.5,710.833 1176.5,709.5C 1177.83,709.5 1179.17,709.5 1180.5,709.5C 1180.17,706.5 1181.5,705.167 1184.5,705.5C 1184.38,702.09 1186.05,700.756 1189.5,701.5C 1189.28,700.325 1189.61,699.325 1190.5,698.5C 1192.44,697.811 1194.44,697.311 1196.5,697C 1197.34,695.989 1197.67,694.822 1197.5,693.5C 1200.17,693.167 1202.83,692.833 1205.5,692.5C 1205.33,691.178 1205.66,690.011 1206.5,689C 1208.81,688.503 1211.14,688.337 1213.5,688.5C 1213.33,687.178 1213.66,686.011 1214.5,685C 1216.5,684.667 1218.5,684.333 1220.5,684C 1221.36,683.311 1222.02,682.478 1222.5,681.5C 1226.45,680.509 1230.45,680.176 1234.5,680.5C 1234.33,679.178 1234.66,678.011 1235.5,677C 1239.49,676.501 1243.49,676.334 1247.5,676.5C 1247.5,675.167 1247.5,673.833 1247.5,672.5C 1257.18,672.087 1266.85,671.42 1276.5,670.5C 1278.28,669.016 1280.28,668.016 1282.5,667.5 Z"/></g>
<g><path style="opacity:0.917" fill="#fefffe" d="M 364.5,726.5 C 383.512,726.167 402.512,726.5 421.5,727.5C 421.833,728.167 422.167,728.833 422.5,729.5C 426.122,730.325 429.789,730.825 433.5,731C 434.337,732.011 434.67,733.178 434.5,734.5C 437.187,734.336 439.854,734.503 442.5,735C 443.337,736.011 443.67,737.178 443.5,738.5C 445.857,738.337 448.19,738.503 450.5,739C 451.337,740.011 451.67,741.178 451.5,742.5C 454.206,742.575 456.873,742.908 459.5,743.5C 459.406,746.541 460.906,748.207 464,748.5C 464.483,749.448 464.649,750.448 464.5,751.5C 465.833,751.5 467.167,751.5 468.5,751.5C 468.5,752.833 468.5,754.167 468.5,755.5C 470.591,755.318 472.591,755.652 474.5,756.5C 475.677,759.349 477.51,761.682 480,763.5C 480.49,764.793 480.657,766.127 480.5,767.5C 483.833,767.5 485.5,769.167 485.5,772.5C 486.822,772.33 487.989,772.663 489,773.5C 491.632,776.637 493.298,780.304 494,784.5C 495,785.167 496,785.833 497,786.5C 497.497,788.81 497.663,791.143 497.5,793.5C 498.822,793.33 499.989,793.663 501,794.5C 501.175,798.211 501.675,801.878 502.5,805.5C 503.167,805.833 503.833,806.167 504.5,806.5C 505.333,813.5 506.167,820.5 507,827.5C 507.915,828.328 508.581,829.328 509,830.5C 510.934,838.161 510.934,845.828 509,853.5C 506.954,855.7 505.954,858.367 506,861.5C 505.667,866.167 505.333,870.833 505,875.5C 503.989,876.337 502.822,876.67 501.5,876.5C 501.5,880.5 501.5,884.5 501.5,888.5C 500.178,888.33 499.011,888.663 498,889.5C 497.667,891.833 497.333,894.167 497,896.5C 495.989,897.337 494.822,897.67 493.5,897.5C 493.662,899.527 493.495,901.527 493,903.5C 492.29,904.973 491.124,905.64 489.5,905.5C 489.5,906.833 489.5,908.167 489.5,909.5C 488.178,909.33 487.011,909.663 486,910.5C 482.575,915.827 479.075,920.994 475.5,926C 472.94,926.227 471.274,927.56 470.5,930C 468.527,930.495 466.527,930.662 464.5,930.5C 464.762,931.978 464.429,933.311 463.5,934.5C 460.606,937.112 457.606,939.612 454.5,942C 450.726,942.384 447.726,944.051 445.5,947C 443.19,947.497 440.857,947.663 438.5,947.5C 438.67,948.822 438.337,949.989 437.5,951C 433.514,951.499 429.514,951.666 425.5,951.5C 425.64,953.124 424.973,954.29 423.5,955C 414.814,955.168 406.148,955.668 397.5,956.5C 394.041,960.639 390.708,960.472 387.5,956C 378.482,955.832 369.482,955.332 360.5,954.5C 360.167,953.833 359.833,953.167 359.5,952.5C 355.555,951.509 351.555,951.176 347.5,951.5C 347.5,950.167 347.5,948.833 347.5,947.5C 344.753,947.813 342.086,947.48 339.5,946.5C 339.167,945.833 338.833,945.167 338.5,944.5C 336.234,943.686 333.9,943.186 331.5,943C 330.663,941.989 330.33,940.822 330.5,939.5C 325.875,938.841 321.875,937.174 318.5,934.5C 318.5,933.167 318.5,931.833 318.5,930.5C 317.022,930.762 315.689,930.429 314.5,929.5C 313.855,927.568 312.521,926.401 310.5,926C 309.663,924.989 309.33,923.822 309.5,922.5C 306.5,922.833 305.167,921.5 305.5,918.5C 302.09,918.616 300.756,916.95 301.5,913.5C 300.178,913.67 299.011,913.337 298,912.5C 297.667,910.833 297.333,909.167 297,907.5C 292.75,903.594 289.75,898.927 288,893.5C 287.075,892.953 286.242,892.287 285.5,891.5C 284.574,887.906 284.241,884.24 284.5,880.5C 283.178,880.67 282.011,880.337 281,879.5C 280.825,875.789 280.325,872.122 279.5,868.5C 278.833,868.167 278.167,867.833 277.5,867.5C 276.334,850.176 276.167,832.843 277,815.5C 278.011,814.663 279.178,814.33 280.5,814.5C 280.334,810.486 280.501,806.486 281,802.5C 282.011,801.663 283.178,801.33 284.5,801.5C 283.883,795.191 285.55,789.691 289.5,785C 290.448,784.517 291.448,784.351 292.5,784.5C 292.575,781.794 292.908,779.127 293.5,776.5C 294.833,776.5 296.167,776.5 297.5,776.5C 297.343,775.127 297.51,773.793 298,772.5C 300.108,770.618 301.441,768.285 302,765.5C 303.011,764.663 304.178,764.33 305.5,764.5C 304.756,761.05 306.09,759.384 309.5,759.5C 309.384,756.09 311.05,754.756 314.5,755.5C 314.5,754.167 314.5,752.833 314.5,751.5C 317.278,751.978 319.278,750.978 320.5,748.5C 322.115,747.846 323.782,747.346 325.5,747C 326.071,745.795 326.738,744.628 327.5,743.5C 329.664,743.002 331.331,741.836 332.5,740C 334.74,739.023 337.073,738.523 339.5,738.5C 339.36,736.876 340.027,735.71 341.5,735C 345.568,735.293 348.902,733.959 351.5,731C 355.541,730.827 359.541,730.327 363.5,729.5C 364.127,728.583 364.461,727.583 364.5,726.5 Z"/></g>
<g><path style="opacity:0.917" fill="#fefffe" d="M 1710.5,726.5 C 1729.5,726.333 1748.5,726.5 1767.5,727C 1768.34,728.011 1768.67,729.178 1768.5,730.5C 1772.51,730.334 1776.51,730.501 1780.5,731C 1783.51,733.9 1787.17,735.4 1791.5,735.5C 1792.39,736.325 1792.72,737.325 1792.5,738.5C 1794.93,738.523 1797.26,739.023 1799.5,740C 1800.67,741.836 1802.34,743.002 1804.5,743.5C 1805.26,744.628 1805.93,745.795 1806.5,747C 1809.61,747.053 1811.94,748.386 1813.5,751C 1814.79,751.49 1816.13,751.657 1817.5,751.5C 1817.41,754.541 1818.91,756.207 1822,756.5C 1822.48,757.448 1822.65,758.448 1822.5,759.5C 1825.91,759.384 1827.24,761.05 1826.5,764.5C 1827.82,764.33 1828.99,764.663 1830,765.5C 1831.96,768.661 1833.79,771.995 1835.5,775.5C 1839.01,777.433 1840.34,780.433 1839.5,784.5C 1840.55,784.351 1841.55,784.517 1842.5,785C 1846.45,789.691 1848.12,795.191 1847.5,801.5C 1848.82,801.33 1849.99,801.663 1851,802.5C 1851.5,806.486 1851.67,810.486 1851.5,814.5C 1852.82,814.33 1853.99,814.663 1855,815.5C 1855.83,832.843 1855.67,850.176 1854.5,867.5C 1853.83,867.833 1853.17,868.167 1852.5,868.5C 1851.51,872.445 1851.18,876.445 1851.5,880.5C 1850.17,880.5 1848.83,880.5 1847.5,880.5C 1847.67,884.182 1847.5,887.848 1847,891.5C 1846,892.167 1845,892.833 1844,893.5C 1843.3,897.696 1841.63,901.363 1839,904.5C 1835.39,906.378 1833.89,909.378 1834.5,913.5C 1833.17,913.5 1831.83,913.5 1830.5,913.5C 1831.24,916.95 1829.91,918.616 1826.5,918.5C 1826.83,921.5 1825.5,922.833 1822.5,922.5C 1822.5,923.833 1822.5,925.167 1822.5,926.5C 1821.17,926.5 1819.83,926.5 1818.5,926.5C 1818.62,929.91 1816.95,931.244 1813.5,930.5C 1813.5,931.833 1813.5,933.167 1813.5,934.5C 1812.02,934.238 1810.69,934.571 1809.5,935.5C 1807.76,938.532 1805.1,939.865 1801.5,939.5C 1801.67,940.822 1801.34,941.989 1800.5,943C 1798.19,943.497 1795.86,943.663 1793.5,943.5C 1793.67,944.822 1793.34,945.989 1792.5,947C 1789.85,947.497 1787.19,947.664 1784.5,947.5C 1784.5,948.833 1784.5,950.167 1784.5,951.5C 1780.45,951.176 1776.45,951.509 1772.5,952.5C 1772.17,953.167 1771.83,953.833 1771.5,954.5C 1762.52,955.332 1753.52,955.832 1744.5,956C 1741.04,960.635 1737.71,960.635 1734.5,956C 1725.83,955.667 1717.17,955.333 1708.5,955C 1707.64,954.311 1706.98,953.478 1706.5,952.5C 1702.54,951.673 1698.54,951.173 1694.5,951C 1693.66,949.989 1693.33,948.822 1693.5,947.5C 1691.14,947.663 1688.81,947.497 1686.5,947C 1685.64,946.311 1684.98,945.478 1684.5,944.5C 1678.3,941.831 1672.8,938.164 1668,933.5C 1667.52,932.552 1667.35,931.552 1667.5,930.5C 1663.83,931.303 1661.16,930.136 1659.5,927C 1658.5,926.667 1657.5,926.333 1656.5,926C 1652.96,920.93 1649.46,915.763 1646,910.5C 1643.44,909.781 1642.28,908.114 1642.5,905.5C 1641.5,905.5 1640.5,905.5 1639.5,905.5C 1638.91,902.873 1638.58,900.206 1638.5,897.5C 1637.18,897.67 1636.01,897.337 1635,896.5C 1634.67,894.167 1634.33,891.833 1634,889.5C 1632.99,888.663 1631.82,888.33 1630.5,888.5C 1630.5,884.5 1630.5,880.5 1630.5,876.5C 1629.18,876.67 1628.01,876.337 1627,875.5C 1626.83,868.809 1626.33,862.142 1625.5,855.5C 1624.52,855.023 1623.69,854.357 1623,853.5C 1621.26,845.816 1621.26,838.149 1623,830.5C 1623.37,829.09 1624.2,828.09 1625.5,827.5C 1626.17,820.5 1626.83,813.5 1627.5,806.5C 1628.17,806.167 1628.83,805.833 1629.5,805.5C 1630.33,801.878 1630.83,798.211 1631,794.5C 1632.01,793.663 1633.18,793.33 1634.5,793.5C 1633.79,789.675 1634.96,786.675 1638,784.5C 1638.42,782.645 1638.92,780.811 1639.5,779C 1642.21,775.086 1645.21,771.419 1648.5,768C 1649.45,767.517 1650.45,767.351 1651.5,767.5C 1651.34,766.127 1651.51,764.793 1652,763.5C 1654.31,762.123 1655.81,760.123 1656.5,757.5C 1658.51,755.829 1660.84,755.162 1663.5,755.5C 1663.5,754.167 1663.5,752.833 1663.5,751.5C 1664.83,751.5 1666.17,751.5 1667.5,751.5C 1667.41,748.459 1668.91,746.793 1672,746.5C 1672.48,745.552 1672.65,744.552 1672.5,743.5C 1675.13,742.908 1677.79,742.575 1680.5,742.5C 1680.33,741.178 1680.66,740.011 1681.5,739C 1683.81,738.503 1686.14,738.337 1688.5,738.5C 1688.33,737.178 1688.66,736.011 1689.5,735C 1692.15,734.503 1694.81,734.336 1697.5,734.5C 1697.33,733.178 1697.66,732.011 1698.5,731C 1702.21,730.825 1705.88,730.325 1709.5,729.5C 1710.13,728.583 1710.46,727.583 1710.5,726.5 Z"/></g>
<g><path style="opacity:0.851" fill="#fefffe" d="M -0.5,864.5 C -0.5,848.833 -0.5,833.167 -0.5,817.5C 1.19686,815.695 2.03019,813.361 2,810.5C 3.01127,809.663 4.17793,809.33 5.5,809.5C 5.38958,806.941 6.05625,804.608 7.5,802.5C 8.97439,801.564 9.97439,800.23 10.5,798.5C 11.6888,797.571 13.0222,797.238 14.5,797.5C 14.3505,796.448 14.5172,795.448 15,794.5C 17.0715,793.475 19.2381,792.642 21.5,792C 22.3366,790.989 22.67,789.822 22.5,788.5C 23.8734,788.657 25.2068,788.49 26.5,788C 27.3757,786.415 28.7091,785.415 30.5,785C 33.4816,784.502 36.4816,784.335 39.5,784.5C 39.3601,782.876 40.0267,781.71 41.5,781C 50.8333,780.333 60.1667,780.333 69.5,781C 70.8333,781.667 71.8333,782.667 72.5,784C 78.7805,783.871 84.2805,785.704 89,789.5C 89.4828,790.448 89.6495,791.448 89.5,792.5C 91.9599,792.699 94.2933,793.365 96.5,794.5C 97.3697,796.526 98.8697,797.859 101,798.5C 102.959,801.661 104.792,804.995 106.5,808.5C 107.325,809.386 108.325,809.719 109.5,809.5C 110.159,812.455 110.492,815.455 110.5,818.5C 112.124,818.36 113.29,819.027 114,820.5C 114.667,834.5 114.667,848.5 114,862.5C 111.018,864.196 109.684,866.863 110,870.5C 106.531,872.433 104.864,875.433 105,879.5C 103.989,880.337 102.822,880.67 101.5,880.5C 101.5,881.833 101.5,883.167 101.5,884.5C 100.167,884.5 98.8333,884.5 97.5,884.5C 97.5,885.833 97.5,887.167 97.5,888.5C 94.718,888.773 92.5513,890.106 91,892.5C 88.9011,893.287 86.7345,893.62 84.5,893.5C 84.5,894.833 84.5,896.167 84.5,897.5C 80.8183,897.335 77.1516,897.501 73.5,898C 72.6634,899.011 72.33,900.178 72.5,901.5C 61.495,901.667 50.495,901.5 39.5,901C 36.0966,898.232 32.0966,896.899 27.5,897C 26.6634,895.989 26.33,894.822 26.5,893.5C 23.7938,893.425 21.1272,893.092 18.5,892.5C 17.2489,890.086 15.7489,887.753 14,885.5C 10.9056,885.207 9.40564,883.541 9.5,880.5C 8.17793,880.67 7.01127,880.337 6,879.5C 5.50335,877.19 5.33669,874.857 5.5,872.5C 4.16667,872.5 2.83333,872.5 1.5,872.5C 2.03562,869.302 1.36895,866.635 -0.5,864.5 Z"/></g>
<g><path style="opacity:0.852" fill="#fefffe" d="M 2132.5,817.5 C 2132.5,833.167 2132.5,848.833 2132.5,864.5C 2130.63,866.635 2129.96,869.302 2130.5,872.5C 2129.17,872.5 2127.83,872.5 2126.5,872.5C 2126.66,874.857 2126.5,877.19 2126,879.5C 2124.99,880.337 2123.82,880.67 2122.5,880.5C 2122.5,881.833 2122.5,883.167 2122.5,884.5C 2121.17,884.5 2119.83,884.5 2118.5,884.5C 2118.65,885.552 2118.48,886.552 2118,887.5C 2115.44,888.364 2113.6,890.031 2112.5,892.5C 2110.25,893.374 2107.92,893.708 2105.5,893.5C 2105.67,894.822 2105.34,895.989 2104.5,897C 2099.9,896.899 2095.9,898.232 2092.5,901C 2081.83,901.667 2071.17,901.667 2060.5,901C 2059.83,900 2059.17,899 2058.5,898C 2055.17,897.667 2051.83,897.333 2048.5,897C 2047.66,895.989 2047.33,894.822 2047.5,893.5C 2044.79,893.425 2042.13,893.092 2039.5,892.5C 2039.17,889.891 2037.67,888.224 2035,887.5C 2034.52,886.552 2034.35,885.552 2034.5,884.5C 2033.17,884.5 2031.83,884.5 2030.5,884.5C 2030.5,883.167 2030.5,881.833 2030.5,880.5C 2029.18,880.67 2028.01,880.337 2027,879.5C 2026.5,877.19 2026.34,874.857 2026.5,872.5C 2025.17,872.5 2023.83,872.5 2022.5,872.5C 2022.65,868.055 2021.15,864.388 2018,861.5C 2017.24,847.141 2017.4,832.808 2018.5,818.5C 2019.5,818.5 2020.5,818.5 2021.5,818.5C 2021.68,815.784 2022.18,813.117 2023,810.5C 2024.01,809.663 2025.18,809.33 2026.5,809.5C 2026.34,808.127 2026.51,806.793 2027,805.5C 2029.09,803.654 2030.43,801.321 2031,798.5C 2033.69,798.047 2035.53,796.547 2036.5,794C 2038,793.5 2039.5,793 2041,792.5C 2043.64,789.683 2046.64,787.349 2050,785.5C 2053.44,784.618 2056.94,784.284 2060.5,784.5C 2060.36,782.876 2061.03,781.71 2062.5,781C 2071.83,780.333 2081.17,780.333 2090.5,781C 2091.97,781.71 2092.64,782.876 2092.5,784.5C 2096.06,784.284 2099.56,784.618 2103,785.5C 2106.36,787.349 2109.36,789.683 2112,792.5C 2113.77,793.233 2115.6,793.567 2117.5,793.5C 2117.5,794.833 2117.5,796.167 2117.5,797.5C 2119.14,797.286 2120.64,797.62 2122,798.5C 2122.37,800.867 2123.54,802.7 2125.5,804C 2126.23,805.766 2126.57,807.599 2126.5,809.5C 2127.82,809.33 2128.99,809.663 2130,810.5C 2129.97,813.361 2130.8,815.695 2132.5,817.5 Z"/></g>
<g><path style="opacity:0.942" fill="#fefffe" d="M 823.5,1117.5 C 835.505,1117.33 847.505,1117.5 859.5,1118C 862.177,1118.25 864.51,1119.25 866.5,1121C 873.551,1121.21 880.551,1121.88 887.5,1123C 888.337,1124.01 888.67,1125.18 888.5,1126.5C 892.514,1126.33 896.514,1126.5 900.5,1127C 901.337,1128.01 901.67,1129.18 901.5,1130.5C 905.182,1130.33 908.848,1130.5 912.5,1131C 913.337,1132.01 913.67,1133.18 913.5,1134.5C 916.206,1134.58 918.873,1134.91 921.5,1135.5C 921.5,1136.5 921.5,1137.5 921.5,1138.5C 925.572,1139.7 929.572,1141.2 933.5,1143C 934.337,1144.01 934.67,1145.18 934.5,1146.5C 937.254,1146.78 939.92,1147.45 942.5,1148.5C 943.37,1150.53 944.87,1151.86 947,1152.5C 947.483,1153.45 947.649,1154.45 947.5,1155.5C 948.833,1155.5 950.167,1155.5 951.5,1155.5C 951.5,1156.83 951.5,1158.17 951.5,1159.5C 954.599,1159.09 956.933,1160.26 958.5,1163C 960.025,1164.01 961.692,1164.51 963.5,1164.5C 963.167,1167.5 964.5,1168.83 967.5,1168.5C 967.446,1171.97 968.946,1174.63 972,1176.5C 972.49,1177.79 972.657,1179.13 972.5,1180.5C 973.833,1180.5 975.167,1180.5 976.5,1180.5C 976.5,1181.83 976.5,1183.17 976.5,1184.5C 977.552,1184.35 978.552,1184.52 979.5,1185C 980.141,1187.13 981.474,1188.63 983.5,1189.5C 983.827,1193.5 985.661,1196.5 989,1198.5C 989.444,1201.61 990.777,1204.28 993,1206.5C 993.49,1207.79 993.657,1209.13 993.5,1210.5C 994.5,1210.5 995.5,1210.5 996.5,1210.5C 997.092,1213.13 997.425,1215.79 997.5,1218.5C 998.822,1218.33 999.989,1218.66 1001,1219.5C 1001.5,1223.15 1001.67,1226.82 1001.5,1230.5C 1002.82,1230.33 1003.99,1230.66 1005,1231.5C 1005.5,1235.49 1005.67,1239.49 1005.5,1243.5C 1006.82,1243.33 1007.99,1243.66 1009,1244.5C 1010,1251.47 1010.66,1258.47 1011,1265.5C 1012.75,1267.49 1013.75,1269.82 1014,1272.5C 1014.74,1286.19 1014.57,1299.85 1013.5,1313.5C 1012.5,1313.5 1011.5,1313.5 1010.5,1313.5C 1010.76,1321.22 1010.26,1328.89 1009,1336.5C 1008.31,1337.36 1007.48,1338.02 1006.5,1338.5C 1005.67,1342.12 1005.17,1345.79 1005,1349.5C 1004.31,1350.36 1003.48,1351.02 1002.5,1351.5C 1001.75,1355.19 1000.91,1358.86 1000,1362.5C 998.414,1365.22 996.414,1367.55 994,1369.5C 993.667,1371.5 993.333,1373.5 993,1375.5C 991.989,1376.34 990.822,1376.67 989.5,1376.5C 990.341,1380.57 989.007,1383.57 985.5,1385.5C 984.811,1387.44 984.311,1389.44 984,1391.5C 982.989,1392.34 981.822,1392.67 980.5,1392.5C 981.244,1395.95 979.91,1397.62 976.5,1397.5C 976.833,1400.5 975.5,1401.83 972.5,1401.5C 972.5,1402.83 972.5,1404.17 972.5,1405.5C 971.167,1405.5 969.833,1405.5 968.5,1405.5C 968.502,1407.83 967.669,1409.83 966,1411.5C 963.544,1413.25 961.378,1415.25 959.5,1417.5C 958.311,1418.43 956.978,1418.76 955.5,1418.5C 955.5,1419.83 955.5,1421.17 955.5,1422.5C 954.167,1422.5 952.833,1422.5 951.5,1422.5C 951.833,1425.5 950.5,1426.83 947.5,1426.5C 947.616,1429.91 945.95,1431.24 942.5,1430.5C 942.719,1431.68 942.386,1432.68 941.5,1433.5C 939.556,1434.19 937.556,1434.69 935.5,1435C 934.663,1436.01 934.33,1437.18 934.5,1438.5C 931.833,1438.83 929.167,1439.17 926.5,1439.5C 926.67,1440.82 926.337,1441.99 925.5,1443C 923.19,1443.5 920.857,1443.66 918.5,1443.5C 918.67,1444.82 918.337,1445.99 917.5,1447C 915.5,1447.33 913.5,1447.67 911.5,1448C 910.643,1448.69 909.977,1449.52 909.5,1450.5C 905.555,1451.49 901.555,1451.82 897.5,1451.5C 897.67,1452.82 897.337,1453.99 896.5,1455C 892.514,1455.5 888.514,1455.67 884.5,1455.5C 884.5,1456.83 884.5,1458.17 884.5,1459.5C 874.82,1459.91 865.153,1460.58 855.5,1461.5C 855.291,1462.09 854.957,1462.59 854.5,1463C 845.506,1464.96 836.506,1464.96 827.5,1463C 827.043,1462.59 826.709,1462.09 826.5,1461.5C 817.159,1460.73 807.825,1459.9 798.5,1459C 797.663,1457.99 797.33,1456.82 797.5,1455.5C 793.486,1455.67 789.486,1455.5 785.5,1455C 784.663,1453.99 784.33,1452.82 784.5,1451.5C 780.5,1451.5 776.5,1451.5 772.5,1451.5C 772.5,1450.17 772.5,1448.83 772.5,1447.5C 769.753,1447.81 767.086,1447.48 764.5,1446.5C 764.167,1445.83 763.833,1445.17 763.5,1444.5C 761.187,1443.73 758.854,1443.06 756.5,1442.5C 755.614,1441.68 755.281,1440.68 755.5,1439.5C 752.873,1438.91 750.206,1438.58 747.5,1438.5C 747.5,1437.17 747.5,1435.83 747.5,1434.5C 744.05,1435.24 742.384,1433.91 742.5,1430.5C 740.409,1430.68 738.409,1430.35 736.5,1429.5C 735.614,1428.68 735.281,1427.68 735.5,1426.5C 732.05,1427.24 730.384,1425.91 730.5,1422.5C 727.5,1422.83 726.167,1421.5 726.5,1418.5C 725.167,1418.5 723.833,1418.5 722.5,1418.5C 722.5,1417.17 722.5,1415.83 722.5,1414.5C 719.167,1414.5 717.5,1412.83 717.5,1409.5C 716.167,1409.5 714.833,1409.5 713.5,1409.5C 713.5,1408.17 713.5,1406.83 713.5,1405.5C 710.5,1405.83 709.167,1404.5 709.5,1401.5C 706.09,1401.62 704.756,1399.95 705.5,1396.5C 704.325,1396.72 703.325,1396.39 702.5,1395.5C 701.652,1393.59 701.318,1391.59 701.5,1389.5C 698.612,1389.78 697.112,1388.45 697,1385.5C 693.879,1383.44 692.379,1380.44 692.5,1376.5C 691.325,1376.72 690.325,1376.39 689.5,1375.5C 688.94,1373.15 688.273,1370.81 687.5,1368.5C 686.833,1368.17 686.167,1367.83 685.5,1367.5C 684.52,1364.91 684.187,1362.25 684.5,1359.5C 683.167,1359.5 681.833,1359.5 680.5,1359.5C 680.5,1355.5 680.5,1351.5 680.5,1347.5C 679.178,1347.67 678.011,1347.34 677,1346.5C 676.501,1342.51 676.334,1338.51 676.5,1334.5C 675.178,1334.67 674.011,1334.34 673,1333.5C 672.056,1324.18 671.223,1314.85 670.5,1305.5C 669.914,1305.29 669.414,1304.96 669,1304.5C 667.168,1295.2 667.002,1285.86 668.5,1276.5C 669.5,1276.5 670.5,1276.5 671.5,1276.5C 671.38,1266.81 671.713,1257.15 672.5,1247.5C 673.833,1247.5 675.167,1247.5 676.5,1247.5C 676.334,1243.49 676.501,1239.49 677,1235.5C 678.011,1234.66 679.178,1234.33 680.5,1234.5C 680.176,1230.45 680.509,1226.45 681.5,1222.5C 682.478,1222.02 683.311,1221.36 684,1220.5C 684.333,1218.5 684.667,1216.5 685,1214.5C 686.011,1213.66 687.178,1213.33 688.5,1213.5C 688.337,1211.14 688.503,1208.81 689,1206.5C 690.011,1205.66 691.178,1205.33 692.5,1205.5C 692.575,1202.79 692.908,1200.13 693.5,1197.5C 694.675,1197.72 695.675,1197.39 696.5,1196.5C 697.167,1194.5 697.833,1192.5 698.5,1190.5C 699.325,1189.61 700.325,1189.28 701.5,1189.5C 700.756,1186.05 702.09,1184.38 705.5,1184.5C 705.167,1181.5 706.5,1180.17 709.5,1180.5C 709.5,1179.17 709.5,1177.83 709.5,1176.5C 710.833,1176.5 712.167,1176.5 713.5,1176.5C 713.238,1175.02 713.571,1173.69 714.5,1172.5C 716.92,1169.58 719.587,1166.74 722.5,1164C 723.793,1163.51 725.127,1163.34 726.5,1163.5C 726.5,1162.17 726.5,1160.83 726.5,1159.5C 727.833,1159.5 729.167,1159.5 730.5,1159.5C 730.167,1156.5 731.5,1155.17 734.5,1155.5C 734.384,1152.09 736.05,1150.76 739.5,1151.5C 739.33,1150.18 739.663,1149.01 740.5,1148C 742.813,1147.34 745.146,1146.84 747.5,1146.5C 747.281,1145.32 747.614,1144.32 748.5,1143.5C 750.747,1142.63 753.08,1142.29 755.5,1142.5C 755.33,1141.18 755.663,1140.01 756.5,1139C 758.5,1138.67 760.5,1138.33 762.5,1138C 764.449,1135.59 766.782,1133.59 769.5,1132C 773.099,1130.99 776.765,1130.15 780.5,1129.5C 780.833,1128.83 781.167,1128.17 781.5,1127.5C 785.5,1126.83 789.5,1126.17 793.5,1125.5C 795.109,1123.06 797.443,1121.89 800.5,1122C 806.491,1121.5 812.491,1121.33 818.5,1121.5C 818.5,1120.5 818.5,1119.5 818.5,1118.5C 820.415,1118.78 822.081,1118.45 823.5,1117.5 Z"/></g>
<g><path style="opacity:0.942" fill="#fefffe" d="M 1272.5,1117.5 C 1286.19,1117.26 1299.86,1117.59 1313.5,1118.5C 1313.5,1119.5 1313.5,1120.5 1313.5,1121.5C 1321.23,1121.19 1328.89,1121.69 1336.5,1123C 1337.36,1123.69 1338.02,1124.52 1338.5,1125.5C 1342.5,1126.17 1346.5,1126.83 1350.5,1127.5C 1350.83,1128.17 1351.17,1128.83 1351.5,1129.5C 1355.23,1130.15 1358.9,1130.99 1362.5,1132C 1365.22,1133.59 1367.55,1135.59 1369.5,1138C 1371.5,1138.33 1373.5,1138.67 1375.5,1139C 1376.34,1140.01 1376.67,1141.18 1376.5,1142.5C 1378.53,1142.34 1380.53,1142.5 1382.5,1143C 1383.97,1143.71 1384.64,1144.88 1384.5,1146.5C 1386.85,1146.84 1389.19,1147.34 1391.5,1148C 1392.34,1149.01 1392.67,1150.18 1392.5,1151.5C 1395.95,1150.76 1397.62,1152.09 1397.5,1155.5C 1400.5,1155.17 1401.83,1156.5 1401.5,1159.5C 1402.83,1159.5 1404.17,1159.5 1405.5,1159.5C 1405.5,1160.83 1405.5,1162.17 1405.5,1163.5C 1406.87,1163.34 1408.21,1163.51 1409.5,1164C 1412.41,1166.74 1415.08,1169.58 1417.5,1172.5C 1418.43,1173.69 1418.76,1175.02 1418.5,1176.5C 1419.83,1176.5 1421.17,1176.5 1422.5,1176.5C 1422.5,1177.83 1422.5,1179.17 1422.5,1180.5C 1425.5,1180.17 1426.83,1181.5 1426.5,1184.5C 1429.91,1184.38 1431.24,1186.05 1430.5,1189.5C 1431.68,1189.28 1432.68,1189.61 1433.5,1190.5C 1434.17,1192.5 1434.83,1194.5 1435.5,1196.5C 1436.32,1197.39 1437.32,1197.72 1438.5,1197.5C 1439.09,1200.13 1439.42,1202.79 1439.5,1205.5C 1440.82,1205.33 1441.99,1205.66 1443,1206.5C 1443.5,1208.81 1443.66,1211.14 1443.5,1213.5C 1444.82,1213.33 1445.99,1213.66 1447,1214.5C 1447.33,1216.5 1447.67,1218.5 1448,1220.5C 1448.69,1221.36 1449.52,1222.02 1450.5,1222.5C 1451.49,1226.45 1451.82,1230.45 1451.5,1234.5C 1452.82,1234.33 1453.99,1234.66 1455,1235.5C 1455.5,1239.49 1455.67,1243.49 1455.5,1247.5C 1456.83,1247.5 1458.17,1247.5 1459.5,1247.5C 1460.32,1257.14 1460.66,1266.81 1460.5,1276.5C 1461.5,1276.5 1462.5,1276.5 1463.5,1276.5C 1464.48,1284.14 1464.65,1291.81 1464,1299.5C 1460.81,1310.75 1459.31,1322.41 1459.5,1334.5C 1458.17,1334.5 1456.83,1334.5 1455.5,1334.5C 1455.67,1338.51 1455.5,1342.51 1455,1346.5C 1453.99,1347.34 1452.82,1347.67 1451.5,1347.5C 1451.5,1351.5 1451.5,1355.5 1451.5,1359.5C 1450.17,1359.5 1448.83,1359.5 1447.5,1359.5C 1447.81,1362.25 1447.48,1364.91 1446.5,1367.5C 1445.83,1367.83 1445.17,1368.17 1444.5,1368.5C 1443.73,1370.81 1443.06,1373.15 1442.5,1375.5C 1441.68,1376.39 1440.68,1376.72 1439.5,1376.5C 1439.17,1379.17 1438.83,1381.83 1438.5,1384.5C 1435.46,1384.41 1433.79,1385.91 1433.5,1389C 1432.55,1389.48 1431.55,1389.65 1430.5,1389.5C 1430.68,1391.59 1430.35,1393.59 1429.5,1395.5C 1428.68,1396.39 1427.68,1396.72 1426.5,1396.5C 1427.24,1399.95 1425.91,1401.62 1422.5,1401.5C 1422.83,1404.5 1421.5,1405.83 1418.5,1405.5C 1418.5,1406.83 1418.5,1408.17 1418.5,1409.5C 1417.17,1409.5 1415.83,1409.5 1414.5,1409.5C 1414.5,1412.83 1412.83,1414.5 1409.5,1414.5C 1409.5,1415.83 1409.5,1417.17 1409.5,1418.5C 1408.17,1418.5 1406.83,1418.5 1405.5,1418.5C 1405.83,1421.5 1404.5,1422.83 1401.5,1422.5C 1401.62,1425.91 1399.95,1427.24 1396.5,1426.5C 1396.72,1427.68 1396.39,1428.68 1395.5,1429.5C 1393.59,1430.35 1391.59,1430.68 1389.5,1430.5C 1389.62,1433.91 1387.95,1435.24 1384.5,1434.5C 1384.5,1435.83 1384.5,1437.17 1384.5,1438.5C 1381.79,1438.58 1379.13,1438.91 1376.5,1439.5C 1376.72,1440.68 1376.39,1441.68 1375.5,1442.5C 1373.15,1443.06 1370.81,1443.73 1368.5,1444.5C 1368.17,1445.17 1367.83,1445.83 1367.5,1446.5C 1364.91,1447.48 1362.25,1447.81 1359.5,1447.5C 1359.5,1448.83 1359.5,1450.17 1359.5,1451.5C 1355.5,1451.5 1351.5,1451.5 1347.5,1451.5C 1347.67,1452.82 1347.34,1453.99 1346.5,1455C 1342.51,1455.5 1338.51,1455.67 1334.5,1455.5C 1334.67,1456.82 1334.34,1457.99 1333.5,1459C 1324.17,1459.9 1314.84,1460.73 1305.5,1461.5C 1305.29,1462.09 1304.96,1462.59 1304.5,1463C 1295.2,1464.83 1285.86,1465 1276.5,1463.5C 1276.5,1462.5 1276.5,1461.5 1276.5,1460.5C 1266.81,1460.58 1257.15,1460.25 1247.5,1459.5C 1247.5,1458.17 1247.5,1456.83 1247.5,1455.5C 1243.49,1455.67 1239.49,1455.5 1235.5,1455C 1234.66,1453.99 1234.33,1452.82 1234.5,1451.5C 1230.45,1451.82 1226.45,1451.49 1222.5,1450.5C 1222.02,1449.52 1221.36,1448.69 1220.5,1448C 1218.5,1447.67 1216.5,1447.33 1214.5,1447C 1213.66,1445.99 1213.33,1444.82 1213.5,1443.5C 1211.14,1443.66 1208.81,1443.5 1206.5,1443C 1205.66,1441.99 1205.33,1440.82 1205.5,1439.5C 1202.83,1439.17 1200.17,1438.83 1197.5,1438.5C 1197.65,1437.45 1197.48,1436.45 1197,1435.5C 1194.88,1434.77 1192.71,1434.11 1190.5,1433.5C 1189.61,1432.68 1189.28,1431.68 1189.5,1430.5C 1186.05,1431.24 1184.38,1429.91 1184.5,1426.5C 1181.5,1426.83 1180.17,1425.5 1180.5,1422.5C 1179.17,1422.5 1177.83,1422.5 1176.5,1422.5C 1176.5,1421.17 1176.5,1419.83 1176.5,1418.5C 1175.02,1418.76 1173.69,1418.43 1172.5,1417.5C 1169.56,1415.23 1166.89,1412.56 1164.5,1409.5C 1163.57,1408.31 1163.24,1406.98 1163.5,1405.5C 1162.17,1405.5 1160.83,1405.5 1159.5,1405.5C 1159.5,1404.17 1159.5,1402.83 1159.5,1401.5C 1156.5,1401.83 1155.17,1400.5 1155.5,1397.5C 1152.09,1397.62 1150.76,1395.95 1151.5,1392.5C 1150.18,1392.67 1149.01,1392.34 1148,1391.5C 1147.34,1389.19 1146.84,1386.85 1146.5,1384.5C 1145.32,1384.72 1144.32,1384.39 1143.5,1383.5C 1142.63,1381.25 1142.29,1378.92 1142.5,1376.5C 1141.18,1376.67 1140.01,1376.34 1139,1375.5C 1138.67,1373.5 1138.33,1371.5 1138,1369.5C 1135.59,1367.55 1133.59,1365.22 1132,1362.5C 1130.99,1358.9 1130.15,1355.23 1129.5,1351.5C 1128.83,1351.17 1128.17,1350.83 1127.5,1350.5C 1126.83,1346.5 1126.17,1342.5 1125.5,1338.5C 1123.17,1337.23 1122,1335.23 1122,1332.5C 1121.5,1326.18 1121.33,1319.84 1121.5,1313.5C 1120.5,1313.5 1119.5,1313.5 1118.5,1313.5C 1117.4,1299.53 1117.24,1285.53 1118,1271.5C 1118.47,1269.22 1119.47,1267.22 1121,1265.5C 1121.21,1258.45 1121.88,1251.45 1123,1244.5C 1124.01,1243.66 1125.18,1243.33 1126.5,1243.5C 1126.33,1239.49 1126.5,1235.49 1127,1231.5C 1128.01,1230.66 1129.18,1230.33 1130.5,1230.5C 1130.33,1226.82 1130.5,1223.15 1131,1219.5C 1132.01,1218.66 1133.18,1218.33 1134.5,1218.5C 1134.58,1215.79 1134.91,1213.13 1135.5,1210.5C 1136.5,1210.5 1137.5,1210.5 1138.5,1210.5C 1138.34,1209.13 1138.51,1207.79 1139,1206.5C 1141.22,1204.28 1142.56,1201.61 1143,1198.5C 1144,1197.83 1145,1197.17 1146,1196.5C 1146.68,1194.11 1147.51,1191.77 1148.5,1189.5C 1150.53,1188.63 1151.86,1187.13 1152.5,1185C 1153.45,1184.52 1154.45,1184.35 1155.5,1184.5C 1155.5,1183.17 1155.5,1181.83 1155.5,1180.5C 1156.83,1180.5 1158.17,1180.5 1159.5,1180.5C 1159.09,1177.4 1160.26,1175.07 1163,1173.5C 1164.01,1171.98 1164.51,1170.31 1164.5,1168.5C 1167.5,1168.83 1168.83,1167.5 1168.5,1164.5C 1171.88,1164.31 1174.54,1162.81 1176.5,1160C 1177.79,1159.51 1179.13,1159.34 1180.5,1159.5C 1180.5,1158.17 1180.5,1156.83 1180.5,1155.5C 1181.83,1155.5 1183.17,1155.5 1184.5,1155.5C 1184.35,1154.45 1184.52,1153.45 1185,1152.5C 1187.13,1151.86 1188.63,1150.53 1189.5,1148.5C 1191.77,1147.51 1194.11,1146.68 1196.5,1146C 1197.17,1145 1197.83,1144 1198.5,1143C 1201.61,1142.56 1204.28,1141.22 1206.5,1139C 1207.79,1138.51 1209.13,1138.34 1210.5,1138.5C 1210.5,1137.5 1210.5,1136.5 1210.5,1135.5C 1213.13,1134.91 1215.79,1134.58 1218.5,1134.5C 1218.33,1133.18 1218.66,1132.01 1219.5,1131C 1223.15,1130.5 1226.82,1130.33 1230.5,1130.5C 1230.33,1129.18 1230.66,1128.01 1231.5,1127C 1235.49,1126.5 1239.49,1126.33 1243.5,1126.5C 1243.33,1125.18 1243.66,1124.01 1244.5,1123C 1251.45,1121.88 1258.45,1121.21 1265.5,1121C 1267.71,1119.38 1270.05,1118.22 1272.5,1117.5 Z"/></g>
<g><path style="opacity:0.917" fill="#fefffe" d="M 390.5,1172.5 C 393.596,1171.91 395.929,1172.91 397.5,1175.5C 406.148,1176.33 414.814,1176.83 423.5,1177C 424.973,1177.71 425.64,1178.88 425.5,1180.5C 429.514,1180.33 433.514,1180.5 437.5,1181C 438.337,1182.01 438.67,1183.18 438.5,1184.5C 440.857,1184.34 443.19,1184.5 445.5,1185C 447.726,1187.95 450.726,1189.62 454.5,1190C 457.606,1192.39 460.606,1194.89 463.5,1197.5C 464.429,1198.69 464.762,1200.02 464.5,1201.5C 468.169,1200.7 470.836,1201.86 472.5,1205C 473.5,1205.33 474.5,1205.67 475.5,1206C 479.075,1211.01 482.575,1216.17 486,1221.5C 487.011,1222.34 488.178,1222.67 489.5,1222.5C 489.5,1223.83 489.5,1225.17 489.5,1226.5C 490.675,1226.28 491.675,1226.61 492.5,1227.5C 493.374,1229.75 493.708,1232.08 493.5,1234.5C 494.822,1234.33 495.989,1234.66 497,1235.5C 497.333,1237.83 497.667,1240.17 498,1242.5C 499.011,1243.34 500.178,1243.67 501.5,1243.5C 501.5,1247.5 501.5,1251.5 501.5,1255.5C 502.822,1255.33 503.989,1255.66 505,1256.5C 505.289,1263.21 505.955,1269.87 507,1276.5C 507.667,1277.17 508.333,1277.83 509,1278.5C 510.934,1286.17 510.934,1293.84 509,1301.5C 508.581,1302.67 507.915,1303.67 507,1304.5C 506.167,1311.5 505.333,1318.5 504.5,1325.5C 503.833,1325.83 503.167,1326.17 502.5,1326.5C 501.675,1330.12 501.175,1333.79 501,1337.5C 499.989,1338.34 498.822,1338.67 497.5,1338.5C 497.663,1340.86 497.497,1343.19 497,1345.5C 496,1346.17 495,1346.83 494,1347.5C 493.298,1351.7 491.632,1355.36 489,1358.5C 487.989,1359.34 486.822,1359.67 485.5,1359.5C 485.5,1362.83 483.833,1364.5 480.5,1364.5C 480.657,1365.87 480.49,1367.21 480,1368.5C 477.692,1369.88 476.192,1371.88 475.5,1374.5C 473.49,1376.17 471.157,1376.84 468.5,1376.5C 468.5,1377.83 468.5,1379.17 468.5,1380.5C 467.167,1380.5 465.833,1380.5 464.5,1380.5C 464.594,1383.54 463.094,1385.21 460,1385.5C 459.517,1386.45 459.351,1387.45 459.5,1388.5C 456.873,1389.09 454.206,1389.42 451.5,1389.5C 451.67,1390.82 451.337,1391.99 450.5,1393C 448.19,1393.5 445.857,1393.66 443.5,1393.5C 443.67,1394.82 443.337,1395.99 442.5,1397C 439.854,1397.5 437.187,1397.66 434.5,1397.5C 434.67,1398.82 434.337,1399.99 433.5,1401C 429.789,1401.17 426.122,1401.67 422.5,1402.5C 422.167,1403.17 421.833,1403.83 421.5,1404.5C 402.5,1405.83 383.5,1405.83 364.5,1404.5C 364.167,1403.83 363.833,1403.17 363.5,1402.5C 359.541,1401.67 355.541,1401.17 351.5,1401C 348.902,1398.04 345.568,1396.71 341.5,1397C 340.027,1396.29 339.36,1395.12 339.5,1393.5C 337.073,1393.48 334.74,1392.98 332.5,1392C 331.331,1390.16 329.664,1389 327.5,1388.5C 326.738,1387.37 326.071,1386.21 325.5,1385C 322.39,1384.95 320.056,1383.61 318.5,1381C 317.207,1380.51 315.873,1380.34 314.5,1380.5C 314.5,1379.17 314.5,1377.83 314.5,1376.5C 311.05,1377.24 309.384,1375.91 309.5,1372.5C 306.09,1372.62 304.756,1370.95 305.5,1367.5C 304.178,1367.67 303.011,1367.34 302,1366.5C 301.441,1363.72 300.108,1361.38 298,1359.5C 297.51,1358.21 297.343,1356.87 297.5,1355.5C 296.167,1355.5 294.833,1355.5 293.5,1355.5C 292.908,1352.87 292.575,1350.21 292.5,1347.5C 291.448,1347.65 290.448,1347.48 289.5,1347C 285.55,1342.31 283.883,1336.81 284.5,1330.5C 283.178,1330.67 282.011,1330.34 281,1329.5C 280.501,1325.51 280.334,1321.51 280.5,1317.5C 279.178,1317.67 278.011,1317.34 277,1316.5C 276.167,1299.16 276.334,1281.82 277.5,1264.5C 278.167,1264.17 278.833,1263.83 279.5,1263.5C 280.325,1259.88 280.825,1256.21 281,1252.5C 282.011,1251.66 283.178,1251.33 284.5,1251.5C 284.241,1247.76 284.574,1244.09 285.5,1240.5C 288.092,1238.1 289.758,1235.1 290.5,1231.5C 292.202,1228.79 294.368,1226.45 297,1224.5C 297.333,1222.83 297.667,1221.17 298,1219.5C 299.011,1218.66 300.178,1218.33 301.5,1218.5C 300.756,1215.05 302.09,1213.38 305.5,1213.5C 305.167,1210.5 306.5,1209.17 309.5,1209.5C 309.33,1208.18 309.663,1207.01 310.5,1206C 312.521,1205.6 313.855,1204.43 314.5,1202.5C 315.689,1201.57 317.022,1201.24 318.5,1201.5C 318.5,1200.17 318.5,1198.83 318.5,1197.5C 321.875,1194.83 325.875,1193.16 330.5,1192.5C 330.33,1191.18 330.663,1190.01 331.5,1189C 333.9,1188.81 336.234,1188.31 338.5,1187.5C 338.833,1186.83 339.167,1186.17 339.5,1185.5C 342.086,1184.52 344.753,1184.19 347.5,1184.5C 347.5,1183.17 347.5,1181.83 347.5,1180.5C 351.555,1180.82 355.555,1180.49 359.5,1179.5C 359.833,1178.83 360.167,1178.17 360.5,1177.5C 369.482,1176.67 378.482,1176.17 387.5,1176C 388.71,1174.96 389.71,1173.79 390.5,1172.5 Z"/></g>
<g><path style="opacity:0.917" fill="#fefffe" d="M 1736.5,1172.5 C 1739.94,1172.03 1742.61,1173.2 1744.5,1176C 1753.52,1176.17 1762.52,1176.67 1771.5,1177.5C 1771.83,1178.17 1772.17,1178.83 1772.5,1179.5C 1776.45,1180.49 1780.45,1180.82 1784.5,1180.5C 1784.5,1181.83 1784.5,1183.17 1784.5,1184.5C 1787.19,1184.34 1789.85,1184.5 1792.5,1185C 1793.34,1186.01 1793.67,1187.18 1793.5,1188.5C 1795.86,1188.34 1798.19,1188.5 1800.5,1189C 1801.34,1190.01 1801.67,1191.18 1801.5,1192.5C 1805.1,1192.13 1807.76,1193.47 1809.5,1196.5C 1810.69,1197.43 1812.02,1197.76 1813.5,1197.5C 1813.5,1198.83 1813.5,1200.17 1813.5,1201.5C 1816.95,1200.76 1818.62,1202.09 1818.5,1205.5C 1819.83,1205.5 1821.17,1205.5 1822.5,1205.5C 1822.5,1206.83 1822.5,1208.17 1822.5,1209.5C 1825.5,1209.17 1826.83,1210.5 1826.5,1213.5C 1829.91,1213.38 1831.24,1215.05 1830.5,1218.5C 1831.83,1218.5 1833.17,1218.5 1834.5,1218.5C 1834.3,1220.99 1834.8,1223.32 1836,1225.5C 1838.51,1227.67 1840.68,1230.17 1842.5,1233C 1842.63,1236.44 1844.13,1238.94 1847,1240.5C 1847.5,1244.15 1847.67,1247.82 1847.5,1251.5C 1848.83,1251.5 1850.17,1251.5 1851.5,1251.5C 1851.18,1255.55 1851.51,1259.55 1852.5,1263.5C 1853.17,1263.83 1853.83,1264.17 1854.5,1264.5C 1855.67,1281.82 1855.83,1299.16 1855,1316.5C 1853.99,1317.34 1852.82,1317.67 1851.5,1317.5C 1851.67,1321.51 1851.5,1325.51 1851,1329.5C 1849.99,1330.34 1848.82,1330.67 1847.5,1330.5C 1848.12,1336.81 1846.45,1342.31 1842.5,1347C 1841.55,1347.48 1840.55,1347.65 1839.5,1347.5C 1840.34,1351.57 1839.01,1354.57 1835.5,1356.5C 1833.79,1360.01 1831.96,1363.34 1830,1366.5C 1828.99,1367.34 1827.82,1367.67 1826.5,1367.5C 1827.24,1370.95 1825.91,1372.62 1822.5,1372.5C 1822.59,1375.54 1821.09,1377.21 1818,1377.5C 1817.52,1378.45 1817.35,1379.45 1817.5,1380.5C 1816.13,1380.34 1814.79,1380.51 1813.5,1381C 1808.35,1384.05 1803.69,1387.72 1799.5,1392C 1797.26,1392.98 1794.93,1393.48 1792.5,1393.5C 1792.72,1394.68 1792.39,1395.68 1791.5,1396.5C 1787.17,1396.6 1783.51,1398.1 1780.5,1401C 1776.51,1401.5 1772.51,1401.67 1768.5,1401.5C 1768.67,1402.82 1768.34,1403.99 1767.5,1405C 1748.49,1405.83 1729.49,1405.67 1710.5,1404.5C 1710.17,1403.83 1709.83,1403.17 1709.5,1402.5C 1705.88,1401.67 1702.21,1401.17 1698.5,1401C 1697.66,1399.99 1697.33,1398.82 1697.5,1397.5C 1694.81,1397.66 1692.15,1397.5 1689.5,1397C 1688.66,1395.99 1688.33,1394.82 1688.5,1393.5C 1686.14,1393.66 1683.81,1393.5 1681.5,1393C 1680.66,1391.99 1680.33,1390.82 1680.5,1389.5C 1677.79,1389.42 1675.13,1389.09 1672.5,1388.5C 1672.59,1385.46 1671.09,1383.79 1668,1383.5C 1667.52,1382.55 1667.35,1381.55 1667.5,1380.5C 1666.17,1380.5 1664.83,1380.5 1663.5,1380.5C 1663.5,1379.17 1663.5,1377.83 1663.5,1376.5C 1661.41,1376.68 1659.41,1376.35 1657.5,1375.5C 1656.32,1372.65 1654.49,1370.32 1652,1368.5C 1651.51,1367.21 1651.34,1365.87 1651.5,1364.5C 1650.45,1364.65 1649.45,1364.48 1648.5,1364C 1645.21,1360.58 1642.21,1356.91 1639.5,1353C 1639.25,1349.43 1637.75,1346.59 1635,1344.5C 1634.5,1342.53 1634.34,1340.53 1634.5,1338.5C 1633.18,1338.67 1632.01,1338.34 1631,1337.5C 1630.83,1333.79 1630.33,1330.12 1629.5,1326.5C 1628.83,1326.17 1628.17,1325.83 1627.5,1325.5C 1626.83,1318.5 1626.17,1311.5 1625.5,1304.5C 1624.2,1303.91 1623.37,1302.91 1623,1301.5C 1621.26,1293.85 1621.26,1286.18 1623,1278.5C 1623.69,1277.64 1624.52,1276.98 1625.5,1276.5C 1626.33,1269.86 1626.83,1263.19 1627,1256.5C 1628.01,1255.66 1629.18,1255.33 1630.5,1255.5C 1630.5,1251.5 1630.5,1247.5 1630.5,1243.5C 1631.82,1243.67 1632.99,1243.34 1634,1242.5C 1634.33,1240.17 1634.67,1237.83 1635,1235.5C 1636.01,1234.66 1637.18,1234.33 1638.5,1234.5C 1638.58,1231.79 1638.91,1229.13 1639.5,1226.5C 1640.5,1226.5 1641.5,1226.5 1642.5,1226.5C 1642.28,1223.89 1643.44,1222.22 1646,1221.5C 1649.45,1216.51 1652.78,1211.51 1656,1206.5C 1658.69,1206.05 1660.53,1204.55 1661.5,1202C 1663.47,1201.5 1665.47,1201.34 1667.5,1201.5C 1667.35,1200.45 1667.52,1199.45 1668,1198.5C 1672.8,1193.84 1678.3,1190.17 1684.5,1187.5C 1684.98,1186.52 1685.64,1185.69 1686.5,1185C 1688.81,1184.5 1691.14,1184.34 1693.5,1184.5C 1693.33,1183.18 1693.66,1182.01 1694.5,1181C 1700.08,1181.25 1705.08,1179.92 1709.5,1177C 1717.83,1176.67 1726.17,1176.33 1734.5,1176C 1735.31,1174.89 1735.97,1173.72 1736.5,1172.5 Z"/></g>
<g><path style="opacity:0.852" fill="#fefffe" d="M -0.5,1314.5 C -0.5,1298.83 -0.5,1283.17 -0.5,1267.5C 1.36895,1265.36 2.03562,1262.7 1.5,1259.5C 2.83333,1259.5 4.16667,1259.5 5.5,1259.5C 5.33669,1257.14 5.50335,1254.81 6,1252.5C 7.01127,1251.66 8.17793,1251.33 9.5,1251.5C 9.40564,1248.46 10.9056,1246.79 14,1246.5C 15.7489,1244.25 17.2489,1241.91 18.5,1239.5C 21.1272,1238.91 23.7938,1238.58 26.5,1238.5C 26.33,1237.18 26.6634,1236.01 27.5,1235C 30.8333,1234.67 34.1667,1234.33 37.5,1234C 38.1667,1233 38.8333,1232 39.5,1231C 50.495,1230.5 61.495,1230.33 72.5,1230.5C 72.33,1231.82 72.6634,1232.99 73.5,1234C 76.8333,1234.33 80.1667,1234.67 83.5,1235C 84.3366,1236.01 84.67,1237.18 84.5,1238.5C 88.7927,1237.98 92.126,1239.48 94.5,1243C 95.448,1243.48 96.448,1243.65 97.5,1243.5C 97.5,1244.83 97.5,1246.17 97.5,1247.5C 98.8333,1247.5 100.167,1247.5 101.5,1247.5C 101.5,1248.83 101.5,1250.17 101.5,1251.5C 102.822,1251.33 103.989,1251.66 105,1252.5C 104.864,1256.57 106.531,1259.57 110,1261.5C 109.684,1265.14 111.018,1267.8 114,1269.5C 114.667,1283.5 114.667,1297.5 114,1311.5C 113.29,1312.97 112.124,1313.64 110.5,1313.5C 110.492,1316.54 110.159,1319.54 109.5,1322.5C 108.325,1322.28 107.325,1322.61 106.5,1323.5C 104.792,1327.01 102.959,1330.34 101,1333.5C 98.8697,1334.14 97.3697,1335.47 96.5,1337.5C 94.2933,1338.63 91.9599,1339.3 89.5,1339.5C 89.6495,1340.55 89.4828,1341.55 89,1342.5C 84.2805,1346.3 78.7805,1348.13 72.5,1348C 71.8333,1349.33 70.8333,1350.33 69.5,1351C 60.1667,1351.67 50.8333,1351.67 41.5,1351C 40.0267,1350.29 39.3601,1349.12 39.5,1347.5C 36.4816,1347.66 33.4816,1347.5 30.5,1347C 28.7091,1346.58 27.3757,1345.58 26.5,1344C 25.2068,1343.51 23.8734,1343.34 22.5,1343.5C 22.6495,1342.45 22.4828,1341.45 22,1340.5C 19.9285,1339.48 17.7619,1338.64 15.5,1338C 14.6634,1336.99 14.33,1335.82 14.5,1334.5C 13.0222,1334.76 11.6888,1334.43 10.5,1333.5C 9.97439,1331.77 8.97439,1330.44 7.5,1329.5C 6.05625,1327.39 5.38958,1325.06 5.5,1322.5C 4.17793,1322.67 3.01127,1322.34 2,1321.5C 2.03019,1318.64 1.19686,1316.31 -0.5,1314.5 Z"/></g>
<g><path style="opacity:0.852" fill="#fefffe" d="M 2132.5,1267.5 C 2132.5,1283.17 2132.5,1298.83 2132.5,1314.5C 2130.8,1316.31 2129.97,1318.64 2130,1321.5C 2128.99,1322.34 2127.82,1322.67 2126.5,1322.5C 2126.57,1324.4 2126.23,1326.23 2125.5,1328C 2123.54,1329.3 2122.37,1331.13 2122,1333.5C 2120.64,1334.38 2119.14,1334.71 2117.5,1334.5C 2117.5,1335.83 2117.5,1337.17 2117.5,1338.5C 2115.6,1338.43 2113.77,1338.77 2112,1339.5C 2109.36,1342.32 2106.36,1344.65 2103,1346.5C 2099.56,1347.38 2096.06,1347.72 2092.5,1347.5C 2092.64,1349.12 2091.97,1350.29 2090.5,1351C 2081.17,1351.67 2071.83,1351.67 2062.5,1351C 2061.03,1350.29 2060.36,1349.12 2060.5,1347.5C 2056.94,1347.72 2053.44,1347.38 2050,1346.5C 2046.64,1344.65 2043.64,1342.32 2041,1339.5C 2037.9,1339.26 2035.73,1337.76 2034.5,1335C 2033.23,1334.69 2032.07,1334.19 2031,1333.5C 2030.43,1330.68 2029.09,1328.35 2027,1326.5C 2026.51,1325.21 2026.34,1323.87 2026.5,1322.5C 2025.18,1322.67 2024.01,1322.34 2023,1321.5C 2022.18,1318.88 2021.68,1316.22 2021.5,1313.5C 2020.5,1313.5 2019.5,1313.5 2018.5,1313.5C 2017.4,1299.19 2017.24,1284.86 2018,1270.5C 2021.15,1267.61 2022.65,1263.95 2022.5,1259.5C 2023.83,1259.5 2025.17,1259.5 2026.5,1259.5C 2026.34,1257.14 2026.5,1254.81 2027,1252.5C 2028.01,1251.66 2029.18,1251.33 2030.5,1251.5C 2030.5,1250.17 2030.5,1248.83 2030.5,1247.5C 2031.83,1247.5 2033.17,1247.5 2034.5,1247.5C 2034.32,1244.68 2035.65,1243.01 2038.5,1242.5C 2039.39,1241.68 2039.72,1240.68 2039.5,1239.5C 2042.13,1238.91 2044.79,1238.58 2047.5,1238.5C 2047.33,1237.18 2047.66,1236.01 2048.5,1235C 2051.83,1234.67 2055.17,1234.33 2058.5,1234C 2059.17,1233 2059.83,1232 2060.5,1231C 2071.17,1230.33 2081.83,1230.33 2092.5,1231C 2093.17,1232 2093.83,1233 2094.5,1234C 2097.83,1234.33 2101.17,1234.67 2104.5,1235C 2105.34,1236.01 2105.67,1237.18 2105.5,1238.5C 2108.21,1238.58 2110.87,1238.91 2113.5,1239.5C 2113.83,1242.11 2115.33,1243.78 2118,1244.5C 2118.48,1245.45 2118.65,1246.45 2118.5,1247.5C 2119.83,1247.5 2121.17,1247.5 2122.5,1247.5C 2122.5,1248.83 2122.5,1250.17 2122.5,1251.5C 2123.82,1251.33 2124.99,1251.66 2126,1252.5C 2126.5,1254.81 2126.66,1257.14 2126.5,1259.5C 2127.83,1259.5 2129.17,1259.5 2130.5,1259.5C 2129.96,1262.7 2130.63,1265.36 2132.5,1267.5 Z"/></g>
<g><path style="opacity:0.916" fill="#fefffe" d="M 387.5,1621.5 C 400.164,1624.12 413.164,1625.79 426.5,1626.5C 426.5,1627.83 426.5,1629.17 426.5,1630.5C 430.514,1630.33 434.514,1630.5 438.5,1631C 439.337,1632.01 439.67,1633.18 439.5,1634.5C 441.857,1634.34 444.19,1634.5 446.5,1635C 447.337,1636.01 447.67,1637.18 447.5,1638.5C 449.857,1638.34 452.19,1638.5 454.5,1639C 455.337,1640.01 455.67,1641.18 455.5,1642.5C 456.978,1642.24 458.311,1642.57 459.5,1643.5C 461.343,1646.42 464.01,1647.76 467.5,1647.5C 467.406,1650.54 468.906,1652.21 472,1652.5C 472.483,1653.45 472.649,1654.45 472.5,1655.5C 473.833,1655.5 475.167,1655.5 476.5,1655.5C 476.5,1656.83 476.5,1658.17 476.5,1659.5C 477.552,1659.35 478.552,1659.52 479.5,1660C 480.141,1662.13 481.474,1663.63 483.5,1664.5C 484.965,1668.99 486.965,1672.99 489.5,1676.5C 490.822,1676.33 491.989,1676.66 493,1677.5C 493.497,1679.81 493.663,1682.14 493.5,1684.5C 494.822,1684.33 495.989,1684.66 497,1685.5C 497.497,1687.81 497.663,1690.14 497.5,1692.5C 498.822,1692.33 499.989,1692.66 501,1693.5C 501.499,1697.49 501.666,1701.49 501.5,1705.5C 502.833,1705.5 504.167,1705.5 505.5,1705.5C 505.374,1711.19 505.707,1716.86 506.5,1722.5C 511.8,1733.67 511.8,1744.83 506.5,1756C 505.898,1761.82 505.398,1767.66 505,1773.5C 504.29,1774.97 503.124,1775.64 501.5,1775.5C 501.665,1779.18 501.499,1782.85 501,1786.5C 500.29,1787.97 499.124,1788.64 497.5,1788.5C 496.7,1792.79 495.2,1796.79 493,1800.5C 491.989,1801.34 490.822,1801.67 489.5,1801.5C 489.425,1804.21 489.092,1806.87 488.5,1809.5C 486.086,1810.75 483.753,1812.25 481.5,1814C 481.207,1817.09 479.541,1818.59 476.5,1818.5C 476.5,1819.83 476.5,1821.17 476.5,1822.5C 475.167,1822.5 473.833,1822.5 472.5,1822.5C 472.5,1823.83 472.5,1825.17 472.5,1826.5C 471.167,1826.5 469.833,1826.5 468.5,1826.5C 468.67,1827.82 468.337,1828.99 467.5,1830C 465.479,1830.4 464.145,1831.57 463.5,1833.5C 462.311,1834.43 460.978,1834.76 459.5,1834.5C 459.67,1835.82 459.337,1836.99 458.5,1838C 456.187,1838.66 453.854,1839.16 451.5,1839.5C 451.5,1840.5 451.5,1841.5 451.5,1842.5C 448.833,1842.83 446.167,1843.17 443.5,1843.5C 443.64,1845.12 442.973,1846.29 441.5,1847C 438.5,1847.33 435.5,1847.67 432.5,1848C 431.643,1848.69 430.977,1849.52 430.5,1850.5C 426.555,1851.49 422.555,1851.82 418.5,1851.5C 418.67,1852.82 418.337,1853.99 417.5,1855C 400.833,1855.67 384.167,1855.67 367.5,1855C 363.417,1852.12 358.75,1850.79 353.5,1851C 350.919,1848.01 347.586,1846.85 343.5,1847.5C 343.67,1846.18 343.337,1845.01 342.5,1844C 340.109,1843.71 337.776,1843.21 335.5,1842.5C 334.614,1841.68 334.281,1840.68 334.5,1839.5C 331.873,1838.91 329.206,1838.58 326.5,1838.5C 326.5,1837.17 326.5,1835.83 326.5,1834.5C 325.167,1834.5 323.833,1834.5 322.5,1834.5C 322.5,1833.17 322.5,1831.83 322.5,1830.5C 321.127,1830.66 319.793,1830.49 318.5,1830C 316.618,1827.89 314.285,1826.56 311.5,1826C 310.333,1823.5 308.5,1821.67 306,1820.5C 305.426,1817.68 304.092,1815.35 302,1813.5C 301.51,1812.21 301.343,1810.87 301.5,1809.5C 300.167,1809.5 298.833,1809.5 297.5,1809.5C 297.5,1808.17 297.5,1806.83 297.5,1805.5C 296.167,1805.5 294.833,1805.5 293.5,1805.5C 293.425,1802.79 293.092,1800.13 292.5,1797.5C 291.325,1797.72 290.325,1797.39 289.5,1796.5C 288.787,1794.22 288.287,1791.89 288,1789.5C 286.989,1788.66 285.822,1788.33 284.5,1788.5C 285.154,1784.41 283.988,1781.08 281,1778.5C 281.21,1773.25 279.877,1768.58 277,1764.5C 276.333,1747.83 276.333,1731.17 277,1714.5C 278.011,1713.66 279.178,1713.33 280.5,1713.5C 280.5,1709.5 280.5,1705.5 280.5,1701.5C 281.675,1701.72 282.675,1701.39 283.5,1700.5C 284.254,1697.22 284.754,1693.89 285,1690.5C 285.71,1689.03 286.876,1688.36 288.5,1688.5C 288.833,1685.83 289.167,1683.17 289.5,1680.5C 290.5,1680.5 291.5,1680.5 292.5,1680.5C 292.838,1678.15 293.338,1675.81 294,1673.5C 295.011,1672.66 296.178,1672.33 297.5,1672.5C 297.238,1671.02 297.571,1669.69 298.5,1668.5C 300.432,1667.85 301.599,1666.52 302,1664.5C 303.011,1663.66 304.178,1663.33 305.5,1663.5C 305.5,1662.17 305.5,1660.83 305.5,1659.5C 306.833,1659.5 308.167,1659.5 309.5,1659.5C 309.5,1658.17 309.5,1656.83 309.5,1655.5C 310.833,1655.5 312.167,1655.5 313.5,1655.5C 313.22,1652.61 314.553,1651.11 317.5,1651C 319.221,1648.3 321.221,1645.8 323.5,1643.5C 325.747,1642.63 328.08,1642.29 330.5,1642.5C 330.33,1641.18 330.663,1640.01 331.5,1639C 335.213,1636.8 339.213,1635.3 343.5,1634.5C 343.36,1632.88 344.027,1631.71 345.5,1631C 349.152,1630.5 352.818,1630.33 356.5,1630.5C 356.36,1628.88 357.027,1627.71 358.5,1627C 365.85,1626.29 373.183,1625.46 380.5,1624.5C 382.621,1622.98 384.954,1621.98 387.5,1621.5 Z"/></g>
<g><path style="opacity:0.917" fill="#fefffe" d="M 836.5,1621.5 C 849.188,1623.96 862.188,1625.8 875.5,1627C 876.337,1628.01 876.67,1629.18 876.5,1630.5C 880.5,1630.5 884.5,1630.5 888.5,1630.5C 888.33,1631.82 888.663,1632.99 889.5,1634C 891.833,1634.33 894.167,1634.67 896.5,1635C 897.337,1636.01 897.67,1637.18 897.5,1638.5C 899.527,1638.34 901.527,1638.5 903.5,1639C 904.973,1639.71 905.64,1640.88 905.5,1642.5C 906.833,1642.5 908.167,1642.5 909.5,1642.5C 909.33,1643.82 909.663,1644.99 910.5,1646C 915.763,1649.46 920.93,1652.96 926,1656.5C 926.227,1659.06 927.56,1660.73 930,1661.5C 930.495,1663.47 930.662,1665.47 930.5,1667.5C 931.833,1667.5 933.167,1667.5 934.5,1667.5C 934.351,1668.55 934.517,1669.55 935,1670.5C 939.681,1674.11 942.847,1678.77 944.5,1684.5C 945.478,1684.98 946.311,1685.64 947,1686.5C 947.497,1688.81 947.663,1691.14 947.5,1693.5C 948.822,1693.33 949.989,1693.66 951,1694.5C 951.499,1698.49 951.666,1702.49 951.5,1706.5C 952.5,1706.5 953.5,1706.5 954.5,1706.5C 955.087,1715.82 955.753,1725.15 956.5,1734.5C 960.532,1737.9 960.365,1741.23 956,1744.5C 955.832,1753.52 955.332,1762.52 954.5,1771.5C 953.833,1771.83 953.167,1772.17 952.5,1772.5C 951.509,1776.45 951.176,1780.45 951.5,1784.5C 950.167,1784.5 948.833,1784.5 947.5,1784.5C 947.813,1787.25 947.48,1789.91 946.5,1792.5C 945.833,1792.83 945.167,1793.17 944.5,1793.5C 943.727,1795.81 943.06,1798.15 942.5,1800.5C 941.675,1801.39 940.675,1801.72 939.5,1801.5C 938.633,1805.97 936.966,1809.97 934.5,1813.5C 933.167,1813.5 931.833,1813.5 930.5,1813.5C 930.762,1814.98 930.429,1816.31 929.5,1817.5C 927.568,1818.15 926.401,1819.48 926,1821.5C 924.989,1822.34 923.822,1822.67 922.5,1822.5C 922.833,1825.5 921.5,1826.83 918.5,1826.5C 918.616,1829.91 916.95,1831.24 913.5,1830.5C 913.67,1831.82 913.337,1832.99 912.5,1834C 910.833,1834.33 909.167,1834.67 907.5,1835C 903.641,1839.93 898.641,1842.77 892.5,1843.5C 892.64,1845.12 891.973,1846.29 890.5,1847C 887.183,1847.5 883.85,1847.67 880.5,1847.5C 880.67,1848.82 880.337,1849.99 879.5,1851C 875.833,1851.33 872.167,1851.67 868.5,1852C 867.663,1853.01 867.33,1854.18 867.5,1855.5C 850.163,1855.67 832.83,1855.5 815.5,1855C 814.663,1853.99 814.33,1852.82 814.5,1851.5C 810.486,1851.67 806.486,1851.5 802.5,1851C 801.663,1849.99 801.33,1848.82 801.5,1847.5C 795.191,1848.12 789.691,1846.45 785,1842.5C 784.517,1841.55 784.351,1840.55 784.5,1839.5C 781.794,1839.42 779.127,1839.09 776.5,1838.5C 776.5,1837.17 776.5,1835.83 776.5,1834.5C 775.127,1834.66 773.793,1834.49 772.5,1834C 770.654,1831.91 768.321,1830.57 765.5,1830C 764.663,1828.99 764.33,1827.82 764.5,1826.5C 761.05,1827.24 759.384,1825.91 759.5,1822.5C 756.09,1822.62 754.756,1820.95 755.5,1817.5C 754.167,1817.5 752.833,1817.5 751.5,1817.5C 751.657,1816.13 751.49,1814.79 751,1813.5C 747.947,1808.35 744.281,1803.69 740,1799.5C 739.023,1797.26 738.523,1794.93 738.5,1792.5C 736.876,1792.64 735.71,1791.97 735,1790.5C 732.006,1783.61 730.173,1776.27 729.5,1768.5C 728.833,1768.17 728.167,1767.83 727.5,1767.5C 726.167,1748.5 726.167,1729.5 727.5,1710.5C 728.167,1710.17 728.833,1709.83 729.5,1709.5C 730.491,1705.55 730.824,1701.55 730.5,1697.5C 731.833,1697.5 733.167,1697.5 734.5,1697.5C 734.336,1694.81 734.503,1692.15 735,1689.5C 736.011,1688.66 737.178,1688.33 738.5,1688.5C 738.337,1686.14 738.503,1683.81 739,1681.5C 740.011,1680.66 741.178,1680.33 742.5,1680.5C 742.575,1677.79 742.908,1675.13 743.5,1672.5C 746.541,1672.59 748.207,1671.09 748.5,1668C 749.448,1667.52 750.448,1667.35 751.5,1667.5C 751.5,1666.17 751.5,1664.83 751.5,1663.5C 752.833,1663.5 754.167,1663.5 755.5,1663.5C 755.298,1661.01 755.798,1658.68 757,1656.5C 759.775,1655.86 761.941,1654.36 763.5,1652C 764.793,1651.51 766.127,1651.34 767.5,1651.5C 767.5,1648.17 769.167,1646.5 772.5,1646.5C 772.33,1645.18 772.663,1644.01 773.5,1643C 776.637,1640.37 780.304,1638.7 784.5,1638C 785.167,1637 785.833,1636 786.5,1635C 788.81,1634.5 791.143,1634.34 793.5,1634.5C 793.5,1633.17 793.5,1631.83 793.5,1630.5C 797.5,1630.5 801.5,1630.5 805.5,1630.5C 805.33,1629.18 805.663,1628.01 806.5,1627C 813.874,1626.5 821.208,1625.66 828.5,1624.5C 831.092,1623.08 833.759,1622.08 836.5,1621.5 Z"/></g>
<g><path style="opacity:0.917" fill="#fefffe" d="M 1285.5,1621.5 C 1298.64,1623.95 1311.97,1625.95 1325.5,1627.5C 1325.83,1628.17 1326.17,1628.83 1326.5,1629.5C 1330.12,1630.33 1333.79,1630.83 1337.5,1631C 1338.34,1632.01 1338.67,1633.18 1338.5,1634.5C 1340.86,1634.34 1343.19,1634.5 1345.5,1635C 1346.17,1636 1346.83,1637 1347.5,1638C 1351.7,1638.7 1355.36,1640.37 1358.5,1643C 1359.34,1644.01 1359.67,1645.18 1359.5,1646.5C 1362.83,1646.5 1364.5,1648.17 1364.5,1651.5C 1365.87,1651.34 1367.21,1651.51 1368.5,1652C 1369.81,1654.33 1371.81,1655.66 1374.5,1656C 1376.11,1658.23 1376.78,1660.73 1376.5,1663.5C 1377.83,1663.5 1379.17,1663.5 1380.5,1663.5C 1380.5,1664.83 1380.5,1666.17 1380.5,1667.5C 1383.54,1667.41 1385.21,1668.91 1385.5,1672C 1386.45,1672.48 1387.45,1672.65 1388.5,1672.5C 1389.09,1675.13 1389.42,1677.79 1389.5,1680.5C 1390.82,1680.33 1391.99,1680.66 1393,1681.5C 1393.5,1683.81 1393.66,1686.14 1393.5,1688.5C 1394.82,1688.33 1395.99,1688.66 1397,1689.5C 1397.5,1692.15 1397.66,1694.81 1397.5,1697.5C 1398.83,1697.5 1400.17,1697.5 1401.5,1697.5C 1401.18,1701.55 1401.51,1705.55 1402.5,1709.5C 1403.17,1709.83 1403.83,1710.17 1404.5,1710.5C 1405.83,1729.5 1405.83,1748.5 1404.5,1767.5C 1403.83,1767.83 1403.17,1768.17 1402.5,1768.5C 1401.83,1776.27 1399.99,1783.61 1397,1790.5C 1396.29,1791.97 1395.12,1792.64 1393.5,1792.5C 1393.48,1794.93 1392.98,1797.26 1392,1799.5C 1387.72,1803.69 1384.05,1808.35 1381,1813.5C 1380.51,1814.79 1380.34,1816.13 1380.5,1817.5C 1379.17,1817.5 1377.83,1817.5 1376.5,1817.5C 1377.24,1820.95 1375.91,1822.62 1372.5,1822.5C 1372.62,1825.91 1370.95,1827.24 1367.5,1826.5C 1367.67,1827.82 1367.34,1828.99 1366.5,1830C 1363.68,1830.57 1361.35,1831.91 1359.5,1834C 1358.21,1834.49 1356.87,1834.66 1355.5,1834.5C 1355.5,1835.83 1355.5,1837.17 1355.5,1838.5C 1352.87,1839.09 1350.21,1839.42 1347.5,1839.5C 1347.65,1840.55 1347.48,1841.55 1347,1842.5C 1342.31,1846.45 1336.81,1848.12 1330.5,1847.5C 1330.67,1848.82 1330.34,1849.99 1329.5,1851C 1325.51,1851.5 1321.51,1851.67 1317.5,1851.5C 1317.67,1852.82 1317.34,1853.99 1316.5,1855C 1299.16,1855.83 1281.82,1855.67 1264.5,1854.5C 1264.17,1853.83 1263.83,1853.17 1263.5,1852.5C 1259.88,1851.67 1256.21,1851.17 1252.5,1851C 1251.66,1849.99 1251.33,1848.82 1251.5,1847.5C 1247.76,1847.76 1244.09,1847.43 1240.5,1846.5C 1238.1,1843.91 1235.1,1842.24 1231.5,1841.5C 1228.79,1839.8 1226.45,1837.63 1224.5,1835C 1222.83,1834.67 1221.17,1834.33 1219.5,1834C 1218.66,1832.99 1218.33,1831.82 1218.5,1830.5C 1215.05,1831.24 1213.38,1829.91 1213.5,1826.5C 1210.5,1826.83 1209.17,1825.5 1209.5,1822.5C 1208.18,1822.67 1207.01,1822.34 1206,1821.5C 1205.6,1819.48 1204.43,1818.15 1202.5,1817.5C 1201.57,1816.31 1201.24,1814.98 1201.5,1813.5C 1200.17,1813.5 1198.83,1813.5 1197.5,1813.5C 1197.76,1812.02 1197.43,1810.69 1196.5,1809.5C 1193.47,1807.76 1192.13,1805.1 1192.5,1801.5C 1191.18,1801.67 1190.01,1801.34 1189,1800.5C 1188.81,1798.1 1188.31,1795.77 1187.5,1793.5C 1186.83,1793.17 1186.17,1792.83 1185.5,1792.5C 1184.52,1789.91 1184.19,1787.25 1184.5,1784.5C 1183.17,1784.5 1181.83,1784.5 1180.5,1784.5C 1180.82,1780.45 1180.49,1776.45 1179.5,1772.5C 1178.83,1772.17 1178.17,1771.83 1177.5,1771.5C 1176.67,1762.52 1176.17,1753.52 1176,1744.5C 1171.63,1741.23 1171.47,1737.9 1175.5,1734.5C 1176.25,1725.15 1176.91,1715.82 1177.5,1706.5C 1178.5,1706.5 1179.5,1706.5 1180.5,1706.5C 1180.33,1702.49 1180.5,1698.49 1181,1694.5C 1182.01,1693.66 1183.18,1693.33 1184.5,1693.5C 1184.34,1691.14 1184.5,1688.81 1185,1686.5C 1187.95,1684.27 1189.62,1681.27 1190,1677.5C 1192.3,1674.36 1194.8,1671.36 1197.5,1668.5C 1198.69,1667.57 1200.02,1667.24 1201.5,1667.5C 1200.7,1663.83 1201.86,1661.16 1205,1659.5C 1205.33,1658.5 1205.67,1657.5 1206,1656.5C 1211.07,1652.96 1216.24,1649.46 1221.5,1646C 1222.34,1644.99 1222.67,1643.82 1222.5,1642.5C 1223.83,1642.5 1225.17,1642.5 1226.5,1642.5C 1226.28,1641.32 1226.61,1640.32 1227.5,1639.5C 1229.75,1638.63 1232.08,1638.29 1234.5,1638.5C 1234.33,1637.18 1234.66,1636.01 1235.5,1635C 1237.83,1634.67 1240.17,1634.33 1242.5,1634C 1243.34,1632.99 1243.67,1631.82 1243.5,1630.5C 1247.5,1630.5 1251.5,1630.5 1255.5,1630.5C 1255.33,1629.18 1255.66,1628.01 1256.5,1627C 1263.17,1626.33 1269.83,1625.67 1276.5,1625C 1277.17,1624.33 1277.83,1623.67 1278.5,1623C 1281.04,1622.81 1283.37,1622.31 1285.5,1621.5 Z"/></g>
<g><path style="opacity:0.916" fill="#fefffe" d="M 1734.5,1621.5 C 1747.16,1624.13 1760.16,1625.96 1773.5,1627C 1774.97,1627.71 1775.64,1628.88 1775.5,1630.5C 1779.18,1630.33 1782.85,1630.5 1786.5,1631C 1787.97,1631.71 1788.64,1632.88 1788.5,1634.5C 1792.93,1635.09 1796.93,1636.59 1800.5,1639C 1801.34,1640.01 1801.67,1641.18 1801.5,1642.5C 1803.92,1642.29 1806.25,1642.63 1808.5,1643.5C 1810.52,1645.84 1812.52,1648.17 1814.5,1650.5C 1815.69,1651.43 1817.02,1651.76 1818.5,1651.5C 1818.5,1652.83 1818.5,1654.17 1818.5,1655.5C 1819.83,1655.5 1821.17,1655.5 1822.5,1655.5C 1822.5,1656.83 1822.5,1658.17 1822.5,1659.5C 1823.83,1659.5 1825.17,1659.5 1826.5,1659.5C 1826.5,1660.83 1826.5,1662.17 1826.5,1663.5C 1827.82,1663.33 1828.99,1663.66 1830,1664.5C 1830.4,1666.52 1831.57,1667.85 1833.5,1668.5C 1834.43,1669.69 1834.76,1671.02 1834.5,1672.5C 1835.82,1672.33 1836.99,1672.66 1838,1673.5C 1838.66,1675.81 1839.16,1678.15 1839.5,1680.5C 1840.5,1680.5 1841.5,1680.5 1842.5,1680.5C 1843.09,1683.13 1843.42,1685.79 1843.5,1688.5C 1844.82,1688.33 1845.99,1688.66 1847,1689.5C 1847.33,1692.83 1847.67,1696.17 1848,1699.5C 1848.71,1700.97 1849.88,1701.64 1851.5,1701.5C 1851.5,1705.5 1851.5,1709.5 1851.5,1713.5C 1852.82,1713.33 1853.99,1713.66 1855,1714.5C 1855.67,1731.17 1855.67,1747.83 1855,1764.5C 1852.12,1768.58 1850.79,1773.25 1851,1778.5C 1850.31,1779.36 1849.48,1780.02 1848.5,1780.5C 1847.01,1786.07 1845.18,1791.41 1843,1796.5C 1841.99,1797.34 1840.82,1797.67 1839.5,1797.5C 1839.42,1800.21 1839.09,1802.87 1838.5,1805.5C 1835.5,1805.17 1834.17,1806.5 1834.5,1809.5C 1833.17,1809.5 1831.83,1809.5 1830.5,1809.5C 1830.66,1810.87 1830.49,1812.21 1830,1813.5C 1825.98,1822.01 1819.48,1827.84 1810.5,1831C 1809.66,1832.01 1809.33,1833.18 1809.5,1834.5C 1808.17,1834.5 1806.83,1834.5 1805.5,1834.5C 1805.5,1835.83 1805.5,1837.17 1805.5,1838.5C 1802.83,1838.83 1800.17,1839.17 1797.5,1839.5C 1797.72,1840.68 1797.39,1841.68 1796.5,1842.5C 1794.15,1843.06 1791.81,1843.73 1789.5,1844.5C 1789.17,1845.17 1788.83,1845.83 1788.5,1846.5C 1785.91,1847.48 1783.25,1847.81 1780.5,1847.5C 1780.64,1849.12 1779.97,1850.29 1778.5,1851C 1773.25,1850.79 1768.58,1852.12 1764.5,1855C 1747.82,1855.83 1731.16,1855.67 1714.5,1854.5C 1714.17,1853.83 1713.83,1853.17 1713.5,1852.5C 1709.55,1851.51 1705.55,1851.18 1701.5,1851.5C 1701.64,1849.88 1700.97,1848.71 1699.5,1848C 1696.5,1847.67 1693.5,1847.33 1690.5,1847C 1689.64,1846.31 1688.98,1845.48 1688.5,1844.5C 1683.41,1842.41 1678.41,1840.25 1673.5,1838C 1672.66,1836.99 1672.33,1835.82 1672.5,1834.5C 1671.17,1834.5 1669.83,1834.5 1668.5,1834.5C 1668.59,1831.46 1667.09,1829.79 1664,1829.5C 1663.52,1828.55 1663.35,1827.55 1663.5,1826.5C 1662.17,1826.5 1660.83,1826.5 1659.5,1826.5C 1659.5,1825.17 1659.5,1823.83 1659.5,1822.5C 1658.17,1822.5 1656.83,1822.5 1655.5,1822.5C 1655.5,1821.17 1655.5,1819.83 1655.5,1818.5C 1652.46,1818.59 1650.79,1817.09 1650.5,1814C 1649.55,1813.52 1648.55,1813.35 1647.5,1813.5C 1647.5,1812.17 1647.5,1810.83 1647.5,1809.5C 1646.17,1809.5 1644.83,1809.5 1643.5,1809.5C 1642.91,1806.87 1642.58,1804.21 1642.5,1801.5C 1641.18,1801.67 1640.01,1801.34 1639,1800.5C 1636.8,1796.79 1635.3,1792.79 1634.5,1788.5C 1632.88,1788.64 1631.71,1787.97 1631,1786.5C 1630.5,1782.85 1630.33,1779.18 1630.5,1775.5C 1628.88,1775.64 1627.71,1774.97 1627,1773.5C 1626.5,1766.17 1626.33,1758.84 1626.5,1751.5C 1625.18,1751.67 1624.01,1751.34 1623,1750.5C 1621.26,1742.85 1621.26,1735.18 1623,1727.5C 1624.01,1726.66 1625.18,1726.33 1626.5,1726.5C 1626.5,1719.5 1626.5,1712.5 1626.5,1705.5C 1627.83,1705.5 1629.17,1705.5 1630.5,1705.5C 1630.33,1701.49 1630.5,1697.49 1631,1693.5C 1632.01,1692.66 1633.18,1692.33 1634.5,1692.5C 1634.34,1690.14 1634.5,1687.81 1635,1685.5C 1636.01,1684.66 1637.18,1684.33 1638.5,1684.5C 1638.34,1682.14 1638.5,1679.81 1639,1677.5C 1640.01,1676.66 1641.18,1676.33 1642.5,1676.5C 1642.24,1675.02 1642.57,1673.69 1643.5,1672.5C 1646.53,1670.76 1647.87,1668.1 1647.5,1664.5C 1650.54,1664.59 1652.21,1663.09 1652.5,1660C 1653.45,1659.52 1654.45,1659.35 1655.5,1659.5C 1655.5,1658.17 1655.5,1656.83 1655.5,1655.5C 1656.83,1655.5 1658.17,1655.5 1659.5,1655.5C 1659.41,1652.46 1660.91,1650.79 1664,1650.5C 1664.48,1649.55 1664.65,1648.55 1664.5,1647.5C 1668.1,1647.87 1670.76,1646.53 1672.5,1643.5C 1673.69,1642.57 1675.02,1642.24 1676.5,1642.5C 1676.33,1641.18 1676.66,1640.01 1677.5,1639C 1679.81,1638.5 1682.14,1638.34 1684.5,1638.5C 1684.33,1637.18 1684.66,1636.01 1685.5,1635C 1687.9,1634.81 1690.23,1634.31 1692.5,1633.5C 1692.83,1632.83 1693.17,1632.17 1693.5,1631.5C 1697.45,1630.51 1701.45,1630.18 1705.5,1630.5C 1705.5,1629.17 1705.5,1627.83 1705.5,1626.5C 1710.68,1626.47 1715.85,1626.13 1721,1625.5C 1725.28,1623.48 1729.78,1622.15 1734.5,1621.5 Z"/></g>
<g><path style="opacity:0.851" fill="#fefffe" d="M 864.5,2132.5 C 848.833,2132.5 833.167,2132.5 817.5,2132.5C 815.695,2130.8 813.361,2129.97 810.5,2130C 809.663,2128.99 809.33,2127.82 809.5,2126.5C 806.941,2126.61 804.608,2125.94 802.5,2124.5C 801.564,2123.03 800.23,2122.03 798.5,2121.5C 797.571,2120.31 797.238,2118.98 797.5,2117.5C 796.167,2117.5 794.833,2117.5 793.5,2117.5C 793.477,2115.07 792.977,2112.74 792,2110.5C 790.989,2109.66 789.822,2109.33 788.5,2109.5C 788.657,2108.13 788.49,2106.79 788,2105.5C 786.415,2104.62 785.415,2103.29 785,2101.5C 784.502,2098.52 784.335,2095.52 784.5,2092.5C 782.876,2092.64 781.71,2091.97 781,2090.5C 780.333,2081.17 780.333,2071.83 781,2062.5C 781.667,2061.17 782.667,2060.17 784,2059.5C 783.871,2053.22 785.704,2047.72 789.5,2043C 790.448,2042.52 791.448,2042.35 792.5,2042.5C 792.699,2040.04 793.365,2037.71 794.5,2035.5C 796.526,2034.63 797.859,2033.13 798.5,2031C 801.661,2029.04 804.995,2027.21 808.5,2025.5C 809.386,2024.68 809.719,2023.68 809.5,2022.5C 812.455,2021.84 815.455,2021.51 818.5,2021.5C 818.36,2019.88 819.027,2018.71 820.5,2018C 834.5,2017.33 848.5,2017.33 862.5,2018C 864.196,2020.98 866.863,2022.32 870.5,2022C 872.433,2025.47 875.433,2027.14 879.5,2027C 880.337,2028.01 880.67,2029.18 880.5,2030.5C 881.833,2030.5 883.167,2030.5 884.5,2030.5C 884.5,2031.83 884.5,2033.17 884.5,2034.5C 885.833,2034.5 887.167,2034.5 888.5,2034.5C 891.166,2037.96 892.999,2041.96 894,2046.5C 895,2047.17 896,2047.83 897,2048.5C 897.333,2051.83 897.667,2055.17 898,2058.5C 899.011,2059.34 900.178,2059.67 901.5,2059.5C 901.667,2070.51 901.5,2081.51 901,2092.5C 898.228,2095.94 896.894,2099.94 897,2104.5C 895.989,2105.34 894.822,2105.67 893.5,2105.5C 893.425,2108.21 893.092,2110.87 892.5,2113.5C 891.448,2113.35 890.448,2113.52 889.5,2114C 887.5,2116.67 885.5,2119.33 883.5,2122C 882.552,2122.48 881.552,2122.65 880.5,2122.5C 880.67,2123.82 880.337,2124.99 879.5,2126C 877.19,2126.5 874.857,2126.66 872.5,2126.5C 872.67,2127.82 872.337,2128.99 871.5,2130C 868.639,2129.97 866.305,2130.8 864.5,2132.5 Z"/></g>
<g><path style="opacity:0.851" fill="#fefffe" d="M 1314.5,2132.5 C 1298.83,2132.5 1283.17,2132.5 1267.5,2132.5C 1265.36,2130.63 1262.7,2129.96 1259.5,2130.5C 1259.5,2129.17 1259.5,2127.83 1259.5,2126.5C 1257.14,2126.66 1254.81,2126.5 1252.5,2126C 1251.66,2124.99 1251.33,2123.82 1251.5,2122.5C 1250.45,2122.65 1249.45,2122.48 1248.5,2122C 1246.76,2119.3 1244.76,2116.8 1242.5,2114.5C 1241.68,2113.61 1240.68,2113.28 1239.5,2113.5C 1238.91,2110.87 1238.58,2108.21 1238.5,2105.5C 1237.18,2105.67 1236.01,2105.34 1235,2104.5C 1235.1,2099.9 1233.77,2095.9 1231,2092.5C 1230.5,2081.51 1230.33,2070.51 1230.5,2059.5C 1231.82,2059.67 1232.99,2059.34 1234,2058.5C 1234.5,2054.85 1234.67,2051.18 1234.5,2047.5C 1235.82,2047.67 1236.99,2047.34 1238,2046.5C 1239,2041.96 1240.83,2037.96 1243.5,2034.5C 1244.83,2034.5 1246.17,2034.5 1247.5,2034.5C 1247.5,2033.17 1247.5,2031.83 1247.5,2030.5C 1248.83,2030.5 1250.17,2030.5 1251.5,2030.5C 1251.33,2029.18 1251.66,2028.01 1252.5,2027C 1256.57,2027.14 1259.57,2025.47 1261.5,2022C 1265.14,2022.32 1267.8,2020.98 1269.5,2018C 1283.5,2017.33 1297.5,2017.33 1311.5,2018C 1312.97,2018.71 1313.64,2019.88 1313.5,2021.5C 1316.54,2021.51 1319.54,2021.84 1322.5,2022.5C 1322.28,2023.68 1322.61,2024.68 1323.5,2025.5C 1327.01,2027.21 1330.34,2029.04 1333.5,2031C 1334.14,2033.13 1335.47,2034.63 1337.5,2035.5C 1338.63,2037.71 1339.3,2040.04 1339.5,2042.5C 1340.55,2042.35 1341.55,2042.52 1342.5,2043C 1346.3,2047.72 1348.13,2053.22 1348,2059.5C 1349.33,2060.17 1350.33,2061.17 1351,2062.5C 1351.67,2071.83 1351.67,2081.17 1351,2090.5C 1350.29,2091.97 1349.12,2092.64 1347.5,2092.5C 1347.72,2096.06 1347.38,2099.56 1346.5,2103C 1344.68,2105.83 1342.51,2108.33 1340,2110.5C 1339.02,2112.74 1338.52,2115.07 1338.5,2117.5C 1337.17,2117.5 1335.83,2117.5 1334.5,2117.5C 1334.76,2118.98 1334.43,2120.31 1333.5,2121.5C 1331.77,2122.03 1330.44,2123.03 1329.5,2124.5C 1327.39,2125.94 1325.06,2126.61 1322.5,2126.5C 1322.67,2127.82 1322.34,2128.99 1321.5,2130C 1318.64,2129.97 1316.31,2130.8 1314.5,2132.5 Z"/></g>
</svg>
