<?xml version="1.0" encoding="UTF-8"?>
<!DOCTYPE svg PUBLIC "-//W3C//DTD SVG 1.1//EN" "http://www.w3.org/Graphics/SVG/1.1/DTD/svg11.dtd">
<svg xmlns="http://www.w3.org/2000/svg" version="1.1" width="440px" height="441px" style="shape-rendering:geometricPrecision; text-rendering:geometricPrecision; image-rendering:optimizeQuality; fill-rule:evenodd; clip-rule:evenodd" xmlns:xlink="http://www.w3.org/1999/xlink">
<g><path style="opacity:1" fill="#fefffe" d="M 119.5,84.5 C 119.5,94.5 119.5,104.5 119.5,114.5C 109.5,114.5 99.5,114.5 89.5,114.5C 89.5,194.5 89.5,274.5 89.5,354.5C 169.5,354.5 249.5,354.5 329.5,354.5C 329.5,344.5 329.5,334.5 329.5,324.5C 339.5,324.5 349.5,324.5 359.5,324.5C 359.5,334.5 359.5,344.5 359.5,354.5C 369.5,354.5 379.5,354.5 389.5,354.5C 389.5,364.5 389.5,374.5 389.5,384.5C 279.5,384.5 169.5,384.5 59.5,384.5C 59.5,274.5 59.5,164.5 59.5,54.5C 69.5,54.5 79.5,54.5 89.5,54.5C 89.5,64.5 89.5,74.5 89.5,84.5C 99.5,84.5 109.5,84.5 119.5,84.5 Z"/></g>
<g><path style="opacity:1" fill="#fefffe" d="M 149.5,84.5 C 139.5,84.5 129.5,84.5 119.5,84.5C 119.5,74.5 119.5,64.5 119.5,54.5C 129.5,54.5 139.5,54.5 149.5,54.5C 149.5,64.5 149.5,74.5 149.5,84.5 Z"/></g>
<g><path style="opacity:1" fill="#fefffe" d="M 149.5,84.5 C 159.5,84.5 169.5,84.5 179.5,84.5C 179.5,94.5 179.5,104.5 179.5,114.5C 169.5,114.5 159.5,114.5 149.5,114.5C 149.5,104.5 149.5,94.5 149.5,84.5 Z"/></g>
<g><path style="opacity:1" fill="#fefffe" d="M 209.5,114.5 C 209.5,104.5 209.5,94.5 209.5,84.5C 219.5,84.5 229.5,84.5 239.5,84.5C 239.5,94.5 239.5,104.5 239.5,114.5C 229.5,114.5 219.5,114.5 209.5,114.5 Z"/></g>
<g><path style="opacity:1" fill="#fefffe" d="M 269.5,84.5 C 279.5,84.5 289.5,84.5 299.5,84.5C 299.5,94.5 299.5,104.5 299.5,114.5C 289.5,114.5 279.5,114.5 269.5,114.5C 269.5,104.5 269.5,94.5 269.5,84.5 Z"/></g>
<g><path style="opacity:1" fill="#fefffe" d="M 119.5,114.5 C 129.5,114.5 139.5,114.5 149.5,114.5C 149.5,124.5 149.5,134.5 149.5,144.5C 139.5,144.5 129.5,144.5 119.5,144.5C 119.5,134.5 119.5,124.5 119.5,114.5 Z"/></g>
<g><path style="opacity:1" fill="#fefffe" d="M 179.5,114.5 C 189.5,114.5 199.5,114.5 209.5,114.5C 209.5,124.5 209.5,134.5 209.5,144.5C 199.5,144.5 189.5,144.5 179.5,144.5C 179.5,134.5 179.5,124.5 179.5,114.5 Z"/></g>
<g><path style="opacity:1" fill="#fefffe" d="M 149.5,144.5 C 159.5,144.5 169.5,144.5 179.5,144.5C 179.5,154.5 179.5,164.5 179.5,174.5C 169.5,174.5 159.5,174.5 149.5,174.5C 149.5,164.5 149.5,154.5 149.5,144.5 Z"/></g>
<g><path style="opacity:1" fill="#fefffe" d="M 209.5,144.5 C 219.5,144.5 229.5,144.5 239.5,144.5C 239.5,154.5 239.5,164.5 239.5,174.5C 229.5,174.5 219.5,174.5 209.5,174.5C 209.5,164.5 209.5,154.5 209.5,144.5 Z"/></g>
<g><path style="opacity:1" fill="#fefffe" d="M 269.5,174.5 C 269.5,164.5 269.5,154.5 269.5,144.5C 279.5,144.5 289.5,144.5 299.5,144.5C 299.5,154.5 299.5,164.5 299.5,174.5C 289.5,174.5 279.5,174.5 269.5,174.5 Z"/></g>
<g><path style="opacity:1" fill="#fefffe" d="M 329.5,144.5 C 339.5,144.5 349.5,144.5 359.5,144.5C 359.5,154.5 359.5,164.5 359.5,174.5C 349.5,174.5 339.5,174.5 329.5,174.5C 329.5,164.5 329.5,154.5 329.5,144.5 Z"/></g>
<g><path style="opacity:1" fill="#fefffe" d="M 179.5,174.5 C 189.5,174.5 199.5,174.5 209.5,174.5C 209.5,184.5 209.5,194.5 209.5,204.5C 199.5,204.5 189.5,204.5 179.5,204.5C 179.5,194.5 179.5,184.5 179.5,174.5 Z"/></g>
<g><path style="opacity:1" fill="#fefffe" d="M 239.5,174.5 C 249.5,174.5 259.5,174.5 269.5,174.5C 269.5,184.5 269.5,194.5 269.5,204.5C 259.5,204.5 249.5,204.5 239.5,204.5C 239.5,194.5 239.5,184.5 239.5,174.5 Z"/></g>
<g><path style="opacity:1" fill="#fefffe" d="M 209.5,204.5 C 219.5,204.5 229.5,204.5 239.5,204.5C 239.5,214.5 239.5,224.5 239.5,234.5C 229.5,234.5 219.5,234.5 209.5,234.5C 209.5,224.5 209.5,214.5 209.5,204.5 Z"/></g>
<g><path style="opacity:1" fill="#fefffe" d="M 269.5,204.5 C 279.5,204.5 289.5,204.5 299.5,204.5C 299.5,214.5 299.5,224.5 299.5,234.5C 289.5,234.5 279.5,234.5 269.5,234.5C 269.5,224.5 269.5,214.5 269.5,204.5 Z"/></g>
<g><path style="opacity:1" fill="#fefffe" d="M 329.5,234.5 C 329.5,224.5 329.5,214.5 329.5,204.5C 339.5,204.5 349.5,204.5 359.5,204.5C 359.5,214.5 359.5,224.5 359.5,234.5C 349.5,234.5 339.5,234.5 329.5,234.5 Z"/></g>
<g><path style="opacity:1" fill="#fefffe" d="M 239.5,234.5 C 249.5,234.5 259.5,234.5 269.5,234.5C 269.5,244.5 269.5,254.5 269.5,264.5C 259.5,264.5 249.5,264.5 239.5,264.5C 239.5,254.5 239.5,244.5 239.5,234.5 Z"/></g>
<g><path style="opacity:1" fill="#fefffe" d="M 299.5,234.5 C 309.5,234.5 319.5,234.5 329.5,234.5C 329.5,244.5 329.5,254.5 329.5,264.5C 319.5,264.5 309.5,264.5 299.5,264.5C 299.5,254.5 299.5,244.5 299.5,234.5 Z"/></g>
<g><path style="opacity:1" fill="#fefffe" d="M 269.5,264.5 C 279.5,264.5 289.5,264.5 299.5,264.5C 299.5,274.5 299.5,284.5 299.5,294.5C 289.5,294.5 279.5,294.5 269.5,294.5C 269.5,284.5 269.5,274.5 269.5,264.5 Z"/></g>
<g><path style="opacity:1" fill="#fefffe" d="M 329.5,264.5 C 339.5,264.5 349.5,264.5 359.5,264.5C 359.5,274.5 359.5,284.5 359.5,294.5C 349.5,294.5 339.5,294.5 329.5,294.5C 329.5,284.5 329.5,274.5 329.5,264.5 Z"/></g>
<g><path style="opacity:1" fill="#fefffe" d="M 299.5,294.5 C 309.5,294.5 319.5,294.5 329.5,294.5C 329.5,304.5 329.5,314.5 329.5,324.5C 319.5,324.5 309.5,324.5 299.5,324.5C 299.5,314.5 299.5,304.5 299.5,294.5 Z"/></g>
<g><path style="opacity:1" fill="#fefffe" d="M 359.5,294.5 C 369.5,294.5 379.5,294.5 389.5,294.5C 389.5,304.5 389.5,314.5 389.5,324.5C 379.5,324.5 369.5,324.5 359.5,324.5C 359.5,314.5 359.5,304.5 359.5,294.5 Z"/></g>
</svg>
